<?xml version="1.0" encoding="UTF-8"?>
<svg id="Layer_2" data-name="Layer 2" xmlns="http://www.w3.org/2000/svg" viewBox="0 0 286.32 325.54">
  <defs>
    <style>
      .cls-1 {
        fill: #c8102e;
      }
    </style>
  </defs>
  <g id="Layer_2-2" data-name="Layer 2">
    <g>
      <path class="cls-1" d="M277.97,251.03c-3.49-5.13-8.37-8.64-13.99-11.5.78-1.74,2.18-3.1,3.85-4.41,5.54,2.99,10.37,6.84,14.09,11.82,8.43,11.3,3.94,24.41-6.66,33.05-11.38,9.28-23.81,17.16-37.15,23.53-20.43,9.75-41.97,16.34-64.38,19.69-33.94,5.07-66.33,1.83-98.79-9.03-22.89-7.66-44.24-19-63.08-33.97-4.73-3.76-8.31-8.39-10.51-13.92-4.05-10.16,1.46-20.09,9.79-26.71,9.22-7.32,21.69-12.14,33.18-15.37,1.08,1.55,1.79,3.01,1.98,5.17-12.69,3.48-30.02,10.04-37.65,20.8-6.46,9.12-1.32,17.73,6.66,24.35,11,9.12,27.53,15.37,41.46,19.34,36.86,10.48,76.65,13.2,114.86,10.45,30.19-2.17,72.46-10.01,97.11-27.6,8.73-6.23,15.95-15.76,9.21-25.67Z"/>
      <path class="cls-1" d="M170.59,74.1c5.77,16.85-2.93,35.31-17.22,45.63,8.37-16.13,9.89-32.98-.29-48.13-2.28-3.39-4.28-6.63-6.05-10.32-4.82-10.03-5.45-20.97-2.37-31.73,3.47-11.08,9.46-21.15,18.14-29.56-1.89,5.66-4.13,10.9-5.5,16.75-2.1,8.96-2.71,17.99-.77,27.04,2.82,13.15,10.53,20.02,14.05,30.31Z"/>
      <path class="cls-1" d="M129.55,133.22c2.73-8.22,4.25-16.14,2.82-24.53-1.89-11.12-8.47-16.33-12.99-24.51-9.54-17.24-1.33-37.29,11.61-51.07-.68,2.97-1.68,5.28-2.48,8.01-2.42,8.31-3.42,16.88-1.71,25.46,2.47,12.4,11.53,18.53,14.96,29.05,2.12,6.49,1.56,13.15-.59,19.64-2.49,6.65-6.08,12.76-11.63,17.94Z"/>
      <path class="cls-1" d="M270.22,178.63c-9.01-4.36-19.21-4.05-28.11,1.24l-.18-12.26c-.05-3.4-2.26-6.18-5-8.11-3.33-2.33-6.96-3.84-10.86-5.16-23.21-7.86-56.08-10.01-80.92-10.21-26.24-.2-70.22,2.07-93.29,12.79-3.01,1.4-5.65,3.19-7.74,5.74-1.58,1.95-2.16,4.18-2.27,6.86-1.05,26.88,6.45,53.57,21.34,76.03,8.56,12.93,19.71,23.72,32.78,31.98,1.08,2.26,2.49,3.93,4.56,5.33,10.64,7.17,27.92,8.69,40.98,8.74,12.72.06,30.6-1.71,41.24-8.12,2.6-1.57,4.73-3.67,5.98-6.5,9.61-6.06,17.77-13.68,25.24-22.43,19.48-6.8,40.29-14.33,56.25-27.7,4.52-3.84,8.37-8,11.15-13.25,7.25-13.67,2.71-28.27-11.14-34.96ZM180.31,184.23c-24.57,2.08-48.97,2.09-73.58.32-13.77-.99-47.55-4.91-56.09-13.42-1.92-1.9-1.9-4.64.23-6.57,6.36-5.78,22.71-9.12,32.23-10.63,33.19-5.27,71.8-5.6,105.22-1.86,11.97,1.34,38.99,5.37,46.12,13.15,1.55,1.69,1.61,3.82.03,5.53-7.91,8.58-40.78,12.34-54.17,13.47ZM273.41,200.66c-.35,9.16-9.12,17-16.78,22.24-5.8,3.97-11.54,7.34-17.91,9.9l-13.59,5.45c6.53-11.59,11.03-23.74,13.65-36.62l5.96-8.61c6.29-7.27,16.41-7.89,23.54-2.26,3.06,2.42,5.29,5.84,5.13,9.9Z"/>
    </g>
  </g>
</svg>