<?xml version="1.0" encoding="UTF-8"?>
<svg id="Layer_2" data-name="Layer 2" xmlns="http://www.w3.org/2000/svg" viewBox="0 0 304.41 220.96">
  <defs>
    <style>
      .cls-1 {
        fill: #c8102e;
      }
    </style>
  </defs>
  <g id="Layer_2-2" data-name="Layer 2">
    <g>
      <path class="cls-1" d="M224.39,48.02c-5.41,0-9.8,4.38-9.8,9.79s4.39,9.8,9.8,9.8,9.79-4.39,9.79-9.8-4.38-9.79-9.79-9.79ZM242.27,29.48c-5.38,0-9.74,4.36-9.74,9.75s4.36,9.74,9.74,9.74,9.75-4.36,9.75-9.74-4.38-9.75-9.75-9.75ZM242.66,66.4c-5.43,0-9.82,4.39-9.82,9.8s4.39,9.82,9.82,9.82,9.8-4.39,9.8-9.82-4.39-9.8-9.8-9.8ZM260.58,47.87c-5.43,0-9.8,4.39-9.8,9.82s4.38,9.8,9.8,9.8,9.8-4.39,9.8-9.8-4.39-9.82-9.8-9.82ZM260.58,47.87c-5.43,0-9.8,4.39-9.8,9.82s4.38,9.8,9.8,9.8,9.8-4.39,9.8-9.8-4.39-9.82-9.8-9.82ZM242.66,66.4c-5.43,0-9.82,4.39-9.82,9.8s4.39,9.82,9.82,9.82,9.8-4.39,9.8-9.82-4.39-9.8-9.8-9.8ZM242.27,29.48c-5.38,0-9.74,4.36-9.74,9.75s4.36,9.74,9.74,9.74,9.75-4.36,9.75-9.74-4.38-9.75-9.75-9.75ZM224.39,48.02c-5.41,0-9.8,4.38-9.8,9.79s4.39,9.8,9.8,9.8,9.79-4.39,9.79-9.8-4.38-9.79-9.79-9.79ZM53.87,56.39l-4.96-4.93c-.98-.98-2.25-1.35-3.63-1.35l-9.82-.02c-1.22,0-2.05,1-1.98,2.23.22,3.71.22,7.26.1,10.99-.03,1.12.72,2.2,1.9,2.2l10.44.07c1.23,0,2.3-.35,3.25-1.31l4.66-4.74c.95-.95,1.03-2.16.05-3.13ZM65.53,68.09l-4.84-4.74c-.78-.78-1.9-.75-2.66.02l-5.28,5.36c-.63.65-1.03,1.5-1.03,2.46l.02,10.65c0,.98.78,1.98,1.78,1.98l11.45-.02c1.35,0,1.93-1.22,1.93-2.31v-9.97c0-1.32-.45-2.53-1.37-3.43ZM66.89,34.15c-.02-1.25-.85-2.06-2.05-2.06h-11c-1.23,0-2.11.78-2.13,2.06l-.02,10.29c-.02,1.63.82,2.65,1.88,3.73l4.41,4.48c.88.9,2,.67,2.95-.3l4.29-4.39c1.08-1.12,1.68-2.25,1.68-3.86l-.02-9.94ZM83.2,50.12l-10.84.03c-1.05.02-1.96.53-2.66,1.23l-4.83,4.76c-.55.55-.9,1.15-.88,1.85.02.65.48,1.15,1.03,1.7l4.06,4.14c1.1,1.12,2.38,1.78,4.16,1.76l10.1-.1c1.03-.02,1.91-.9,1.91-1.91l.02-11.19c0-1.23-.77-2.28-2.08-2.28ZM106.06,94.96c-9.01,0-16.31,7.29-16.31,16.3s7.31,16.31,16.31,16.31,16.3-7.31,16.3-16.31-7.29-16.3-16.3-16.3ZM224.39,48.02c-5.41,0-9.8,4.38-9.8,9.79s4.39,9.8,9.8,9.8,9.79-4.39,9.79-9.8-4.38-9.79-9.79-9.79ZM242.27,29.48c-5.38,0-9.74,4.36-9.74,9.75s4.36,9.74,9.74,9.74,9.75-4.36,9.75-9.74-4.38-9.75-9.75-9.75ZM242.66,66.4c-5.43,0-9.82,4.39-9.82,9.8s4.39,9.82,9.82,9.82,9.8-4.39,9.8-9.82-4.39-9.8-9.8-9.8ZM260.58,47.87c-5.43,0-9.8,4.39-9.8,9.82s4.38,9.8,9.8,9.8,9.8-4.39,9.8-9.8-4.39-9.82-9.8-9.82ZM260.58,47.87c-5.43,0-9.8,4.39-9.8,9.82s4.38,9.8,9.8,9.8,9.8-4.39,9.8-9.8-4.39-9.82-9.8-9.82ZM242.66,66.4c-5.43,0-9.82,4.39-9.82,9.8s4.39,9.82,9.82,9.82,9.8-4.39,9.8-9.82-4.39-9.8-9.8-9.8ZM242.27,29.48c-5.38,0-9.74,4.36-9.74,9.75s4.36,9.74,9.74,9.74,9.75-4.36,9.75-9.74-4.38-9.75-9.75-9.75ZM224.39,48.02c-5.41,0-9.8,4.38-9.8,9.79s4.39,9.8,9.8,9.8,9.79-4.39,9.79-9.8-4.38-9.79-9.79-9.79ZM106.06,94.96c-9.01,0-16.31,7.29-16.31,16.3s7.31,16.31,16.31,16.31,16.3-7.31,16.3-16.31-7.29-16.3-16.3-16.3ZM83.2,50.12l-10.84.03c-1.05.02-1.96.53-2.66,1.23l-4.83,4.76c-.55.55-.9,1.15-.88,1.85.02.65.48,1.15,1.03,1.7l4.06,4.14c1.1,1.12,2.38,1.78,4.16,1.76l10.1-.1c1.03-.02,1.91-.9,1.91-1.91l.02-11.19c0-1.23-.77-2.28-2.08-2.28ZM66.89,34.15c-.02-1.25-.85-2.06-2.05-2.06h-11c-1.23,0-2.11.78-2.13,2.06l-.02,10.29c-.02,1.63.82,2.65,1.88,3.73l4.41,4.48c.88.9,2,.67,2.95-.3l4.29-4.39c1.08-1.12,1.68-2.25,1.68-3.86l-.02-9.94ZM65.53,68.09l-4.84-4.74c-.78-.78-1.9-.75-2.66.02l-5.28,5.36c-.63.65-1.03,1.5-1.03,2.46l.02,10.65c0,.98.78,1.98,1.78,1.98l11.45-.02c1.35,0,1.93-1.22,1.93-2.31v-9.97c0-1.32-.45-2.53-1.37-3.43ZM53.87,56.39l-4.96-4.93c-.98-.98-2.25-1.35-3.63-1.35l-9.82-.02c-1.22,0-2.05,1-1.98,2.23.22,3.71.22,7.26.1,10.99-.03,1.12.72,2.2,1.9,2.2l10.44.07c1.23,0,2.3-.35,3.25-1.31l4.66-4.74c.95-.95,1.03-2.16.05-3.13ZM53.87,56.39l-4.96-4.93c-.98-.98-2.25-1.35-3.63-1.35l-9.82-.02c-1.22,0-2.05,1-1.98,2.23.22,3.71.22,7.26.1,10.99-.03,1.12.72,2.2,1.9,2.2l10.44.07c1.23,0,2.3-.35,3.25-1.31l4.66-4.74c.95-.95,1.03-2.16.05-3.13ZM65.53,68.09l-4.84-4.74c-.78-.78-1.9-.75-2.66.02l-5.28,5.36c-.63.65-1.03,1.5-1.03,2.46l.02,10.65c0,.98.78,1.98,1.78,1.98l11.45-.02c1.35,0,1.93-1.22,1.93-2.31v-9.97c0-1.32-.45-2.53-1.37-3.43ZM66.89,34.15c-.02-1.25-.85-2.06-2.05-2.06h-11c-1.23,0-2.11.78-2.13,2.06l-.02,10.29c-.02,1.63.82,2.65,1.88,3.73l4.41,4.48c.88.9,2,.67,2.95-.3l4.29-4.39c1.08-1.12,1.68-2.25,1.68-3.86l-.02-9.94ZM83.2,50.12l-10.84.03c-1.05.02-1.96.53-2.66,1.23l-4.83,4.76c-.55.55-.9,1.15-.88,1.85.02.65.48,1.15,1.03,1.7l4.06,4.14c1.1,1.12,2.38,1.78,4.16,1.76l10.1-.1c1.03-.02,1.91-.9,1.91-1.91l.02-11.19c0-1.23-.77-2.28-2.08-2.28ZM106.06,94.96c-9.01,0-16.31,7.29-16.31,16.3s7.31,16.31,16.31,16.31,16.3-7.31,16.3-16.31-7.29-16.3-16.3-16.3ZM195.76,94.91c-9.02,0-16.35,7.31-16.35,16.35s7.32,16.35,16.35,16.35,16.35-7.32,16.35-16.35-7.31-16.35-16.35-16.35ZM224.39,48.02c-5.41,0-9.8,4.38-9.8,9.79s4.39,9.8,9.8,9.8,9.79-4.39,9.79-9.8-4.38-9.79-9.79-9.79ZM242.27,29.48c-5.38,0-9.74,4.36-9.74,9.75s4.36,9.74,9.74,9.74,9.75-4.36,9.75-9.74-4.38-9.75-9.75-9.75ZM242.66,66.4c-5.43,0-9.82,4.39-9.82,9.8s4.39,9.82,9.82,9.82,9.8-4.39,9.8-9.82-4.39-9.8-9.8-9.8ZM260.58,47.87c-5.43,0-9.8,4.39-9.8,9.82s4.38,9.8,9.8,9.8,9.8-4.39,9.8-9.8-4.39-9.82-9.8-9.82ZM260.58,47.87c-5.43,0-9.8,4.39-9.8,9.82s4.38,9.8,9.8,9.8,9.8-4.39,9.8-9.8-4.39-9.82-9.8-9.82ZM242.66,66.4c-5.43,0-9.82,4.39-9.82,9.8s4.39,9.82,9.82,9.82,9.8-4.39,9.8-9.82-4.39-9.8-9.8-9.8ZM242.27,48.97c5.38,0,9.75-4.36,9.75-9.74s-4.38-9.75-9.75-9.75-9.74,4.36-9.74,9.75,4.36,9.74,9.74,9.74ZM224.39,48.02c-5.41,0-9.8,4.38-9.8,9.79s4.39,9.8,9.8,9.8,9.79-4.39,9.79-9.8-4.38-9.79-9.79-9.79ZM195.76,94.91c-9.02,0-16.35,7.31-16.35,16.35s7.32,16.35,16.35,16.35,16.35-7.32,16.35-16.35-7.31-16.35-16.35-16.35ZM106.06,94.96c-9.01,0-16.31,7.29-16.31,16.3s7.31,16.31,16.31,16.31,16.3-7.31,16.3-16.31-7.29-16.3-16.3-16.3ZM83.2,50.12l-10.84.03c-1.05.02-1.96.53-2.66,1.23l-4.83,4.76c-.55.55-.9,1.15-.88,1.85.02.65.48,1.15,1.03,1.7l4.06,4.14c1.1,1.12,2.38,1.78,4.16,1.76l10.1-.1c1.03-.02,1.91-.9,1.91-1.91l.02-11.19c0-1.23-.77-2.28-2.08-2.28ZM57.98,52.65c.88.9,2,.67,2.95-.3l4.29-4.39c1.08-1.12,1.68-2.25,1.68-3.86l-.02-9.94c-.02-1.25-.85-2.06-2.05-2.06h-11c-1.23,0-2.11.78-2.13,2.06l-.02,10.29c-.02,1.63.82,2.65,1.88,3.73l4.41,4.48ZM60.68,63.35c-.78-.78-1.9-.75-2.66.02l-5.28,5.36c-.63.65-1.03,1.5-1.03,2.46l.02,10.65c0,.98.78,1.98,1.78,1.98l11.45-.02c1.35,0,1.93-1.22,1.93-2.31v-9.97c0-1.32-.45-2.53-1.37-3.43l-4.84-4.74ZM53.87,56.39l-4.96-4.93c-.98-.98-2.25-1.35-3.63-1.35l-9.82-.02c-1.22,0-2.05,1-1.98,2.23.22,3.71.22,7.26.1,10.99-.03,1.12.72,2.2,1.9,2.2l10.44.07c1.23,0,2.3-.35,3.25-1.31l4.66-4.74c.95-.95,1.03-2.16.05-3.13ZM302.15,127.42c-3.89-28.05-10.72-55.43-19.93-82.11-1.88-5.41-3.85-10.32-6.34-15.36-2.33-4.69-6.18-8.11-11.27-9.72l-.43-8.02c-.12-2.25-1.53-3.96-3.65-4.68-10.04-3.36-26.12-6.31-36.89-7.41-4.86-.5-9.09,2.86-9.7,7.54l-.47,3.51c-28.75-2.65-57.3-3.35-86.19-2.48-13.28.38-26.17,1.17-39.33,2.43.15-3.55-.7-6.48-3-8.56-2.16-1.95-5.01-2.93-8.17-2.43-12.1,1.56-23.89,3.85-35.52,7.31-2.36.7-3.76,2.38-3.93,4.76l-.6,8.12c-8.14,2.6-11.29,9.69-14.08,17.35-5.51,15.13-9.8,30.46-13.35,46.26C3.97,107.68.39,129.75.02,154.2c-.22,15.56.97,34.22,8.27,47.99,3.9,7.36,10.37,12.98,17.93,16.31,7.17,3.16,15.36,4.04,20.51-2.16,6.34-7.61,12.57-24.45,16.08-34.66l8.19-23.74c1.17-3.41,3.16-6.21,5.36-9.02,5.38-6.91,14.02-10.07,22.62-8.29,3.1.63,5.84.9,9.14.9l89.04-.05,8.94-1.18c6.84-.52,13.32,1.68,18.08,6.56,2.85,2.91,5.69,6.28,7.16,10.22l13,34.71,4.1,9.65c2.15,5.08,4.74,9.79,8.11,14.15,3.18,4.09,7.86,5.86,13.13,5.21,13.38-1.65,24.62-10.87,29.28-23.5,3.06-8.29,4.66-16.56,5.13-25.45.8-14.81.13-29.58-1.93-44.43ZM89.7,16.33c.13-.2.45-.33.9-.38,13.4-1.35,26.55-2.03,40.12-2.45,26.85-.8,53.45,0,80.15,2.11.4.03,1.53.38,1.43.82l-8.62,38.14-2.6,10.52c-1.55,6.26-7.52,10.14-14.4,10.14l-71.33-.03c-7.42,0-13.43-4.03-15.06-11l-7.36-31.71-3.38-15.15c-.08-.35.02-.78.15-1ZM52.26,195.47c-2.2,5.49-4.61,10.57-7.82,15.48-1.17,1.27-1.86,2.75-4.05,3.35.57-2.66,1.7-4.89,2.78-7.34l9.8-22.07,5.64-12.18c.88-1.93,1.86-3.7,3.63-5.14-3.08,9.57-6.29,18.68-9.99,27.92ZM71.53,100.52c-2.23,2.33-4.01,4.68-5.53,7.56-3.78,7.16-6.74,14.45-9.39,22.17l-14.83,43.45-12.58,38.24c-.27.82-.58,1.32-1.13,1.71-8.51-4.03-14.65-11.12-17.79-20.01-2.55-7.26-3.96-14.52-4.49-22.32-2.23-32.48,3.68-66.63,11.62-98.13,2.68-10.64,5.73-20.84,9.35-31.13,1.47-4.19,3.06-8.06,5.31-11.87.88-1.48,2.33-2.55,3.85-3.33,12.02-6.26,32.44-9.02,46.39-10.34.85-.08,1.66.67,1.85,1.48l10.04,45.66c1.66,7.59-1.65,14.95-6.91,20.42l-15.75,16.43ZM106.09,132.35c-11.65,0-21.07-9.44-21.07-21.07s9.42-21.07,21.07-21.07,21.07,9.44,21.07,21.07-9.44,21.07-21.07,21.07ZM195.78,132.38c-11.67,0-21.14-9.47-21.14-21.14s9.47-21.12,21.14-21.12,21.12,9.45,21.12,21.12-9.45,21.14-21.12,21.14ZM258.5,209.54c-2.98-4.46-5.09-9.11-7.22-14.07-3.95-9.19-7.21-18.36-10.5-27.92,1.51,1.12,2.55,2.5,3.38,4.28l17.79,38.34c.4,1.41,1.2,2.23,1.33,4.18-2.05-.9-3.46-2.85-4.78-4.81ZM291.16,200.83c-3.35,5.66-8.51,9.87-14.38,12.73-.82.4-1.58-.18-1.86-.98l-23.64-67.47c-3.43-9.77-7.09-19.13-11.29-28.51-2.36-5.33-4.88-10.27-8.62-14.73l-11.09-11.54-8.11-8.72c-2.51-2.71-4.29-6.03-4.94-9.75-.72-4.26-.03-8.19.92-12.38l9.27-41.45c.33-1.48,1.38-1.91,2.81-1.75,9.97,1.18,19.64,2.58,29.38,4.89,7.01,1.65,18.53,4.63,21.21,10.72l4.64,10.54c5.79,15.73,10.42,31.66,14.3,48.06,5.21,22.02,9.34,45.18,9.29,67.83.38,13.92-.8,30.51-7.89,42.51ZM260.58,47.87c-5.43,0-9.8,4.39-9.8,9.82s4.38,9.8,9.8,9.8,9.8-4.39,9.8-9.8-4.39-9.82-9.8-9.82ZM242.66,66.4c-5.43,0-9.82,4.39-9.82,9.8s4.39,9.82,9.82,9.82,9.8-4.39,9.8-9.82-4.39-9.8-9.8-9.8ZM242.27,48.97c5.38,0,9.75-4.36,9.75-9.74s-4.38-9.75-9.75-9.75-9.74,4.36-9.74,9.75,4.36,9.74,9.74,9.74ZM224.39,48.02c-5.41,0-9.8,4.38-9.8,9.79s4.39,9.8,9.8,9.8,9.79-4.39,9.79-9.8-4.38-9.79-9.79-9.79ZM195.76,94.91c-9.02,0-16.35,7.31-16.35,16.35s7.32,16.35,16.35,16.35,16.35-7.32,16.35-16.35-7.31-16.35-16.35-16.35ZM106.06,94.96c-9.01,0-16.31,7.29-16.31,16.3s7.31,16.31,16.31,16.31,16.3-7.31,16.3-16.31-7.29-16.3-16.3-16.3ZM83.2,50.12l-10.84.03c-1.05.02-1.96.53-2.66,1.23l-4.83,4.76c-.55.55-.9,1.15-.88,1.85.02.65.48,1.15,1.03,1.7l4.06,4.14c1.1,1.12,2.38,1.78,4.16,1.76l10.1-.1c1.03-.02,1.91-.9,1.91-1.91l.02-11.19c0-1.23-.77-2.28-2.08-2.28ZM57.98,52.65c.88.9,2,.67,2.95-.3l4.29-4.39c1.08-1.12,1.68-2.25,1.68-3.86l-.02-9.94c-.02-1.25-.85-2.06-2.05-2.06h-11c-1.23,0-2.11.78-2.13,2.06l-.02,10.29c-.02,1.63.82,2.65,1.88,3.73l4.41,4.48ZM60.68,63.35c-.78-.78-1.9-.75-2.66.02l-5.28,5.36c-.63.65-1.03,1.5-1.03,2.46l.02,10.65c0,.98.78,1.98,1.78,1.98l11.45-.02c1.35,0,1.93-1.22,1.93-2.31v-9.97c0-1.32-.45-2.53-1.37-3.43l-4.84-4.74ZM53.87,56.39l-4.96-4.93c-.98-.98-2.25-1.35-3.63-1.35l-9.82-.02c-1.22,0-2.05,1-1.98,2.23.22,3.71.22,7.26.1,10.99-.03,1.12.72,2.2,1.9,2.2l10.44.07c1.23,0,2.3-.35,3.25-1.31l4.66-4.74c.95-.95,1.03-2.16.05-3.13ZM53.87,56.39l-4.96-4.93c-.98-.98-2.25-1.35-3.63-1.35l-9.82-.02c-1.22,0-2.05,1-1.98,2.23.22,3.71.22,7.26.1,10.99-.03,1.12.72,2.2,1.9,2.2l10.44.07c1.23,0,2.3-.35,3.25-1.31l4.66-4.74c.95-.95,1.03-2.16.05-3.13ZM65.53,68.09l-4.84-4.74c-.78-.78-1.9-.75-2.66.02l-5.28,5.36c-.63.65-1.03,1.5-1.03,2.46l.02,10.65c0,.98.78,1.98,1.78,1.98l11.45-.02c1.35,0,1.93-1.22,1.93-2.31v-9.97c0-1.32-.45-2.53-1.37-3.43ZM66.89,34.15c-.02-1.25-.85-2.06-2.05-2.06h-11c-1.23,0-2.11.78-2.13,2.06l-.02,10.29c-.02,1.63.82,2.65,1.88,3.73l4.41,4.48c.88.9,2,.67,2.95-.3l4.29-4.39c1.08-1.12,1.68-2.25,1.68-3.86l-.02-9.94ZM83.2,50.12l-10.84.03c-1.05.02-1.96.53-2.66,1.23l-4.83,4.76c-.55.55-.9,1.15-.88,1.85.02.65.48,1.15,1.03,1.7l4.06,4.14c1.1,1.12,2.38,1.78,4.16,1.76l10.1-.1c1.03-.02,1.91-.9,1.91-1.91l.02-11.19c0-1.23-.77-2.28-2.08-2.28ZM106.06,94.96c-9.01,0-16.31,7.29-16.31,16.3s7.31,16.31,16.31,16.31,16.3-7.31,16.3-16.31-7.29-16.3-16.3-16.3ZM195.76,94.91c-9.02,0-16.35,7.31-16.35,16.35s7.32,16.35,16.35,16.35,16.35-7.32,16.35-16.35-7.31-16.35-16.35-16.35ZM224.39,48.02c-5.41,0-9.8,4.38-9.8,9.79s4.39,9.8,9.8,9.8,9.79-4.39,9.79-9.8-4.38-9.79-9.79-9.79ZM242.27,29.48c-5.38,0-9.74,4.36-9.74,9.75s4.36,9.74,9.74,9.74,9.75-4.36,9.75-9.74-4.38-9.75-9.75-9.75ZM242.66,66.4c-5.43,0-9.82,4.39-9.82,9.8s4.39,9.82,9.82,9.82,9.8-4.39,9.8-9.82-4.39-9.8-9.8-9.8ZM260.58,47.87c-5.43,0-9.8,4.39-9.8,9.82s4.38,9.8,9.8,9.8,9.8-4.39,9.8-9.8-4.39-9.82-9.8-9.82ZM260.58,47.87c-5.43,0-9.8,4.39-9.8,9.82s4.38,9.8,9.8,9.8,9.8-4.39,9.8-9.8-4.39-9.82-9.8-9.82ZM242.66,66.4c-5.43,0-9.82,4.39-9.82,9.8s4.39,9.82,9.82,9.82,9.8-4.39,9.8-9.82-4.39-9.8-9.8-9.8ZM242.27,29.48c-5.38,0-9.74,4.36-9.74,9.75s4.36,9.74,9.74,9.74,9.75-4.36,9.75-9.74-4.38-9.75-9.75-9.75ZM224.39,48.02c-5.41,0-9.8,4.38-9.8,9.79s4.39,9.8,9.8,9.8,9.79-4.39,9.79-9.8-4.38-9.79-9.79-9.79ZM195.76,94.91c-9.02,0-16.35,7.31-16.35,16.35s7.32,16.35,16.35,16.35,16.35-7.32,16.35-16.35-7.31-16.35-16.35-16.35ZM106.06,94.96c-9.01,0-16.31,7.29-16.31,16.3s7.31,16.31,16.31,16.31,16.3-7.31,16.3-16.31-7.29-16.3-16.3-16.3ZM83.2,50.12l-10.84.03c-1.05.02-1.96.53-2.66,1.23l-4.83,4.76c-.55.55-.9,1.15-.88,1.85.02.65.48,1.15,1.03,1.7l4.06,4.14c1.1,1.12,2.38,1.78,4.16,1.76l10.1-.1c1.03-.02,1.91-.9,1.91-1.91l.02-11.19c0-1.23-.77-2.28-2.08-2.28ZM66.89,34.15c-.02-1.25-.85-2.06-2.05-2.06h-11c-1.23,0-2.11.78-2.13,2.06l-.02,10.29c-.02,1.63.82,2.65,1.88,3.73l4.41,4.48c.88.9,2,.67,2.95-.3l4.29-4.39c1.08-1.12,1.68-2.25,1.68-3.86l-.02-9.94ZM65.53,68.09l-4.84-4.74c-.78-.78-1.9-.75-2.66.02l-5.28,5.36c-.63.65-1.03,1.5-1.03,2.46l.02,10.65c0,.98.78,1.98,1.78,1.98l11.45-.02c1.35,0,1.93-1.22,1.93-2.31v-9.97c0-1.32-.45-2.53-1.37-3.43ZM53.87,56.39l-4.96-4.93c-.98-.98-2.25-1.35-3.63-1.35l-9.82-.02c-1.22,0-2.05,1-1.98,2.23.22,3.71.22,7.26.1,10.99-.03,1.12.72,2.2,1.9,2.2l10.44.07c1.23,0,2.3-.35,3.25-1.31l4.66-4.74c.95-.95,1.03-2.16.05-3.13ZM53.87,56.39l-4.96-4.93c-.98-.98-2.25-1.35-3.63-1.35l-9.82-.02c-1.22,0-2.05,1-1.98,2.23.22,3.71.22,7.26.1,10.99-.03,1.12.72,2.2,1.9,2.2l10.44.07c1.23,0,2.3-.35,3.25-1.31l4.66-4.74c.95-.95,1.03-2.16.05-3.13ZM65.53,68.09l-4.84-4.74c-.78-.78-1.9-.75-2.66.02l-5.28,5.36c-.63.65-1.03,1.5-1.03,2.46l.02,10.65c0,.98.78,1.98,1.78,1.98l11.45-.02c1.35,0,1.93-1.22,1.93-2.31v-9.97c0-1.32-.45-2.53-1.37-3.43ZM66.89,34.15c-.02-1.25-.85-2.06-2.05-2.06h-11c-1.23,0-2.11.78-2.13,2.06l-.02,10.29c-.02,1.63.82,2.65,1.88,3.73l4.41,4.48c.88.9,2,.67,2.95-.3l4.29-4.39c1.08-1.12,1.68-2.25,1.68-3.86l-.02-9.94ZM83.2,50.12l-10.84.03c-1.05.02-1.96.53-2.66,1.23l-4.83,4.76c-.55.55-.9,1.15-.88,1.85.02.65.48,1.15,1.03,1.7l4.06,4.14c1.1,1.12,2.38,1.78,4.16,1.76l10.1-.1c1.03-.02,1.91-.9,1.91-1.91l.02-11.19c0-1.23-.77-2.28-2.08-2.28ZM224.39,48.02c-5.41,0-9.8,4.38-9.8,9.79s4.39,9.8,9.8,9.8,9.79-4.39,9.79-9.8-4.38-9.79-9.79-9.79ZM242.27,29.48c-5.38,0-9.74,4.36-9.74,9.75s4.36,9.74,9.74,9.74,9.75-4.36,9.75-9.74-4.38-9.75-9.75-9.75ZM242.66,66.4c-5.43,0-9.82,4.39-9.82,9.8s4.39,9.82,9.82,9.82,9.8-4.39,9.8-9.82-4.39-9.8-9.8-9.8ZM260.58,47.87c-5.43,0-9.8,4.39-9.8,9.82s4.38,9.8,9.8,9.8,9.8-4.39,9.8-9.8-4.39-9.82-9.8-9.82ZM260.58,47.87c-5.43,0-9.8,4.39-9.8,9.82s4.38,9.8,9.8,9.8,9.8-4.39,9.8-9.8-4.39-9.82-9.8-9.82ZM242.66,66.4c-5.43,0-9.82,4.39-9.82,9.8s4.39,9.82,9.82,9.82,9.8-4.39,9.8-9.82-4.39-9.8-9.8-9.8ZM242.27,29.48c-5.38,0-9.74,4.36-9.74,9.75s4.36,9.74,9.74,9.74,9.75-4.36,9.75-9.74-4.38-9.75-9.75-9.75ZM224.39,48.02c-5.41,0-9.8,4.38-9.8,9.79s4.39,9.8,9.8,9.8,9.79-4.39,9.79-9.8-4.38-9.79-9.79-9.79ZM83.2,50.12l-10.84.03c-1.05.02-1.96.53-2.66,1.23l-4.83,4.76c-.55.55-.9,1.15-.88,1.85.02.65.48,1.15,1.03,1.7l4.06,4.14c1.1,1.12,2.38,1.78,4.16,1.76l10.1-.1c1.03-.02,1.91-.9,1.91-1.91l.02-11.19c0-1.23-.77-2.28-2.08-2.28ZM66.89,34.15c-.02-1.25-.85-2.06-2.05-2.06h-11c-1.23,0-2.11.78-2.13,2.06l-.02,10.29c-.02,1.63.82,2.65,1.88,3.73l4.41,4.48c.88.9,2,.67,2.95-.3l4.29-4.39c1.08-1.12,1.68-2.25,1.68-3.86l-.02-9.94ZM65.53,68.09l-4.84-4.74c-.78-.78-1.9-.75-2.66.02l-5.28,5.36c-.63.65-1.03,1.5-1.03,2.46l.02,10.65c0,.98.78,1.98,1.78,1.98l11.45-.02c1.35,0,1.93-1.22,1.93-2.31v-9.97c0-1.32-.45-2.53-1.37-3.43ZM53.87,56.39l-4.96-4.93c-.98-.98-2.25-1.35-3.63-1.35l-9.82-.02c-1.22,0-2.05,1-1.98,2.23.22,3.71.22,7.26.1,10.99-.03,1.12.72,2.2,1.9,2.2l10.44.07c1.23,0,2.3-.35,3.25-1.31l4.66-4.74c.95-.95,1.03-2.16.05-3.13Z"/>
      <g>
        <path class="cls-1" d="M212.11,111.26c0,9.02-7.31,16.35-16.35,16.35s-16.35-7.32-16.35-16.35,7.32-16.35,16.35-16.35,16.35,7.31,16.35,16.35Z"/>
        <path class="cls-1" d="M212.11,111.26c0,9.02-7.31,16.35-16.35,16.35s-16.35-7.32-16.35-16.35,7.32-16.35,16.35-16.35,16.35,7.31,16.35,16.35Z"/>
      </g>
      <g>
        <path class="cls-1" d="M122.35,111.26c0,9.01-7.29,16.31-16.3,16.31s-16.31-7.31-16.31-16.31,7.31-16.3,16.31-16.3,16.3,7.29,16.3,16.3Z"/>
        <path class="cls-1" d="M122.35,111.26c0,9.01-7.29,16.31-16.3,16.31s-16.31-7.31-16.31-16.31,7.31-16.3,16.31-16.3,16.3,7.29,16.3,16.3Z"/>
      </g>
      <g>
        <path class="cls-1" d="M234.18,57.81c0,5.41-4.38,9.8-9.79,9.8s-9.8-4.39-9.8-9.8,4.39-9.79,9.8-9.79,9.79,4.38,9.79,9.79Z"/>
        <path class="cls-1" d="M232.53,39.23c0-5.39,4.36-9.75,9.74-9.75s9.75,4.36,9.75,9.75-4.38,9.74-9.75,9.74-9.74-4.36-9.74-9.74Z"/>
        <path class="cls-1" d="M252.46,76.2c0,5.43-4.39,9.82-9.8,9.82s-9.82-4.39-9.82-9.82,4.39-9.8,9.82-9.8,9.8,4.39,9.8,9.8Z"/>
        <path class="cls-1" d="M270.39,57.69c0,5.41-4.39,9.8-9.8,9.8s-9.8-4.39-9.8-9.8,4.38-9.82,9.8-9.82,9.8,4.39,9.8,9.82Z"/>
        <path class="cls-1" d="M252.46,76.2c0,5.43-4.39,9.82-9.8,9.82s-9.82-4.39-9.82-9.82,4.39-9.8,9.82-9.8,9.8,4.39,9.8,9.8Z"/>
        <path class="cls-1" d="M270.39,57.69c0,5.41-4.39,9.8-9.8,9.8s-9.8-4.39-9.8-9.8,4.38-9.82,9.8-9.82,9.8,4.39,9.8,9.82Z"/>
        <path class="cls-1" d="M234.18,57.81c0,5.41-4.38,9.8-9.79,9.8s-9.8-4.39-9.8-9.8,4.39-9.79,9.8-9.79,9.79,4.38,9.79,9.79Z"/>
        <path class="cls-1" d="M252.03,39.23c0,5.38-4.38,9.74-9.75,9.74s-9.74-4.36-9.74-9.74,4.36-9.75,9.74-9.75,9.75,4.36,9.75,9.75Z"/>
      </g>
      <g>
        <path class="cls-1" d="M53.82,59.52l-4.66,4.74c-.95.97-2.01,1.31-3.25,1.31l-10.44-.07c-1.18,0-1.93-1.08-1.9-2.2.12-3.73.12-7.27-.1-10.99-.07-1.23.77-2.23,1.98-2.23l9.82.02c1.38,0,2.65.37,3.63,1.35l4.96,4.93c.98.97.9,2.18-.05,3.13Z"/>
        <path class="cls-1" d="M65.53,68.09c.92.9,1.37,2.11,1.37,3.43v9.97c0,1.1-.58,2.31-1.93,2.31l-11.45.02c-1,0-1.78-1-1.78-1.98l-.02-10.65c0-.97.4-1.81,1.03-2.46l5.28-5.36c.77-.77,1.88-.8,2.66-.02l4.84,4.74Z"/>
        <path class="cls-1" d="M53.57,48.17c-1.07-1.08-1.9-2.1-1.88-3.73l.02-10.29c.02-1.28.9-2.06,2.13-2.06h11c1.2,0,2.03.82,2.05,2.06l.02,9.94c0,1.61-.6,2.75-1.68,3.86l-4.29,4.39c-.95.97-2.06,1.2-2.95.3l-4.41-4.48Z"/>
        <path class="cls-1" d="M85.28,52.4l-.02,11.19c0,1.02-.88,1.9-1.91,1.91l-10.1.1c-1.78.02-3.06-.65-4.16-1.76l-4.06-4.14c-.55-.55-1.02-1.05-1.03-1.7-.02-.7.33-1.3.88-1.85l4.83-4.76c.7-.7,1.61-1.22,2.66-1.23l10.84-.03c1.32,0,2.08,1.05,2.08,2.28Z"/>
        <path class="cls-1" d="M85.28,52.4l-.02,11.19c0,1.02-.88,1.9-1.91,1.91l-10.1.1c-1.78.02-3.06-.65-4.16-1.76l-4.06-4.14c-.55-.55-1.02-1.05-1.03-1.7-.02-.7.33-1.3.88-1.85l4.83-4.76c.7-.7,1.61-1.22,2.66-1.23l10.84-.03c1.32,0,2.08,1.05,2.08,2.28Z"/>
        <path class="cls-1" d="M53.82,59.52l-4.66,4.74c-.95.97-2.01,1.31-3.25,1.31l-10.44-.07c-1.18,0-1.93-1.08-1.9-2.2.12-3.73.12-7.27-.1-10.99-.07-1.23.77-2.23,1.98-2.23l9.82.02c1.38,0,2.65.37,3.63,1.35l4.96,4.93c.98.97.9,2.18-.05,3.13Z"/>
        <path class="cls-1" d="M66.89,71.52v9.97c0,1.1-.58,2.31-1.93,2.31l-11.45.02c-1,0-1.78-1-1.78-1.98l-.02-10.65c0-.97.4-1.81,1.03-2.46l5.28-5.36c.77-.77,1.88-.8,2.66-.02l4.84,4.74c.92.9,1.37,2.11,1.37,3.43Z"/>
        <path class="cls-1" d="M66.91,44.09c0,1.61-.6,2.75-1.68,3.86l-4.29,4.39c-.95.97-2.06,1.2-2.95.3l-4.41-4.48c-1.07-1.08-1.9-2.1-1.88-3.73l.02-10.29c.02-1.28.9-2.06,2.13-2.06h11c1.2,0,2.03.82,2.05,2.06l.02,9.94Z"/>
      </g>
    </g>
  </g>
</svg>