<?xml version="1.0" encoding="UTF-8"?>
<svg id="Layer_2" data-name="Layer 2" xmlns="http://www.w3.org/2000/svg" viewBox="0 0 268.28 286.42">
  <defs>
    <style>
      .cls-1 {
        fill: #c8102e;
      }
    </style>
  </defs>
  <g id="Layer_2-2" data-name="Layer 2">
    <g>
      <path class="cls-1" d="M248.69,150.8c-9.17-5.05-19.54-6.16-29.82-4.28-8.38,1.54-15.95,4.68-23.39,8.69l-8.49,5.13c5.06-15.78,6.77-33.14.96-48.42-1.66-4.37-3.98-8.18-7.05-11.66-6.55-7.16-16.2-11.03-25.68-8.04-7.12-12.83-22.83-19.26-36.38-12.62-7.09-9.89-17.21-16.29-29.59-16.06-7.86.13-15.15,2.76-21.89,6.89.13-17.17-2.51-32.92-11.2-47.66-5.6-9.07-13-16.71-23.04-20.56C21.06-2.4,6.33-.21,1.78,12.72c-3.91,11.13-.68,24.24,2.89,35.46,2.6,8.2,5.18,16.04,6.87,24.52,2.99,15.09,3.75,30.25,2.32,45.56l-2.07,22.12c-.96,10.33-.95,20.3-.65,30.73.42,14.39,2.49,28.28,6.34,42.2l-2.71,3.13c-8.56,9.85-7.57,23.35-.56,33.9,4.13,6.22,9.23,11.27,15.34,15.59,10.9,7.71,23.02,13.06,35.9,16.63,8.01,2.22,16.01,3.63,24.32,3.84,13.99.33,26.35-4.73,28.37-19.57l11.57-2.5c14.94-4.51,28.01-13.08,38.48-24.56l5.77-6.8c6.2-7.32,13.32-13.45,21.52-18.45,9.48-5.78,20.13-10.2,31.35-10.21h11.84c4.34-.01,8.52-.03,12.75-.99,9.51-2.16,16.24-10.09,16.8-19.8.76-13.3-8.17-26.47-19.54-32.73ZM181.05,109.2c8.54,16.15,6.61,35.8.4,52.55-1.28,3.47-2.78,6.5-4.67,9.55-.88.13-1.39.61-2.03,1.07-6.9,5.06-18.11,7.75-18.98.63-.39-3.21.58-5.28.26-7.55,3.08-6.33,4.84-12.9,5.95-19.91,2.15-15.83,1.42-34.14-4.68-49.36,10.4-2.39,18.9,3.87,23.74,13.03ZM152.33,97.76c5.28,12.89,6.32,28.31,5.26,42.2-.63,8.27-3.42,20.41-7.85,26.81-.49-.02-.79.17-1.22.46-6.24,4.02-15.6,7.67-21.75,3.34-2.8-1.96-3.74-5.38-3.6-8.7.04-1.18.52-2.24.11-3.36,4.05-8.8,6.41-18.21,7.19-28.11,1.28-16.12-1.23-32.71-9.19-47.05,12.51-5.45,25.87,1.75,31.04,14.41ZM67.34,75.63c12.74-8.27,27.22-11.24,39.7-1.66,4.57,3.5,7.81,7.96,10.54,13.03,3.87,7.19,5.96,14.85,7.14,22.99,2.24,15.49.79,32.42-5.88,46.55-.68.13-.95.58-1.32,1.04-1.94,2.51-4.28,4.38-6.98,6.05-7.26,4.5-16.29,4.45-23.42-.25-5.56-3.67-9.21-9.23-10.2-15.86-.09-.62-.11-1.13-.63-1.46,1.2-3.32,3.17-6.46,5.97-8.71l2.95-1.85c-4.16.47-6.27-4.59-7.44-9.02-2.76-10.51-2.71-21.52,0-32.04.34-1.32.89-2.4.32-3.79-4.07,3.8-5.31,9.11-6.52,14.66-2.26-1.21-5.1-3.65-5.44-6.43.41-7.9,1.23-15.47,1.22-23.26ZM261.62,188.28c-.31-.08-.53-.17-.67-.15-.52.1-2.28,3.41-7.41,2.89-3.05-.31-5.89-.91-8.88-1.75-14.2-4-28.92-3.34-42.61,2.26-14.4,5.89-24.57,14.43-34.34,26.34-4.96,6.06-10.01,11.64-16.09,16.61-12.33,10.06-28.42,17.47-44.49,15.81-5.51-.56-10.67-2.12-15.1-5.4l-4.71-4.46,1.11-1.23c.48-.54.47-1.25.06-1.7-.52-.56-1-.24-1.66.15-5.33,3.08-11.14,5.06-17.41,5.62-9.02.8-17.95-.77-26.02-4.75-5.53-2.72-10.4-6.38-13.8-11.51-3.91-5.88-6.31-12.33-8.08-19.18-5.72-22.05-6.02-48.56-3.95-71.3l1.67-18.41c.86-9.48.98-18.64.23-28.19-.98-12.43-3.86-24.21-7.34-36.12l-5.19-17.77c-1.89-6.47-2.4-15.88,0-22.22,3.65-9.63,15.33-10.08,24.51-6.69,12.42,4.59,20.48,16.6,25.18,28.69,2.39,6.16,3.98,12.14,4.69,18.79,2.49,23.12-.13,47.08-3.18,70.02l-8.13,4.78c5.81-.49,11.38-.54,16.94.98-.27.66.07,1.03.35,1.54,3.27,5.98,1.5,15.76.22,22.83-1,5.45-.98,10.68.7,15.98,1.96,6.22,6.3,11.14,12.51,13.47,7.88,2.95,16.76,1.34,23.48-3.65,2.07,6.35,2.73,12.76,1.97,19.59,2.67-1.87,3.63-6.84,3.97-10.16.08-.22.17-.32.26-.36.17-.06.42,0,.62.16,7.55,5.08,16.94,4.63,24.86.38,8.24,5.96,18.06,7.51,27.14,2.92.36-.1.52-.38.53-.78,3.34,1.05,6.71,1.89,10.4,1.96-2.5-2.46-5.26-4.09-8.13-6.19,6.9-3.57,11.32-8.27,15.42-14.87,2.02,1.77,3.55,3.73,5.11,5.79.88,1.08,1.46,2.33,2.81,3.15-.36-5.14-2.44-9.66-5.29-13.77,13.77-11.07,29.64-18.87,47.57-17.89,10.01.54,18.72,5.31,24.78,13.15,3,3.89,5.3,8.06,6.22,12.95.75,4.01.68,8.01-.82,11.7Z"/>
      <g>
        <path class="cls-1" d="M80.72,184.2c-6.2-2.33-10.54-7.25-12.51-13.47-1.68-5.3-1.69-10.53-.7-15.98,1.29-7.07,3.06-16.84-.22-22.83-.28-.51-.62-.88-.35-1.54,3.45,4.39,3.03,11.02,2.46,16.41l-1.81,11.92c-1.64,21.91,16.82,33.17,35.39,21.92l1.2-.08c-6.72,4.99-15.6,6.6-23.48,3.65Z"/>
        <path class="cls-1" d="M110.13,189.98c0-.6.17-.93.49-.99,7.87,5.16,17.03,4.81,25.28.61,8.4,5.95,18.37,7.36,27.62,2.7,0,.4-.17.68-.53.78-9.07,4.59-18.9,3.04-27.14-2.92-7.92,4.25-17.31,4.71-24.86-.38-.2-.17-.45-.22-.62-.16-.08.03-.18.14-.26.36Z"/>
        <path class="cls-1" d="M261.62,188.28c-.86.91-1.96,1.78-3.31,2.63-2.7,1.02-5.61,1.07-8.72.17-14.73-4.38-29.31-5.35-44.03-.22-17.51,6.1-30.39,17.94-41.58,32.39-14.32,15.97-33.19,29.03-55.48,27.79-8.61-.48-15.95-3.7-21.4-9.96-.11-.13.08-.45.23-.65l4.71,4.46c4.42,3.28,9.59,4.84,15.1,5.4,16.07,1.66,32.16-5.75,44.49-15.81,6.09-4.97,11.13-10.56,16.09-16.61,9.76-11.91,19.94-20.45,34.34-26.34,13.69-5.6,28.42-6.25,42.61-2.26,2.99.84,5.83,1.44,8.88,1.75,5.12.52,6.89-2.79,7.41-2.89.14-.03.36.07.67.15Z"/>
        <path class="cls-1" d="M118.84,156.54c-12.26,18.85-40.77,12.03-42.54-10.48.52.33.54.84.63,1.46,1,6.63,4.64,12.19,10.2,15.86,7.12,4.7,16.16,4.75,23.42.25,2.69-1.67,5.04-3.54,6.98-6.05.36-.47.64-.92,1.32-1.04Z"/>
        <path class="cls-1" d="M149.75,166.78c-9.63,8.95-31.06,9.99-26.46-8.27.4,1.12-.07,2.19-.11,3.36-.14,3.33.8,6.74,3.6,8.7,6.16,4.32,15.51.68,21.75-3.34.43-.29.73-.48,1.22-.46Z"/>
        <path class="cls-1" d="M176.79,171.3c-8.12,7.85-26.41,11.79-20.75-5.86.33,2.28-.65,4.34-.26,7.55.87,7.12,12.08,4.44,18.98-.63.64-.47,1.15-.95,2.03-1.07Z"/>
        <path class="cls-1" d="M104.2,180.56c-6.72,4.99-15.6,6.6-23.48,3.65-6.2-2.33-10.54-7.25-12.51-13.47-1.68-5.3-1.69-10.53-.7-15.98,1.29-7.07,3.06-16.84-.22-22.83-.28-.51-.62-.88-.35-1.54,2.9.79,5.63,1.85,8.2,3.57.71.47,1.26,1.64,1.3,2.52-5.33,6.73-7.69,15.24-6.16,23.65,2.9,16.03,18.42,22.37,33.24,18.39.47.73.45,1.38.68,2.05Z"/>
        <path class="cls-1" d="M149.75,166.78l-2.53,3.67c-4.37,5.63-10.16,9.89-17.11,11.73-7.96,2.11-17,.66-19.09-7.77,4.07-3.26,7.37-7.01,9.89-11.47l2.39-4.42c.4,1.12-.07,2.19-.11,3.36-.14,3.33.8,6.74,3.6,8.7,6.16,4.32,15.51.68,21.75-3.34.43-.29.73-.48,1.22-.46Z"/>
        <path class="cls-1" d="M118.84,156.54c-1.94,4.09-4.37,7.83-7.46,11.15-6.43,6.95-15.92,9.16-24.7,5.67-11.07-4.4-14.25-16.64-10.39-27.3.52.33.54.84.63,1.46,1,6.63,4.64,12.19,10.2,15.86,7.12,4.7,16.16,4.75,23.42.25,2.69-1.67,5.04-3.54,6.98-6.05.36-.47.64-.92,1.32-1.04Z"/>
        <path class="cls-1" d="M163.53,192.3c0,.4-.17.68-.53.78-9.07,4.59-18.9,3.04-27.14-2.92-7.92,4.25-17.31,4.71-24.86-.38-.2-.17-.45-.22-.62-.16-.08.03-.18.14-.26.36l-.1-6.78c7.44,7.12,19.24,5.4,28.23.98,5.66,4.91,13.13,7.06,20.55,6.02l4.72,2.1Z"/>
        <path class="cls-1" d="M176.79,171.3c-2.92,4.76-6.71,8.98-11.61,11.77-7.25,4.11-15.97,3.56-22.31-1.72,5.86-4.18,10.12-9.6,13.17-15.9.33,2.28-.65,4.34-.26,7.55.87,7.12,12.08,4.44,18.98-.63.64-.47,1.15-.95,2.03-1.07Z"/>
        <path class="cls-1" d="M66.35,108.11l-.54.52-1.11,16.39.61.4,5.1,1.17.4-.54c-.46-5.05-.71-10.15-.75-15.28l-.37-.69-3.34-1.97Z"/>
        <path class="cls-1" d="M69.69,110.08c-.2.36-.34.74-.35,1.19-.06,4.51.38,8.79.91,13.32.07.64-.34,1.41.16,2,.96.22,1.82.79,2.84.84-1.34-5.35-1.94-10.48-2.02-15.89,0-.56-.16-1.22-.59-1.3l-.95-.17Z"/>
        <path class="cls-1" d="M65.31,125.42l.67-12.29c.12-1.72.79-3.29.37-5.03l-1.24-1.26-1.23,9.13-1.4,9.01,2.84.43Z"/>
        <g>
          <path class="cls-1" d="M261.62,188.28c-3.06,7.5-10.56,10.7-18.63,10.67l-15.74-.07c-6.44-.03-12.51,1.04-18.61,3.26-16.06,5.84-29.89,16.15-40.41,29.59-15.22,19.46-40.09,34.08-65.23,30.18-5.52-.86-10.52-2.79-15.42-5.26-.29-.15-.67-.13-.81-.01-.88.71,1.59,3.38,3.47,4.78,4.57,3.39,9.89,5.24,15.56,5.81l6.75.21c-.94,4.71-3.96,8.41-8.05,10.62l-1.26-.46c-9-9.11-22.24-11.8-34.44-14.26-17.88-4.38-38.51-11.48-48.67-27.64l-.34-.04c-1.07,2.72-1.71,5.56-1.89,8.51l-.68.22c-4.55-8.5-4.67-17.87,2.46-24.96,4.29,10.65,10.83,18.75,21.52,23.86,14.39,6.88,33.4,7.52,46.11-2.85l4.71,4.46c4.42,3.28,9.59,4.84,15.1,5.4,16.07,1.66,32.16-5.75,44.49-15.81,6.09-4.97,11.13-10.56,16.09-16.61,9.76-11.91,19.94-20.45,34.34-26.34,13.69-5.6,28.42-6.25,42.61-2.26,2.99.84,5.83,1.44,8.88,1.75,5.12.52,6.89-2.79,7.41-2.89.14-.03.36.07.67.15Z"/>
          <path class="cls-1" d="M17.23,244.38c8.58,15.99,28.68,26.12,45.59,31.63,9.03,2.94,18.18,4.69,27.67,4.96,4.88.14,9.84-.66,14.02-2.92-3-3.47-6.72-6.14-11-8.07-5.03-2.27-10.09-4.31-15.6-5.35-11.68-2.22-22.94-5.27-33.77-10.23-8.96-4.11-19.85-11.22-24.15-20.36-1.64,2.53-2.22,5.26-2.41,8.19l-.36,2.15Z"/>
        </g>
      </g>
    </g>
  </g>
</svg>