<?xml version="1.0" encoding="UTF-8"?>
<svg id="Layer_2" data-name="Layer 2" xmlns="http://www.w3.org/2000/svg" viewBox="0 0 208.06 367.15">
  <defs>
    <style>
      .cls-1 {
        fill: #c8102e;
      }
    </style>
  </defs>
  <g id="Layer_2-2" data-name="Layer 2">
    <path class="cls-1" d="M52.19,134.62l-5.38.67c-2.54,2.54-4.98,5.13-7.08,8.01.51,1.79,1.66,2.93,2.67,4.46l-4.13,6.61c-.31.51.17,1.46.39,1.25l8.46-8.02-2.41-3.89,7.48-9.11ZM55.21,134.93l-4.53,5.09c-.51.57-1.39,1.73-1.15,2.44.46,1.41,2.24,2.04,3.45,1.92-.03-2.01.5-2.65,1.32-3.56l5.5-6.37c-1.37.03-3.45-.32-4.58.48ZM138.32,134.78c-1.72.02-4.28-.02-5.75,1l-6.57,7.53c.6,1.83,1.68,3,2.58,4.52l-4.27,7.27c-.12.2.28.74.47.73.14-.01.5-.23.76-.48l7.77-7.62-2.35-3.92,7.35-9.01ZM141.42,134.69l-5.11,6.09c-.52.62-.85,1.61-.26,2.28.76.85,1.65,1.31,3.02,1.46-.02-2.2,1.02-3.42,2.2-4.78l4.64-5.34c-1.5-.23-2.92.04-4.49.28ZM141.42,134.69l-5.11,6.09c-.52.62-.85,1.61-.26,2.28.76.85,1.65,1.31,3.02,1.46-.02-2.2,1.02-3.42,2.2-4.78l4.64-5.34c-1.5-.23-2.92.04-4.49.28ZM138.32,134.78c-1.72.02-4.28-.02-5.75,1l-6.57,7.53c.6,1.83,1.68,3,2.58,4.52l-4.27,7.27c-.12.2.28.74.47.73.14-.01.5-.23.76-.48l7.77-7.62-2.35-3.92,7.35-9.01ZM55.21,134.93l-4.53,5.09c-.51.57-1.39,1.73-1.15,2.44.46,1.41,2.24,2.04,3.45,1.92-.03-2.01.5-2.65,1.32-3.56l5.5-6.37c-1.37.03-3.45-.32-4.58.48ZM52.19,134.62l-5.38.67c-2.54,2.54-4.98,5.13-7.08,8.01.51,1.79,1.66,2.93,2.67,4.46l-4.13,6.61c-.31.51.17,1.46.39,1.25l8.46-8.02-2.41-3.89,7.48-9.11ZM52.19,134.62l-5.38.67c-2.54,2.54-4.98,5.13-7.08,8.01.51,1.79,1.66,2.93,2.67,4.46l-4.13,6.61c-.31.51.17,1.46.39,1.25l8.46-8.02-2.41-3.89,7.48-9.11ZM55.21,134.93l-4.53,5.09c-.51.57-1.39,1.73-1.15,2.44.46,1.41,2.24,2.04,3.45,1.92-.03-2.01.5-2.65,1.32-3.56l5.5-6.37c-1.37.03-3.45-.32-4.58.48ZM138.32,134.78c-1.72.02-4.28-.02-5.75,1l-6.57,7.53c.6,1.83,1.68,3,2.58,4.52l-4.27,7.27c-.12.2.28.74.47.73.14-.01.5-.23.76-.48l7.77-7.62-2.35-3.92,7.35-9.01ZM141.42,134.69l-5.11,6.09c-.52.62-.85,1.61-.26,2.28.76.85,1.65,1.31,3.02,1.46-.02-2.2,1.02-3.42,2.2-4.78l4.64-5.34c-1.5-.23-2.92.04-4.49.28ZM55.21,134.93l-4.53,5.09c-.51.57-1.39,1.73-1.15,2.44.46,1.41,2.24,2.04,3.45,1.92-.03-2.01.5-2.65,1.32-3.56l5.5-6.37c-1.37.03-3.45-.32-4.58.48ZM52.19,134.62l-5.38.67c-2.54,2.54-4.98,5.13-7.08,8.01.51,1.79,1.66,2.93,2.67,4.46l-4.13,6.61c-.31.51.17,1.46.39,1.25l8.46-8.02-2.41-3.89,7.48-9.11ZM141.42,134.69l-5.11,6.09c-.52.62-.85,1.61-.26,2.28.76.85,1.65,1.31,3.02,1.46-.02-2.2,1.02-3.42,2.2-4.78l4.64-5.34c-1.5-.23-2.92.04-4.49.28ZM138.32,134.78c-1.72.02-4.28-.02-5.75,1l-6.57,7.53c.6,1.83,1.68,3,2.58,4.52l-4.27,7.27c-.12.2.28.74.47.73.14-.01.5-.23.76-.48l7.77-7.62-2.35-3.92,7.35-9.01ZM52.19,134.62l-5.38.67c-2.54,2.54-4.98,5.13-7.08,8.01.51,1.79,1.66,2.93,2.67,4.46l-4.13,6.61c-.31.51.17,1.46.39,1.25l8.46-8.02-2.41-3.89,7.48-9.11ZM55.21,134.93l-4.53,5.09c-.51.57-1.39,1.73-1.15,2.44.46,1.41,2.24,2.04,3.45,1.92-.03-2.01.5-2.65,1.32-3.56l5.5-6.37c-1.37.03-3.45-.32-4.58.48ZM138.32,134.78c-1.72.02-4.28-.02-5.75,1l-6.57,7.53c.6,1.83,1.68,3,2.58,4.52l-4.27,7.27c-.12.2.28.74.47.73.14-.01.5-.23.76-.48l7.77-7.62-2.35-3.92,7.35-9.01ZM141.42,134.69l-5.11,6.09c-.52.62-.85,1.61-.26,2.28.76.85,1.65,1.31,3.02,1.46-.02-2.2,1.02-3.42,2.2-4.78l4.64-5.34c-1.5-.23-2.92.04-4.49.28ZM55.21,134.93l-4.53,5.09c-.51.57-1.39,1.73-1.15,2.44.46,1.41,2.24,2.04,3.45,1.92-.03-2.01.5-2.65,1.32-3.56l5.5-6.37c-1.37.03-3.45-.32-4.58.48ZM52.19,134.62l-5.38.67c-2.54,2.54-4.98,5.13-7.08,8.01.51,1.79,1.66,2.93,2.67,4.46l-4.13,6.61c-.31.51.17,1.46.39,1.25l8.46-8.02-2.41-3.89,7.48-9.11ZM141.42,134.69l-5.11,6.09c-.52.62-.85,1.61-.26,2.28.76.85,1.65,1.31,3.02,1.46-.02-2.2,1.02-3.42,2.2-4.78l4.64-5.34c-1.5-.23-2.92.04-4.49.28ZM138.32,134.78c-1.72.02-4.28-.02-5.75,1l-6.57,7.53c.6,1.83,1.68,3,2.58,4.52l-4.27,7.27c-.12.2.28.74.47.73.14-.01.5-.23.76-.48l7.77-7.62-2.35-3.92,7.35-9.01ZM52.19,134.62l-5.38.67c-2.54,2.54-4.98,5.13-7.08,8.01.51,1.79,1.66,2.93,2.67,4.46l-4.13,6.61c-.31.51.17,1.46.39,1.25l8.46-8.02-2.41-3.89,7.48-9.11ZM55.21,134.93l-4.53,5.09c-.51.57-1.39,1.73-1.15,2.44.46,1.41,2.24,2.04,3.45,1.92-.03-2.01.5-2.65,1.32-3.56l5.5-6.37c-1.37.03-3.45-.32-4.58.48ZM138.32,134.78c-1.72.02-4.28-.02-5.75,1l-6.57,7.53c.6,1.83,1.68,3,2.58,4.52l-4.27,7.27c-.12.2.28.74.47.73.14-.01.5-.23.76-.48l7.77-7.62-2.35-3.92,7.35-9.01ZM141.42,134.69l-5.11,6.09c-.52.62-.85,1.61-.26,2.28.76.85,1.65,1.31,3.02,1.46-.02-2.2,1.02-3.42,2.2-4.78l4.64-5.34c-1.5-.23-2.92.04-4.49.28ZM55.21,134.93l-4.53,5.09c-.51.57-1.39,1.73-1.15,2.44.46,1.41,2.24,2.04,3.45,1.92-.03-2.01.5-2.65,1.32-3.56l5.5-6.37c-1.37.03-3.45-.32-4.58.48ZM52.19,134.62l-5.38.67c-2.54,2.54-4.98,5.13-7.08,8.01.51,1.79,1.66,2.93,2.67,4.46l-4.13,6.61c-.31.51.17,1.46.39,1.25l8.46-8.02-2.41-3.89,7.48-9.11ZM141.42,134.69l-5.11,6.09c-.52.62-.85,1.61-.26,2.28.76.85,1.65,1.31,3.02,1.46-.02-2.2,1.02-3.42,2.2-4.78l4.64-5.34c-1.5-.23-2.92.04-4.49.28ZM138.32,134.78c-1.72.02-4.28-.02-5.75,1l-6.57,7.53c.6,1.83,1.68,3,2.58,4.52l-4.27,7.27c-.12.2.28.74.47.73.14-.01.5-.23.76-.48l7.77-7.62-2.35-3.92,7.35-9.01ZM52.19,134.62l-5.38.67c-2.54,2.54-4.98,5.13-7.08,8.01.51,1.79,1.66,2.93,2.67,4.46l-4.13,6.61c-.31.51.17,1.46.39,1.25l8.46-8.02-2.41-3.89,7.48-9.11ZM55.21,134.93l-4.53,5.09c-.51.57-1.39,1.73-1.15,2.44.46,1.41,2.24,2.04,3.45,1.92-.03-2.01.5-2.65,1.32-3.56l5.5-6.37c-1.37.03-3.45-.32-4.58.48ZM138.32,134.78c-1.72.02-4.28-.02-5.75,1l-6.57,7.53c.6,1.83,1.68,3,2.58,4.52l-4.27,7.27c-.12.2.28.74.47.73.14-.01.5-.23.76-.48l7.77-7.62-2.35-3.92,7.35-9.01ZM141.42,134.69l-5.11,6.09c-.52.62-.85,1.61-.26,2.28.76.85,1.65,1.31,3.02,1.46-.02-2.2,1.02-3.42,2.2-4.78l4.64-5.34c-1.5-.23-2.92.04-4.49.28ZM55.21,134.93l-4.53,5.09c-.51.57-1.39,1.73-1.15,2.44.46,1.41,2.24,2.04,3.45,1.92-.03-2.01.5-2.65,1.32-3.56l5.5-6.37c-1.37.03-3.45-.32-4.58.48ZM52.19,134.62l-5.38.67c-2.54,2.54-4.98,5.13-7.08,8.01.51,1.79,1.66,2.93,2.67,4.46l-4.13,6.61c-.31.51.17,1.46.39,1.25l8.46-8.02-2.41-3.89,7.48-9.11ZM141.42,134.69l-5.11,6.09c-.52.62-.85,1.61-.26,2.28.76.85,1.65,1.31,3.02,1.46-.02-2.2,1.02-3.42,2.2-4.78l4.64-5.34c-1.5-.23-2.92.04-4.49.28ZM138.32,134.78c-1.72.02-4.28-.02-5.75,1l-6.57,7.53c.6,1.83,1.68,3,2.58,4.52l-4.27,7.27c-.12.2.28.74.47.73.14-.01.5-.23.76-.48l7.77-7.62-2.35-3.92,7.35-9.01ZM52.19,134.62l-5.38.67c-2.54,2.54-4.98,5.13-7.08,8.01.51,1.79,1.66,2.93,2.67,4.46l-4.13,6.61c-.31.51.17,1.46.39,1.25l8.46-8.02-2.41-3.89,7.48-9.11ZM55.21,134.93l-4.53,5.09c-.51.57-1.39,1.73-1.15,2.44.46,1.41,2.24,2.04,3.45,1.92-.03-2.01.5-2.65,1.32-3.56l5.5-6.37c-1.37.03-3.45-.32-4.58.48ZM138.32,134.78c-1.72.02-4.28-.02-5.75,1l-6.57,7.53c.6,1.83,1.68,3,2.58,4.52l-4.27,7.27c-.12.2.28.74.47.73.14-.01.5-.23.76-.48l7.77-7.62-2.35-3.92,7.35-9.01ZM141.42,134.69l-5.11,6.09c-.52.62-.85,1.61-.26,2.28.76.85,1.65,1.31,3.02,1.46-.02-2.2,1.02-3.42,2.2-4.78l4.64-5.34c-1.5-.23-2.92.04-4.49.28ZM55.21,134.93l-4.53,5.09c-.51.57-1.39,1.73-1.15,2.44.46,1.41,2.24,2.04,3.45,1.92-.03-2.01.5-2.65,1.32-3.56l5.5-6.37c-1.37.03-3.45-.32-4.58.48ZM52.19,134.62l-5.38.67c-2.54,2.54-4.98,5.13-7.08,8.01.51,1.79,1.66,2.93,2.67,4.46l-4.13,6.61c-.31.51.17,1.46.39,1.25l8.46-8.02-2.41-3.89,7.48-9.11ZM141.42,134.69l-5.11,6.09c-.52.62-.85,1.61-.26,2.28.76.85,1.65,1.31,3.02,1.46-.02-2.2,1.02-3.42,2.2-4.78l4.64-5.34c-1.5-.23-2.92.04-4.49.28ZM138.32,134.78c-1.72.02-4.28-.02-5.75,1l-6.57,7.53c.6,1.83,1.68,3,2.58,4.52l-4.27,7.27c-.12.2.28.74.47.73.14-.01.5-.23.76-.48l7.77-7.62-2.35-3.92,7.35-9.01ZM52.19,134.62l-5.38.67c-2.54,2.54-4.98,5.13-7.08,8.01.51,1.79,1.66,2.93,2.67,4.46l-4.13,6.61c-.31.51.17,1.46.39,1.25l8.46-8.02-2.41-3.89,7.48-9.11ZM55.21,134.93l-4.53,5.09c-.51.57-1.39,1.73-1.15,2.44.46,1.41,2.24,2.04,3.45,1.92-.03-2.01.5-2.65,1.32-3.56l5.5-6.37c-1.37.03-3.45-.32-4.58.48ZM138.32,134.78c-1.72.02-4.28-.02-5.75,1l-6.57,7.53c.6,1.83,1.68,3,2.58,4.52l-4.27,7.27c-.12.2.28.74.47.73.14-.01.5-.23.76-.48l7.77-7.62-2.35-3.92,7.35-9.01ZM141.42,134.69l-5.11,6.09c-.52.62-.85,1.61-.26,2.28.76.85,1.65,1.31,3.02,1.46-.02-2.2,1.02-3.42,2.2-4.78l4.64-5.34c-1.5-.23-2.92.04-4.49.28ZM55.21,134.93l-4.53,5.09c-.51.57-1.39,1.73-1.15,2.44.46,1.41,2.24,2.04,3.45,1.92-.03-2.01.5-2.65,1.32-3.56l5.5-6.37c-1.37.03-3.45-.32-4.58.48ZM52.19,134.62l-5.38.67c-2.54,2.54-4.98,5.13-7.08,8.01.51,1.79,1.66,2.93,2.67,4.46l-4.13,6.61c-.31.51.17,1.46.39,1.25l8.46-8.02-2.41-3.89,7.48-9.11ZM141.42,134.69l-5.11,6.09c-.52.62-.85,1.61-.26,2.28.76.85,1.65,1.31,3.02,1.46-.02-2.2,1.02-3.42,2.2-4.78l4.64-5.34c-1.5-.23-2.92.04-4.49.28ZM138.32,134.78c-1.72.02-4.28-.02-5.75,1l-6.57,7.53c.6,1.83,1.68,3,2.58,4.52l-4.27,7.27c-.12.2.28.74.47.73.14-.01.5-.23.76-.48l7.77-7.62-2.35-3.92,7.35-9.01ZM52.19,134.62l-5.38.67c-2.54,2.54-4.98,5.13-7.08,8.01.51,1.79,1.66,2.93,2.67,4.46l-4.13,6.61c-.31.51.17,1.46.39,1.25l8.46-8.02-2.41-3.89,7.48-9.11ZM55.21,134.93l-4.53,5.09c-.51.57-1.39,1.73-1.15,2.44.46,1.41,2.24,2.04,3.45,1.92-.03-2.01.5-2.65,1.32-3.56l5.5-6.37c-1.37.03-3.45-.32-4.58.48ZM138.32,134.78c-1.72.02-4.28-.02-5.75,1l-6.57,7.53c.6,1.83,1.68,3,2.58,4.52l-4.27,7.27c-.12.2.28.74.47.73.14-.01.5-.23.76-.48l7.77-7.62-2.35-3.92,7.35-9.01ZM141.42,134.69l-5.11,6.09c-.52.62-.85,1.61-.26,2.28.76.85,1.65,1.31,3.02,1.46-.02-2.2,1.02-3.42,2.2-4.78l4.64-5.34c-1.5-.23-2.92.04-4.49.28ZM55.21,134.93l-4.53,5.09c-.51.57-1.39,1.73-1.15,2.44.46,1.41,2.24,2.04,3.45,1.92-.03-2.01.5-2.65,1.32-3.56l5.5-6.37c-1.37.03-3.45-.32-4.58.48ZM52.19,134.62l-5.38.67c-2.54,2.54-4.98,5.13-7.08,8.01.51,1.79,1.66,2.93,2.67,4.46l-4.13,6.61c-.31.51.17,1.46.39,1.25l8.46-8.02-2.41-3.89,7.48-9.11ZM141.42,134.69l-5.11,6.09c-.52.62-.85,1.61-.26,2.28.76.85,1.65,1.31,3.02,1.46-.02-2.2,1.02-3.42,2.2-4.78l4.64-5.34c-1.5-.23-2.92.04-4.49.28ZM138.32,134.78c-1.72.02-4.28-.02-5.75,1l-6.57,7.53c.6,1.83,1.68,3,2.58,4.52l-4.27,7.27c-.12.2.28.74.47.73.14-.01.5-.23.76-.48l7.77-7.62-2.35-3.92,7.35-9.01ZM52.19,134.62l-5.38.67c-2.54,2.54-4.98,5.13-7.08,8.01.51,1.79,1.66,2.93,2.67,4.46l-4.13,6.61c-.31.51.17,1.46.39,1.25l8.46-8.02-2.41-3.89,7.48-9.11ZM55.21,134.93l-4.53,5.09c-.51.57-1.39,1.73-1.15,2.44.46,1.41,2.24,2.04,3.45,1.92-.03-2.01.5-2.65,1.32-3.56l5.5-6.37c-1.37.03-3.45-.32-4.58.48ZM138.32,134.78c-1.72.02-4.28-.02-5.75,1l-6.57,7.53c.6,1.83,1.68,3,2.58,4.52l-4.27,7.27c-.12.2.28.74.47.73.14-.01.5-.23.76-.48l7.77-7.62-2.35-3.92,7.35-9.01ZM141.42,134.69l-5.11,6.09c-.52.62-.85,1.61-.26,2.28.76.85,1.65,1.31,3.02,1.46-.02-2.2,1.02-3.42,2.2-4.78l4.64-5.34c-1.5-.23-2.92.04-4.49.28ZM55.21,134.93l-4.53,5.09c-.51.57-1.39,1.73-1.15,2.44.46,1.41,2.24,2.04,3.45,1.92-.03-2.01.5-2.65,1.32-3.56l5.5-6.37c-1.37.03-3.45-.32-4.58.48ZM52.19,134.62l-5.38.67c-2.54,2.54-4.98,5.13-7.08,8.01.51,1.79,1.66,2.93,2.67,4.46l-4.13,6.61c-.31.51.17,1.46.39,1.25l8.46-8.02-2.41-3.89,7.48-9.11ZM141.42,134.69l-5.11,6.09c-.52.62-.85,1.61-.26,2.28.76.85,1.65,1.31,3.02,1.46-.02-2.2,1.02-3.42,2.2-4.78l4.64-5.34c-1.5-.23-2.92.04-4.49.28ZM138.32,134.78c-1.72.02-4.28-.02-5.75,1l-6.57,7.53c.6,1.83,1.68,3,2.58,4.52l-4.27,7.27c-.12.2.28.74.47.73.14-.01.5-.23.76-.48l7.77-7.62-2.35-3.92,7.35-9.01ZM52.19,134.62l-5.38.67c-2.54,2.54-4.98,5.13-7.08,8.01.51,1.79,1.66,2.93,2.67,4.46l-4.13,6.61c-.31.51.17,1.46.39,1.25l8.46-8.02-2.41-3.89,7.48-9.11ZM55.21,134.93l-4.53,5.09c-.51.57-1.39,1.73-1.15,2.44.46,1.41,2.24,2.04,3.45,1.92-.03-2.01.5-2.65,1.32-3.56l5.5-6.37c-1.37.03-3.45-.32-4.58.48ZM138.32,134.78c-1.72.02-4.28-.02-5.75,1l-6.57,7.53c.6,1.83,1.68,3,2.58,4.52l-4.27,7.27c-.12.2.28.74.47.73.14-.01.5-.23.76-.48l7.77-7.62-2.35-3.92,7.35-9.01ZM141.42,134.69l-5.11,6.09c-.52.62-.85,1.61-.26,2.28.76.85,1.65,1.31,3.02,1.46-.02-2.2,1.02-3.42,2.2-4.78l4.64-5.34c-1.5-.23-2.92.04-4.49.28ZM55.21,134.93l-4.53,5.09c-.51.57-1.39,1.73-1.15,2.44.46,1.41,2.24,2.04,3.45,1.92-.03-2.01.5-2.65,1.32-3.56l5.5-6.37c-1.37.03-3.45-.32-4.58.48ZM52.19,134.62l-5.38.67c-2.54,2.54-4.98,5.13-7.08,8.01.51,1.79,1.66,2.93,2.67,4.46l-4.13,6.61c-.31.51.17,1.46.39,1.25l8.46-8.02-2.41-3.89,7.48-9.11ZM141.42,134.69l-5.11,6.09c-.52.62-.85,1.61-.26,2.28.76.85,1.65,1.31,3.02,1.46-.02-2.2,1.02-3.42,2.2-4.78l4.64-5.34c-1.5-.23-2.92.04-4.49.28ZM138.32,134.78c-1.72.02-4.28-.02-5.75,1l-6.57,7.53c.6,1.83,1.68,3,2.58,4.52l-4.27,7.27c-.12.2.28.74.47.73.14-.01.5-.23.76-.48l7.77-7.62-2.35-3.92,7.35-9.01ZM52.19,134.62l-5.38.67c-2.54,2.54-4.98,5.13-7.08,8.01.51,1.79,1.66,2.93,2.67,4.46l-4.13,6.61c-.31.51.17,1.46.39,1.25l8.46-8.02-2.41-3.89,7.48-9.11ZM55.21,134.93l-4.53,5.09c-.51.57-1.39,1.73-1.15,2.44.46,1.41,2.24,2.04,3.45,1.92-.03-2.01.5-2.65,1.32-3.56l5.5-6.37c-1.37.03-3.45-.32-4.58.48ZM138.32,134.78c-1.72.02-4.28-.02-5.75,1l-6.57,7.53c.6,1.83,1.68,3,2.58,4.52l-4.27,7.27c-.12.2.28.74.47.73.14-.01.5-.23.76-.48l7.77-7.62-2.35-3.92,7.35-9.01ZM141.42,134.69l-5.11,6.09c-.52.62-.85,1.61-.26,2.28.76.85,1.65,1.31,3.02,1.46-.02-2.2,1.02-3.42,2.2-4.78l4.64-5.34c-1.5-.23-2.92.04-4.49.28ZM55.21,134.93l-4.53,5.09c-.51.57-1.39,1.73-1.15,2.44.46,1.41,2.24,2.04,3.45,1.92-.03-2.01.5-2.65,1.32-3.56l5.5-6.37c-1.37.03-3.45-.32-4.58.48ZM52.19,134.62l-5.38.67c-2.54,2.54-4.98,5.13-7.08,8.01.51,1.79,1.66,2.93,2.67,4.46l-4.13,6.61c-.31.51.17,1.46.39,1.25l8.46-8.02-2.41-3.89,7.48-9.11ZM141.42,134.69l-5.11,6.09c-.52.62-.85,1.61-.26,2.28.76.85,1.65,1.31,3.02,1.46-.02-2.2,1.02-3.42,2.2-4.78l4.64-5.34c-1.5-.23-2.92.04-4.49.28ZM138.32,134.78c-1.72.02-4.28-.02-5.75,1l-6.57,7.53c.6,1.83,1.68,3,2.58,4.52l-4.27,7.27c-.12.2.28.74.47.73.14-.01.5-.23.76-.48l7.77-7.62-2.35-3.92,7.35-9.01ZM52.19,134.62l-5.38.67c-2.54,2.54-4.98,5.13-7.08,8.01.51,1.79,1.66,2.93,2.67,4.46l-4.13,6.61c-.31.51.17,1.46.39,1.25l8.46-8.02-2.41-3.89,7.48-9.11ZM55.21,134.93l-4.53,5.09c-.51.57-1.39,1.73-1.15,2.44.46,1.41,2.24,2.04,3.45,1.92-.03-2.01.5-2.65,1.32-3.56l5.5-6.37c-1.37.03-3.45-.32-4.58.48ZM138.32,134.78c-1.72.02-4.28-.02-5.75,1l-6.57,7.53c.6,1.83,1.68,3,2.58,4.52l-4.27,7.27c-.12.2.28.74.47.73.14-.01.5-.23.76-.48l7.77-7.62-2.35-3.92,7.35-9.01ZM141.42,134.69l-5.11,6.09c-.52.62-.85,1.61-.26,2.28.76.85,1.65,1.31,3.02,1.46-.02-2.2,1.02-3.42,2.2-4.78l4.64-5.34c-1.5-.23-2.92.04-4.49.28ZM55.21,134.93l-4.53,5.09c-.51.57-1.39,1.73-1.15,2.44.46,1.41,2.24,2.04,3.45,1.92-.03-2.01.5-2.65,1.32-3.56l5.5-6.37c-1.37.03-3.45-.32-4.58.48ZM52.19,134.62l-5.38.67c-2.54,2.54-4.98,5.13-7.08,8.01.51,1.79,1.66,2.93,2.67,4.46l-4.13,6.61c-.31.51.17,1.46.39,1.25l8.46-8.02-2.41-3.89,7.48-9.11ZM141.42,134.69l-5.11,6.09c-.52.62-.85,1.61-.26,2.28.76.85,1.65,1.31,3.02,1.46-.02-2.2,1.02-3.42,2.2-4.78l4.64-5.34c-1.5-.23-2.92.04-4.49.28ZM138.32,134.78c-1.72.02-4.28-.02-5.75,1l-6.57,7.53c.6,1.83,1.68,3,2.58,4.52l-4.27,7.27c-.12.2.28.74.47.73.14-.01.5-.23.76-.48l7.77-7.62-2.35-3.92,7.35-9.01ZM52.19,134.62l-5.38.67c-2.54,2.54-4.98,5.13-7.08,8.01.51,1.79,1.66,2.93,2.67,4.46l-4.13,6.61c-.31.51.17,1.46.39,1.25l8.46-8.02-2.41-3.89,7.48-9.11ZM55.21,134.93l-4.53,5.09c-.51.57-1.39,1.73-1.15,2.44.46,1.41,2.24,2.04,3.45,1.92-.03-2.01.5-2.65,1.32-3.56l5.5-6.37c-1.37.03-3.45-.32-4.58.48ZM138.32,134.78c-1.72.02-4.28-.02-5.75,1l-6.57,7.53c.6,1.83,1.68,3,2.58,4.52l-4.27,7.27c-.12.2.28.74.47.73.14-.01.5-.23.76-.48l7.77-7.62-2.35-3.92,7.35-9.01ZM141.42,134.69l-5.11,6.09c-.52.62-.85,1.61-.26,2.28.76.85,1.65,1.31,3.02,1.46-.02-2.2,1.02-3.42,2.2-4.78l4.64-5.34c-1.5-.23-2.92.04-4.49.28ZM55.21,134.93l-4.53,5.09c-.51.57-1.39,1.73-1.15,2.44.46,1.41,2.24,2.04,3.45,1.92-.03-2.01.5-2.65,1.32-3.56l5.5-6.37c-1.37.03-3.45-.32-4.58.48ZM52.19,134.62l-5.38.67c-2.54,2.54-4.98,5.13-7.08,8.01.51,1.79,1.66,2.93,2.67,4.46l-4.13,6.61c-.31.51.17,1.46.39,1.25l8.46-8.02-2.41-3.89,7.48-9.11ZM141.42,134.69l-5.11,6.09c-.52.62-.85,1.61-.26,2.28.76.85,1.65,1.31,3.02,1.46-.02-2.2,1.02-3.42,2.2-4.78l4.64-5.34c-1.5-.23-2.92.04-4.49.28ZM138.32,134.78c-1.72.02-4.28-.02-5.75,1l-6.57,7.53c.6,1.83,1.68,3,2.58,4.52l-4.27,7.27c-.12.2.28.74.47.73.14-.01.5-.23.76-.48l7.77-7.62-2.35-3.92,7.35-9.01ZM52.19,134.62l-5.38.67c-2.54,2.54-4.98,5.13-7.08,8.01.51,1.79,1.66,2.93,2.67,4.46l-4.13,6.61c-.31.51.17,1.46.39,1.25l8.46-8.02-2.41-3.89,7.48-9.11ZM55.21,134.93l-4.53,5.09c-.51.57-1.39,1.73-1.15,2.44.46,1.41,2.24,2.04,3.45,1.92-.03-2.01.5-2.65,1.32-3.56l5.5-6.37c-1.37.03-3.45-.32-4.58.48ZM138.32,134.78c-1.72.02-4.28-.02-5.75,1l-6.57,7.53c.6,1.83,1.68,3,2.58,4.52l-4.27,7.27c-.12.2.28.74.47.73.14-.01.5-.23.76-.48l7.77-7.62-2.35-3.92,7.35-9.01ZM141.42,134.69l-5.11,6.09c-.52.62-.85,1.61-.26,2.28.76.85,1.65,1.31,3.02,1.46-.02-2.2,1.02-3.42,2.2-4.78l4.64-5.34c-1.5-.23-2.92.04-4.49.28ZM55.21,134.93l-4.53,5.09c-.51.57-1.39,1.73-1.15,2.44.46,1.41,2.24,2.04,3.45,1.92-.03-2.01.5-2.65,1.32-3.56l5.5-6.37c-1.37.03-3.45-.32-4.58.48ZM52.19,134.62l-5.38.67c-2.54,2.54-4.98,5.13-7.08,8.01.51,1.79,1.66,2.93,2.67,4.46l-4.13,6.61c-.31.51.17,1.46.39,1.25l8.46-8.02-2.41-3.89,7.48-9.11ZM141.42,134.69l-5.11,6.09c-.52.62-.85,1.61-.26,2.28.76.85,1.65,1.31,3.02,1.46-.02-2.2,1.02-3.42,2.2-4.78l4.64-5.34c-1.5-.23-2.92.04-4.49.28ZM138.32,134.78c-1.72.02-4.28-.02-5.75,1l-6.57,7.53c.6,1.83,1.68,3,2.58,4.52l-4.27,7.27c-.12.2.28.74.47.73.14-.01.5-.23.76-.48l7.77-7.62-2.35-3.92,7.35-9.01ZM52.19,134.62l-5.38.67c-2.54,2.54-4.98,5.13-7.08,8.01.51,1.79,1.66,2.93,2.67,4.46l-4.13,6.61c-.31.51.17,1.46.39,1.25l8.46-8.02-2.41-3.89,7.48-9.11ZM55.21,134.93l-4.53,5.09c-.51.57-1.39,1.73-1.15,2.44.46,1.41,2.24,2.04,3.45,1.92-.03-2.01.5-2.65,1.32-3.56l5.5-6.37c-1.37.03-3.45-.32-4.58.48ZM138.32,134.78c-1.72.02-4.28-.02-5.75,1l-6.57,7.53c.6,1.83,1.68,3,2.58,4.52l-4.27,7.27c-.12.2.28.74.47.73.14-.01.5-.23.76-.48l7.77-7.62-2.35-3.92,7.35-9.01ZM141.42,134.69l-5.11,6.09c-.52.62-.85,1.61-.26,2.28.76.85,1.65,1.31,3.02,1.46-.02-2.2,1.02-3.42,2.2-4.78l4.64-5.34c-1.5-.23-2.92.04-4.49.28ZM55.21,134.93l-4.53,5.09c-.51.57-1.39,1.73-1.15,2.44.46,1.41,2.24,2.04,3.45,1.92-.03-2.01.5-2.65,1.32-3.56l5.5-6.37c-1.37.03-3.45-.32-4.58.48ZM52.19,134.62l-5.38.67c-2.54,2.54-4.98,5.13-7.08,8.01.51,1.79,1.66,2.93,2.67,4.46l-4.13,6.61c-.31.51.17,1.46.39,1.25l8.46-8.02-2.41-3.89,7.48-9.11ZM141.42,134.69l-5.11,6.09c-.52.62-.85,1.61-.26,2.28.76.85,1.65,1.31,3.02,1.46-.02-2.2,1.02-3.42,2.2-4.78l4.64-5.34c-1.5-.23-2.92.04-4.49.28ZM138.32,134.78c-1.72.02-4.28-.02-5.75,1l-6.57,7.53c.6,1.83,1.68,3,2.58,4.52l-4.27,7.27c-.12.2.28.74.47.73.14-.01.5-.23.76-.48l7.77-7.62-2.35-3.92,7.35-9.01ZM52.19,134.62l-5.38.67c-2.54,2.54-4.98,5.13-7.08,8.01.51,1.79,1.66,2.93,2.67,4.46l-4.13,6.61c-.31.51.17,1.46.39,1.25l8.46-8.02-2.41-3.89,7.48-9.11ZM55.21,134.93l-4.53,5.09c-.51.57-1.39,1.73-1.15,2.44.46,1.41,2.24,2.04,3.45,1.92-.03-2.01.5-2.65,1.32-3.56l5.5-6.37c-1.37.03-3.45-.32-4.58.48ZM138.32,134.78c-1.72.02-4.28-.02-5.75,1l-6.57,7.53c.6,1.83,1.68,3,2.58,4.52l-4.27,7.27c-.12.2.28.74.47.73.14-.01.5-.23.76-.48l7.77-7.62-2.35-3.92,7.35-9.01ZM141.42,134.69l-5.11,6.09c-.52.62-.85,1.61-.26,2.28.76.85,1.65,1.31,3.02,1.46-.02-2.2,1.02-3.42,2.2-4.78l4.64-5.34c-1.5-.23-2.92.04-4.49.28ZM55.21,134.93l-4.53,5.09c-.51.57-1.39,1.73-1.15,2.44.46,1.41,2.24,2.04,3.45,1.92-.03-2.01.5-2.65,1.32-3.56l5.5-6.37c-1.37.03-3.45-.32-4.58.48ZM52.19,134.62l-5.38.67c-2.54,2.54-4.98,5.13-7.08,8.01.51,1.79,1.66,2.93,2.67,4.46l-4.13,6.61c-.31.51.17,1.46.39,1.25l8.46-8.02-2.41-3.89,7.48-9.11ZM141.42,134.69l-5.11,6.09c-.52.62-.85,1.61-.26,2.28.76.85,1.65,1.31,3.02,1.46-.02-2.2,1.02-3.42,2.2-4.78l4.64-5.34c-1.5-.23-2.92.04-4.49.28ZM138.32,134.78c-1.72.02-4.28-.02-5.75,1l-6.57,7.53c.6,1.83,1.68,3,2.58,4.52l-4.27,7.27c-.12.2.28.74.47.73.14-.01.5-.23.76-.48l7.77-7.62-2.35-3.92,7.35-9.01ZM52.19,134.62l-5.38.67c-2.54,2.54-4.98,5.13-7.08,8.01.51,1.79,1.66,2.93,2.67,4.46l-4.13,6.61c-.31.51.17,1.46.39,1.25l8.46-8.02-2.41-3.89,7.48-9.11ZM55.21,134.93l-4.53,5.09c-.51.57-1.39,1.73-1.15,2.44.46,1.41,2.24,2.04,3.45,1.92-.03-2.01.5-2.65,1.32-3.56l5.5-6.37c-1.37.03-3.45-.32-4.58.48ZM138.32,134.78c-1.72.02-4.28-.02-5.75,1l-6.57,7.53c.6,1.83,1.68,3,2.58,4.52l-4.27,7.27c-.12.2.28.74.47.73.14-.01.5-.23.76-.48l7.77-7.62-2.35-3.92,7.35-9.01ZM141.42,134.69l-5.11,6.09c-.52.62-.85,1.61-.26,2.28.76.85,1.65,1.31,3.02,1.46-.02-2.2,1.02-3.42,2.2-4.78l4.64-5.34c-1.5-.23-2.92.04-4.49.28ZM55.21,134.93l-4.53,5.09c-.51.57-1.39,1.73-1.15,2.44.46,1.41,2.24,2.04,3.45,1.92-.03-2.01.5-2.65,1.32-3.56l5.5-6.37c-1.37.03-3.45-.32-4.58.48ZM52.19,134.62l-5.38.67c-2.54,2.54-4.98,5.13-7.08,8.01.51,1.79,1.66,2.93,2.67,4.46l-4.13,6.61c-.31.51.17,1.46.39,1.25l8.46-8.02-2.41-3.89,7.48-9.11ZM141.42,134.69l-5.11,6.09c-.52.62-.85,1.61-.26,2.28.76.85,1.65,1.31,3.02,1.46-.02-2.2,1.02-3.42,2.2-4.78l4.64-5.34c-1.5-.23-2.92.04-4.49.28ZM138.32,134.78c-1.72.02-4.28-.02-5.75,1l-6.57,7.53c.6,1.83,1.68,3,2.58,4.52l-4.27,7.27c-.12.2.28.74.47.73.14-.01.5-.23.76-.48l7.77-7.62-2.35-3.92,7.35-9.01ZM52.19,134.62l-5.38.67c-2.54,2.54-4.98,5.13-7.08,8.01.51,1.79,1.66,2.93,2.67,4.46l-4.13,6.61c-.31.51.17,1.46.39,1.25l8.46-8.02-2.41-3.89,7.48-9.11ZM55.21,134.93l-4.53,5.09c-.51.57-1.39,1.73-1.15,2.44.46,1.41,2.24,2.04,3.45,1.92-.03-2.01.5-2.65,1.32-3.56l5.5-6.37c-1.37.03-3.45-.32-4.58.48ZM138.32,134.78c-1.72.02-4.28-.02-5.75,1l-6.57,7.53c.6,1.83,1.68,3,2.58,4.52l-4.27,7.27c-.12.2.28.74.47.73.14-.01.5-.23.76-.48l7.77-7.62-2.35-3.92,7.35-9.01ZM141.42,134.69l-5.11,6.09c-.52.62-.85,1.61-.26,2.28.76.85,1.65,1.31,3.02,1.46-.02-2.2,1.02-3.42,2.2-4.78l4.64-5.34c-1.5-.23-2.92.04-4.49.28ZM55.21,134.93l-4.53,5.09c-.51.57-1.39,1.73-1.15,2.44.46,1.41,2.24,2.04,3.45,1.92-.03-2.01.5-2.65,1.32-3.56l5.5-6.37c-1.37.03-3.45-.32-4.58.48ZM52.19,134.62l-5.38.67c-2.54,2.54-4.98,5.13-7.08,8.01.51,1.79,1.66,2.93,2.67,4.46l-4.13,6.61c-.31.51.17,1.46.39,1.25l8.46-8.02-2.41-3.89,7.48-9.11ZM141.42,134.69l-5.11,6.09c-.52.62-.85,1.61-.26,2.28.76.85,1.65,1.31,3.02,1.46-.02-2.2,1.02-3.42,2.2-4.78l4.64-5.34c-1.5-.23-2.92.04-4.49.28ZM138.32,134.78c-1.72.02-4.28-.02-5.75,1l-6.57,7.53c.6,1.83,1.68,3,2.58,4.52l-4.27,7.27c-.12.2.28.74.47.73.14-.01.5-.23.76-.48l7.77-7.62-2.35-3.92,7.35-9.01ZM52.19,134.62l-5.38.67c-2.54,2.54-4.98,5.13-7.08,8.01.51,1.79,1.66,2.93,2.67,4.46l-4.13,6.61c-.31.51.17,1.46.39,1.25l8.46-8.02-2.41-3.89,7.48-9.11ZM55.21,134.93l-4.53,5.09c-.51.57-1.39,1.73-1.15,2.44.46,1.41,2.24,2.04,3.45,1.92-.03-2.01.5-2.65,1.32-3.56l5.5-6.37c-1.37.03-3.45-.32-4.58.48ZM138.32,134.78c-1.72.02-4.28-.02-5.75,1l-6.57,7.53c.6,1.83,1.68,3,2.58,4.52l-4.27,7.27c-.12.2.28.74.47.73.14-.01.5-.23.76-.48l7.77-7.62-2.35-3.92,7.35-9.01ZM141.42,134.69l-5.11,6.09c-.52.62-.85,1.61-.26,2.28.76.85,1.65,1.31,3.02,1.46-.02-2.2,1.02-3.42,2.2-4.78l4.64-5.34c-1.5-.23-2.92.04-4.49.28ZM55.21,134.93l-4.53,5.09c-.51.57-1.39,1.73-1.15,2.44.46,1.41,2.24,2.04,3.45,1.92-.03-2.01.5-2.65,1.32-3.56l5.5-6.37c-1.37.03-3.45-.32-4.58.48ZM52.19,134.62l-5.38.67c-2.54,2.54-4.98,5.13-7.08,8.01.51,1.79,1.66,2.93,2.67,4.46l-4.13,6.61c-.31.51.17,1.46.39,1.25l8.46-8.02-2.41-3.89,7.48-9.11ZM141.42,134.69l-5.11,6.09c-.52.62-.85,1.61-.26,2.28.76.85,1.65,1.31,3.02,1.46-.02-2.2,1.02-3.42,2.2-4.78l4.64-5.34c-1.5-.23-2.92.04-4.49.28ZM138.32,134.78c-1.72.02-4.28-.02-5.75,1l-6.57,7.53c.6,1.83,1.68,3,2.58,4.52l-4.27,7.27c-.12.2.28.74.47.73.14-.01.5-.23.76-.48l7.77-7.62-2.35-3.92,7.35-9.01ZM52.19,134.62l-5.38.67c-2.54,2.54-4.98,5.13-7.08,8.01.51,1.79,1.66,2.93,2.67,4.46l-4.13,6.61c-.31.51.17,1.46.39,1.25l8.46-8.02-2.41-3.89,7.48-9.11ZM55.21,134.93l-4.53,5.09c-.51.57-1.39,1.73-1.15,2.44.46,1.41,2.24,2.04,3.45,1.92-.03-2.01.5-2.65,1.32-3.56l5.5-6.37c-1.37.03-3.45-.32-4.58.48ZM138.32,134.78c-1.72.02-4.28-.02-5.75,1l-6.57,7.53c.6,1.83,1.68,3,2.58,4.52l-4.27,7.27c-.12.2.28.74.47.73.14-.01.5-.23.76-.48l7.77-7.62-2.35-3.92,7.35-9.01ZM141.42,134.69l-5.11,6.09c-.52.62-.85,1.61-.26,2.28.76.85,1.65,1.31,3.02,1.46-.02-2.2,1.02-3.42,2.2-4.78l4.64-5.34c-1.5-.23-2.92.04-4.49.28ZM55.21,134.93l-4.53,5.09c-.51.57-1.39,1.73-1.15,2.44.46,1.41,2.24,2.04,3.45,1.92-.03-2.01.5-2.65,1.32-3.56l5.5-6.37c-1.37.03-3.45-.32-4.58.48ZM52.19,134.62l-5.38.67c-2.54,2.54-4.98,5.13-7.08,8.01.51,1.79,1.66,2.93,2.67,4.46l-4.13,6.61c-.31.51.17,1.46.39,1.25l8.46-8.02-2.41-3.89,7.48-9.11ZM141.42,134.69l-5.11,6.09c-.52.62-.85,1.61-.26,2.28.76.85,1.65,1.31,3.02,1.46-.02-2.2,1.02-3.42,2.2-4.78l4.64-5.34c-1.5-.23-2.92.04-4.49.28ZM138.32,134.78c-1.72.02-4.28-.02-5.75,1l-6.57,7.53c.6,1.83,1.68,3,2.58,4.52l-4.27,7.27c-.12.2.28.74.47.73.14-.01.5-.23.76-.48l7.77-7.62-2.35-3.92,7.35-9.01ZM52.19,134.62l-5.38.67c-2.54,2.54-4.98,5.13-7.08,8.01.51,1.79,1.66,2.93,2.67,4.46l-4.13,6.61c-.31.51.17,1.46.39,1.25l8.46-8.02-2.41-3.89,7.48-9.11ZM55.21,134.93l-4.53,5.09c-.51.57-1.39,1.73-1.15,2.44.46,1.41,2.24,2.04,3.45,1.92-.03-2.01.5-2.65,1.32-3.56l5.5-6.37c-1.37.03-3.45-.32-4.58.48ZM138.32,134.78c-1.72.02-4.28-.02-5.75,1l-6.57,7.53c.6,1.83,1.68,3,2.58,4.52l-4.27,7.27c-.12.2.28.74.47.73.14-.01.5-.23.76-.48l7.77-7.62-2.35-3.92,7.35-9.01ZM141.42,134.69l-5.11,6.09c-.52.62-.85,1.61-.26,2.28.76.85,1.65,1.31,3.02,1.46-.02-2.2,1.02-3.42,2.2-4.78l4.64-5.34c-1.5-.23-2.92.04-4.49.28ZM55.21,134.93l-4.53,5.09c-.51.57-1.39,1.73-1.15,2.44.46,1.41,2.24,2.04,3.45,1.92-.03-2.01.5-2.65,1.32-3.56l5.5-6.37c-1.37.03-3.45-.32-4.58.48ZM52.19,134.62l-5.38.67c-2.54,2.54-4.98,5.13-7.08,8.01.51,1.79,1.66,2.93,2.67,4.46l-4.13,6.61c-.31.51.17,1.46.39,1.25l8.46-8.02-2.41-3.89,7.48-9.11ZM141.42,134.69l-5.11,6.09c-.52.62-.85,1.61-.26,2.28.76.85,1.65,1.31,3.02,1.46-.02-2.2,1.02-3.42,2.2-4.78l4.64-5.34c-1.5-.23-2.92.04-4.49.28ZM138.32,134.78c-1.72.02-4.28-.02-5.75,1l-6.57,7.53c.6,1.83,1.68,3,2.58,4.52l-4.27,7.27c-.12.2.28.74.47.73.14-.01.5-.23.76-.48l7.77-7.62-2.35-3.92,7.35-9.01ZM52.19,134.62l-5.38.67c-2.54,2.54-4.98,5.13-7.08,8.01.51,1.79,1.66,2.93,2.67,4.46l-4.13,6.61c-.31.51.17,1.46.39,1.25l8.46-8.02-2.41-3.89,7.48-9.11ZM55.21,134.93l-4.53,5.09c-.51.57-1.39,1.73-1.15,2.44.46,1.41,2.24,2.04,3.45,1.92-.03-2.01.5-2.65,1.32-3.56l5.5-6.37c-1.37.03-3.45-.32-4.58.48ZM138.32,134.78c-1.72.02-4.28-.02-5.75,1l-6.57,7.53c.6,1.83,1.68,3,2.58,4.52l-4.27,7.27c-.12.2.28.74.47.73.14-.01.5-.23.76-.48l7.77-7.62-2.35-3.92,7.35-9.01ZM141.42,134.69l-5.11,6.09c-.52.62-.85,1.61-.26,2.28.76.85,1.65,1.31,3.02,1.46-.02-2.2,1.02-3.42,2.2-4.78l4.64-5.34c-1.5-.23-2.92.04-4.49.28ZM55.21,134.93l-4.53,5.09c-.51.57-1.39,1.73-1.15,2.44.46,1.41,2.24,2.04,3.45,1.92-.03-2.01.5-2.65,1.32-3.56l5.5-6.37c-1.37.03-3.45-.32-4.58.48ZM52.19,134.62l-5.38.67c-2.54,2.54-4.98,5.13-7.08,8.01.51,1.79,1.66,2.93,2.67,4.46l-4.13,6.61c-.31.51.17,1.46.39,1.25l8.46-8.02-2.41-3.89,7.48-9.11ZM141.42,134.69l-5.11,6.09c-.52.62-.85,1.61-.26,2.28.76.85,1.65,1.31,3.02,1.46-.02-2.2,1.02-3.42,2.2-4.78l4.64-5.34c-1.5-.23-2.92.04-4.49.28ZM138.32,134.78c-1.72.02-4.28-.02-5.75,1l-6.57,7.53c.6,1.83,1.68,3,2.58,4.52l-4.27,7.27c-.12.2.28.74.47.73.14-.01.5-.23.76-.48l7.77-7.62-2.35-3.92,7.35-9.01ZM52.19,134.62l-5.38.67c-2.54,2.54-4.98,5.13-7.08,8.01.51,1.79,1.66,2.93,2.67,4.46l-4.13,6.61c-.31.51.17,1.46.39,1.25l8.46-8.02-2.41-3.89,7.48-9.11ZM55.21,134.93l-4.53,5.09c-.51.57-1.39,1.73-1.15,2.44.46,1.41,2.24,2.04,3.45,1.92-.03-2.01.5-2.65,1.32-3.56l5.5-6.37c-1.37.03-3.45-.32-4.58.48ZM138.32,134.78c-1.72.02-4.28-.02-5.75,1l-6.57,7.53c.6,1.83,1.68,3,2.58,4.52l-4.27,7.27c-.12.2.28.74.47.73.14-.01.5-.23.76-.48l7.77-7.62-2.35-3.92,7.35-9.01ZM141.42,134.69l-5.11,6.09c-.52.62-.85,1.61-.26,2.28.76.85,1.65,1.31,3.02,1.46-.02-2.2,1.02-3.42,2.2-4.78l4.64-5.34c-1.5-.23-2.92.04-4.49.28ZM55.21,134.93l-4.53,5.09c-.51.57-1.39,1.73-1.15,2.44.46,1.41,2.24,2.04,3.45,1.92-.03-2.01.5-2.65,1.32-3.56l5.5-6.37c-1.37.03-3.45-.32-4.58.48ZM52.19,134.62l-5.38.67c-2.54,2.54-4.98,5.13-7.08,8.01.51,1.79,1.66,2.93,2.67,4.46l-4.13,6.61c-.31.51.17,1.46.39,1.25l8.46-8.02-2.41-3.89,7.48-9.11ZM141.42,134.69l-5.11,6.09c-.52.62-.85,1.61-.26,2.28.76.85,1.65,1.31,3.02,1.46-.02-2.2,1.02-3.42,2.2-4.78l4.64-5.34c-1.5-.23-2.92.04-4.49.28ZM138.32,134.78c-1.72.02-4.28-.02-5.75,1l-6.57,7.53c.6,1.83,1.68,3,2.58,4.52l-4.27,7.27c-.12.2.28.74.47.73.14-.01.5-.23.76-.48l7.77-7.62-2.35-3.92,7.35-9.01ZM52.19,134.62l-5.38.67c-2.54,2.54-4.98,5.13-7.08,8.01.51,1.79,1.66,2.93,2.67,4.46l-4.13,6.61c-.31.51.17,1.46.39,1.25l8.46-8.02-2.41-3.89,7.48-9.11ZM55.21,134.93l-4.53,5.09c-.51.57-1.39,1.73-1.15,2.44.46,1.41,2.24,2.04,3.45,1.92-.03-2.01.5-2.65,1.32-3.56l5.5-6.37c-1.37.03-3.45-.32-4.58.48ZM138.32,134.78c-1.72.02-4.28-.02-5.75,1l-6.57,7.53c.6,1.83,1.68,3,2.58,4.52l-4.27,7.27c-.12.2.28.74.47.73.14-.01.5-.23.76-.48l7.77-7.62-2.35-3.92,7.35-9.01ZM141.42,134.69l-5.11,6.09c-.52.62-.85,1.61-.26,2.28.76.85,1.65,1.31,3.02,1.46-.02-2.2,1.02-3.42,2.2-4.78l4.64-5.34c-1.5-.23-2.92.04-4.49.28ZM55.21,134.93l-4.53,5.09c-.51.57-1.39,1.73-1.15,2.44.46,1.41,2.24,2.04,3.45,1.92-.03-2.01.5-2.65,1.32-3.56l5.5-6.37c-1.37.03-3.45-.32-4.58.48ZM52.19,134.62l-5.38.67c-2.54,2.54-4.98,5.13-7.08,8.01.51,1.79,1.66,2.93,2.67,4.46l-4.13,6.61c-.31.51.17,1.46.39,1.25l8.46-8.02-2.41-3.89,7.48-9.11ZM141.42,134.69l-5.11,6.09c-.52.62-.85,1.61-.26,2.28.76.85,1.65,1.31,3.02,1.46-.02-2.2,1.02-3.42,2.2-4.78l4.64-5.34c-1.5-.23-2.92.04-4.49.28ZM138.32,134.78c-1.72.02-4.28-.02-5.75,1l-6.57,7.53c.6,1.83,1.68,3,2.58,4.52l-4.27,7.27c-.12.2.28.74.47.73.14-.01.5-.23.76-.48l7.77-7.62-2.35-3.92,7.35-9.01ZM52.19,134.62l-5.38.67c-2.54,2.54-4.98,5.13-7.08,8.01.51,1.79,1.66,2.93,2.67,4.46l-4.13,6.61c-.31.51.17,1.46.39,1.25l8.46-8.02-2.41-3.89,7.48-9.11ZM55.21,134.93l-4.53,5.09c-.51.57-1.39,1.73-1.15,2.44.46,1.41,2.24,2.04,3.45,1.92-.03-2.01.5-2.65,1.32-3.56l5.5-6.37c-1.37.03-3.45-.32-4.58.48ZM138.32,134.78c-1.72.02-4.28-.02-5.75,1l-6.57,7.53c.6,1.83,1.68,3,2.58,4.52l-4.27,7.27c-.12.2.28.74.47.73.14-.01.5-.23.76-.48l7.77-7.62-2.35-3.92,7.35-9.01ZM141.42,134.69l-5.11,6.09c-.52.62-.85,1.61-.26,2.28.76.85,1.65,1.31,3.02,1.46-.02-2.2,1.02-3.42,2.2-4.78l4.64-5.34c-1.5-.23-2.92.04-4.49.28ZM55.21,134.93l-4.53,5.09c-.51.57-1.39,1.73-1.15,2.44.46,1.41,2.24,2.04,3.45,1.92-.03-2.01.5-2.65,1.32-3.56l5.5-6.37c-1.37.03-3.45-.32-4.58.48ZM52.19,134.62l-5.38.67c-2.54,2.54-4.98,5.13-7.08,8.01.51,1.79,1.66,2.93,2.67,4.46l-4.13,6.61c-.31.51.17,1.46.39,1.25l8.46-8.02-2.41-3.89,7.48-9.11ZM141.42,134.69l-5.11,6.09c-.52.62-.85,1.61-.26,2.28.76.85,1.65,1.31,3.02,1.46-.02-2.2,1.02-3.42,2.2-4.78l4.64-5.34c-1.5-.23-2.92.04-4.49.28ZM138.32,134.78c-1.72.02-4.28-.02-5.75,1l-6.57,7.53c.6,1.83,1.68,3,2.58,4.52l-4.27,7.27c-.12.2.28.74.47.73.14-.01.5-.23.76-.48l7.77-7.62-2.35-3.92,7.35-9.01ZM203.4,77c1.88,1.68,2.68,3.69,4.05,5.71.31-4.75-1.12-8.94-2.97-13.1-2.73-6.14-7.58-12.37-14.8-12.7l5.53-5.83c3.42-3.6,6.08-7.76,8.03-12.54l-6.03,4.85c8.43-10.34,10.99-22.25,9.59-36.15-1.3.84-1.55,2.13-2.09,3.38-2.13,5.09-4.51,10.09-9.02,13.88,2.79-5.72,5.61-11.82,3.44-18.22-2.29,6.22-5.43,11.55-10.55,15.69,3.28-6.35,5.7-12.66,4.64-19.76-5.01,7.76-10.95,13.79-18.39,18.64l5.01-6.79c2.63-4.23,4.38-9.03,4.33-14.06-4.77,5.16-9.33,9.63-15.29,12.69l2.4-3.64c1.6-2.44,2.63-5.24,2.52-8.14-6.57,5.21-13.1,9.51-20.94,11.81,1.76-2.08,2.94-4.19,3.01-6.65-8.36,5.09-16.64,9.16-26.25,10.7,1.64-1.94,3.5-2.99,4.15-5.49l-3.62,1.33c-6.25,2.73-12.61,4.6-19.61,5.13,2.08-1.65,4.02-3.13,5.3-5.61l-10.46,3.56c-4.95,1.17-9.82,1.8-14.96,1.07,2.18-1.52,4.31-1.97,5.55-4.54-4.76,1.61-9.63,2.33-14.8,2.02l-13.56-.82c-8.75-.53-17.19.11-25.53,2.75-11.3,3.58-18.33,12-19.25,24.07-1.27-3.03-1.19-6.18-1.6-9.95-2.57,4.67-2.91,10.29-1.31,15.34l1.1,2.59c-2.38-1.02-4.04-2.48-5.59-4.54-.34,2.45.72,4.3,2.24,5.85l2.24,2.28c-4.45-.33-8.39.84-11.48,4.07,4.16-.55,7.77-1.28,11.58-.28,2.75.72,5.58,1.61,7,4.43-5.8-4.21-12.55-3.83-17.86.76C3.58,65.61-.42,75.53.36,82.63c1.29-2.02,2.11-3.96,4.02-5.28C.73,85.93-.78,94.89.39,103.88l1.91-5.41c-.31,6.21.26,11.75,2.24,17.43l4.3,12.35c.67-.63.44-1.33.68-2.19,2.62,6.94,2.98,14.19,2.64,21.74-.15,3.25.04,6.32-.41,9.56-1.14,8.21,1.38,17.12,9.44,20.51-8.16,7.81-6.47,18.71-4.98,29.57l2.89-2.58-.14,8.54c-.06,3.4,1.69,6.18,2.8,9.29.72,2.03-1.94,4.05-2.62,5.48.2,1.62,2.81,1.98,4.43,1.03.7,2.72.62,5.39.33,8.19l-1.27,11.98c2.41-1.24,3.89-3.25,5.06-5.64l-1.81,17.25c-.18,5.43.27,10.59,1.76,15.7l3.47-7.47c-1.09,7.82-1.43,15.18,2,22.33.39-3.32.67-6.34,1.7-9.41l.43,8.52c.3,6.17,2.03,12.1,6,16.89l.6-13.63c0-.19.4-.53.52-.48.14.05-.01.48.01.8.53,8.93,1.94,19.48,6.95,26.98l-.13-12.42c2.42,7.42,4.38,14.36,7.45,21.12,1.47-1.66,1.43-3.46,2.39-5.5.82,6.54,3.22,12.59,8.27,17.24-.31-4-1.45-7.31-.65-11.16,1.95,8.33,5.35,16.53,12.51,21.76.44-1.6.68-3.39.26-4.81.17-.09.13-.53-.01-1.05.18.38.36.73.52.99,2.51,6.01,6.91,11.15,12.82,14.61-1.9-3.7-4.3-6.57-4.88-10.74l4.3,5.88c1.71,2.33,3.5,4.42,6.11,5.91.23-1.48-.29-2.6-.44-4.09,2.26,2.44,3.31,5.28,4.63,8.21l3.69-6.26-.77,4.97c3.71-2.11,6.87-4.59,9.41-7.85l4.99-6.42c-.18,3.89-2.46,6.43-3.74,9.94,6.11-3.61,9.86-9.19,12.45-15.32.48-1.13.53-2.37.19-3.73,2.56-2.46,4.44-5.01,5.24-8.38,1.08,4.59-2.38,7.35-3.79,11.32-.2.57-.67.72-1.09.78l.7,5.76c7.65-6.43,10.35-13.67,11.54-22.99l.62-4.84,2.22-13.93c1.84-11.55.77-22.79-3.35-33.55-.42-1.07-1.11-2.2-1.01-3.7l1.49,2.87c3.84,7.45,6.14,15.68,5.96,24.38-.1,5.37-1.12,10.41-2.4,15.56l-2.45,9.94c-.38,1.54-.52,2.91-.35,4.54.42,3.69-.58,7.23-.82,11.35,4.69-4.57,7-10.22,8.31-16.58l2.17,4.73,4.13-10.57,3.04-9.87c-.35-.75.64-.79.41-.01l-.51,10.96c-.12.47.14.85.64.59,5.22-8.21,6.4-18.93,6.7-28.21.72.29.65.69.67,1.16l.51,13.74c5.45-7.44,6.43-16.53,5.98-25.41,1.45,3.04,1.49,5.97,2.31,9.17,2.96-7.12,2.94-14.41,1.9-22.05l3.04,6.93c.2.61.9.32.55-.31.94-4.07,1.5-7.94,1.58-12.06.12-5.45-.98-10.61-1.45-16l-.28-3.25c1.46,2.13,2.77,3.92,5.16,4.92-1.34-6.79-2.39-13.27-1.34-20.12,1.81.54,3.84.56,4.75-1.17-1.24-1.45-3.5-3.51-2.83-5.38l2.29-6.41c.76-3.8.63-7.43.23-11.69l2.75,2.81,1.24-15.3c-.03-5.38-1.85-10.32-5.39-14.43,6.12-3.27,9.53-9.54,9.08-16.4l-.79-11.87c-.04-.75.65-1.42.48-2.53-1.2-7.6-.28-15.14,2.42-22.1.23,1.24-.44,2.22.35,3.45l3.08-8.39c1.88-5.1,3.11-10.22,3.64-15.63l-.12-4.97,1.64,4.34c1.54-8.64-.71-18.63-4.17-26.68ZM19.67,198.79c-1.15-4.33-1.39-8.88,1.07-13.11-.16,4.21.17,8.83-1.07,13.11ZM162.59,124.77c-16.8-5.3-38.32-1.81-48.39,14.07-6.74-2.26-13.51-2.33-20.21-.06-3.23-5-7.16-8.55-12.3-11.18-11.53-5.72-24.84-6.62-37.03-2.5-5.56,1.87-9.98,5.06-13.83,9.44-.87.54-3.27.17-3.85-.66-.8-1.15-.46-2.92-.03-4.13l3.7-10.29c5.33-14.8.69-21.97,1.22-31.27.28-4.91,2.71-9.69,7.14-11.89,3.44-1.71,7.46-1.02,10.7.66l7.1,3.7c4.55,2.37,9.17,4.37,14.56,4.84-1.27-1.42-2.95-1.93-3.56-3.71,1.89-.72,3.85-.4,5.56.29l12.13,4.93c10.08,4.1,25.17,5.33,35.72.75-6.97-.31-13.74-1.14-20.11-4.07l.51-.4c8.13,2.42,16.26,2.58,24.63,1.4,7.78-1.08,14.89-3.75,21.88-7.23l4.77-2.38c3.24-1.62,5.9-3.76,9.09-5.23l13.45-6.19c4.91-2.81,8.74-6.46,13.5-9.93-4.06,5.9-9.4,10.69-15.75,13.61l-16.7,7.69-3.18,2c-.68.42-1.48.77-2.09,1.52,1.26.02,2.02-.81,3.01-1.14l3.81-1.26c3.4-1.14,7.34-1.43,10.7.16,4.42,2.08,6.91,6.61,7.22,11.5.63,10.3-4.21,16.57,1.64,32.37l4.01,10.82c.26.74.64,2.31.05,2.83-1.13,1-2.81,1.12-4.26,1.02-3.78-5.04-8.83-8.19-14.8-10.08ZM173.83,152.91c-4.72,15.13-25.41,19.74-40.6,13.46-3.88-1.6-7.16-3.84-9.81-6.94-5.53-6.48-5.82-15.36-.22-21.9,8.11-9.46,22.37-11.35,34.27-8.77,3.45.75,6.57,2.22,9.45,4.12,6.71,4.41,9.32,12.31,6.9,20.04ZM86.79,156.67c-7.59,12.84-27.57,15.58-41.15,8.83-5.57-2.77-9.66-7.5-11.36-13.37-2.06-7.11.58-14.26,6.35-18.64,11.47-8.7,33.91-7.55,43.9,3.77,4.73,5.35,5.99,13.1,2.27,19.41ZM15.15,162.17l.29-13.56c.03-1.27.9-3.2,2.21-2.96,1.34.26,1.68,2.16,1.65,3.33l-.29,11.63c-.1,4.43,1.49,8.42,2.26,12.95-3.39-2.8-6.21-6.89-6.11-11.39ZM24.79,220.27l-.66-7.24c-1.06-6.38-1.12-12.71.26-18.91l.99,8.89c.69,5.88.74,11.65-.59,17.27ZM34.13,248.19c-.97,4.88-1.23,9.42-.91,14.51-3.59-9.43.26-18.29-.31-27.91l-2.62,4.3c.29-3.5.76-6.92-.46-10.13-1.72-4.57-2.08-9.13-.56-13.98.22,5.15.56,10.25,1.84,15.4.14.55.95.64,1.07.4l.62-1.43c2.54,5.86,2.61,12.42,1.34,18.85ZM40.42,256.83c-1.08,5.15-.84,10.07-.83,15.59-3.52-8.54-2.87-18.12,1.88-26.04,1.35-2.8,2.19-5.44,2.36-8.67,1.26,2.95.59,5.97-.35,9.06l-3.06,10.06ZM46.63,265.85c-.83,6.57-.08,12.81-.18,20.07-2.75-4.2-3.02-9.44-3.01-14.52,0-7.74,1.75-17.51,7.83-22.1-2.81,5.32-4.26,10.69-4.65,16.55ZM55.41,319.04l-1.05-7.55c-.28-2.07-1.06-3.95-.62-6.29,2.55,4.81,3.37,8.81,1.67,13.84ZM53.17,280.19c-.6,7.25.89,13.71,2.27,21.33-4.91-9.04-5.58-19.9-3.85-30.14,1.06-4.62,2.31-9.06,5.98-12.57-2.96,6.8-4.72,13.85-4.39,21.37ZM57.89,283.31c-1.54-6.25-.8-14.6,4.66-18.87-2.74,6.08-3.94,12.01-4.66,18.87ZM64.3,304.61l2.57,15.88c.34,2.04.79,3.99.14,6.16l-3.06-11.17c-3.88-14.14-2.28-27.06,3.73-40.05.24.12.37.46.34.95-3.16,9.04-4.71,18.63-3.71,28.24ZM69,296.79c-1.62-7.38,1.84-15.53,8.56-19.22l-5.39,9.97c-1.56,2.86-2.03,5.91-3.17,9.24ZM73.09,314.21c-.17-8.86,1.39-17.58,5.67-25.35-2.23,9.93-3.72,19.38-2.39,29.32l3.07,15.71c-3.53-5.86-5.16-12.73-6.36-19.68ZM86.75,329.5c-2.34-5.43-4.31-10.66-5.14-16.57l4.22,8.99,1.24,2.01c.78-3.96,1.46-7.47,3.65-10.57-2.24,9.26-2.42,18.46.09,27.47l2.26,8.11c-3.45-5.84-5.73-12.41-6.31-19.44ZM84.33,305.37c-1.25-2.02-1.46-4.42-1.85-6.88-.78-5.77.64-11.41,4.26-15.98l-1.17,6.45c-1.53,5.3-1.51,10.46-1.24,16.4ZM91.87,281.6l-.69,7.82-2.3,19.26c-.85-8.68-.67-19.57,2.99-27.08ZM103.3,359.03c-1.93-7.22-8.28-12.04-6.71-20.12,1.78,7.78,8.1,11.75,6.71,20.12ZM106.4,347.94c-1.44-4.22-2.88-7.72-4.75-11.53-5.37-11.02-7.17-23.16-5.76-35.39.52-4.57.89-8.81,2.81-13.04l-.39,19.02c.47,9.97,2.6,19.26,6.24,28.43,1.59,4.03,2.66,8.08,1.85,12.51ZM113.03,352.24c.86-2.8,2.29-5.08,1.97-8.21-1.03,1.52-1.37,3.03-2.78,4.25,1.04-4.7.95-9.09-.64-13.45l-3.65-9.91c-1.98-5.4-1.9-11.31-.62-16.82.22,6.03,1.05,11.48,3.3,16.94,2.01,4.9,3.6,9.64,4.47,15.04,1.74-.94,1.53-2.4,1.67-3.81.72-7.82-.09-15.37-.41-23.4,4.5,12.1,6.1,29.73-3.31,39.36ZM108.57,285.65c1.43,1.21,1.84,2.86,2.55,4.49,2.38,5.44,3.22,11.57.98,17.58l-3.52-22.07ZM119.18,308.92l-1.54-14.89-.55-12.7c1.39,2.92,1.88,5.92,2.49,9.16.43,6.05.73,11.96-.4,18.43ZM121.96,281.65c5.2,7.11,5.58,16.12,2.39,23.87.16-3.85.59-7.3-.07-10.96l-2.32-12.91ZM126.59,322.99c.24,4.07-.21,7.95-1.51,11.72l-.87-9.31c-.48-5.25.47-10.42,3.1-14.88-.53,4.31-.99,8.22-.72,12.47ZM129.37,334.3c1.63-6.85,3.26-13.15,3.59-20.1.4-8.82-1.1-17.02-3.23-25.7,2.2,3.13,3.22,6.6,4.27,10.28,3.68,12.98,1.47,23.72-4.63,35.53ZM139.86,296.73c-1.54-6.96-4.57-13.15-8.93-19.04,2.51.64,4.13,2.51,5.73,4.59,2.96,4.29,4.61,9.24,3.2,14.45ZM140.76,262.28c-1.59.07-2.7-1.15-3.34-2.76-4.99,7.37-9.18,13.08-17.4,15.67-7.42,2.34-9.1-4.24-14.6-6.38-.27.49-.15.88-.13,1.74-.28-.31-.59-.66-.93-.77-.5-.15-1.04.19-1.51.82l-.22-1.59c-1.66.59-2.93,1.79-4.03,3.05-2.96,3.35-6.82,4.3-10.99,2.85-4.36-1.51-8.11-4.12-10.93-7.84l-5.49-7.23c-.65,1.91-2.09,2.69-3.5,2.61l.82-10.02c-2.38,1.84-4.75,2.53-7.54,1.85l2.86-1.43c-4.54-4.66-10.26-10.43-9.73-16.77,3.86-1.18,7.27-2.16,10.67-4-.21,1.08-1.02,1.38-1.55,2.12,4.67-.6,8.12-3.41,11.59-6.61l-.84,4.66,8.02-4.68c.57.47,1.15.56,1.96.35,4.03-1.08,7.45-3.03,11.05-5.04l-.63,1.74c3.63-.74,6.63-2.78,9.34-5.59,2.76,2.57,5.77,4.84,9.66,5.53-.27-.54-.85-.83-.72-1.65,3.26,2.08,6.44,3.78,10.16,4.72.85.21,1.47.14,2.09-.44l7.9,4.64c.3-1.6-.42-3.06-.91-5.05,3.6,3.54,7.22,6.53,12.22,7.36l-.78-1.73c3.7,1.61,7.12,2.97,10.96,3.85.26,3.16-.67,6.06-2.6,8.4l-6.73,8.15c.83.71,1.79,1.2,2.8,1.64-2.95.58-5.42-.29-7.67-1.8l.66,9.64ZM92.63,210.12c-3.51,4.52-10.96,10.46-16.8,11.61,7.82-5.09,14.52-10.56,19.56-18.57.39,2.92-1.22,4.97-2.76,6.96ZM97.78,204.41c1.13,5.2-3.75,10.74-7.86,13.27,2.59-4.75,6.19-7.93,7.86-13.27ZM129.25,206.91c2.39,1.43,3.87,3.4,5.66,5.34,7.05,7.57,14.38,14.75,25.24,15.7-4.45,1.37-8.98.14-13.14-1.84l-8.05-5.13c-4.96-3.17-13.76-5.77-18.42-14.31-.82-1.51-1.22-3.13-.56-4.95,1.57,3.16,3.87,5.71,6.43,8.23,3.17,3.14,6.24,6.29,10.67,7.93-2.67-3.85-5.85-6.73-7.83-10.97ZM139.22,209.9l7.29,5.5c6.78,5.12,12.81,8.79,20.26,2.4-.98,3.4-4.06,5.25-7.56,5.65-8.44.99-15.29-6.78-19.99-13.55ZM132.2,221.77c-3.93-.45-7.09-2.71-10.12-5.05-4.14-3.22-10.15-8.75-9.79-13.88l3.5,5.01c4.57,5.71,10.11,10.26,16.4,13.92ZM117.74,217.85c-4.05-2.78-8.87-8.39-7.8-13.46,1.88,4.86,4.94,8.7,7.8,13.46ZM151.24,281.87c-1.03-6.58-2.38-12.47-5.65-18.07,1.88.61,2.68,2.1,3.92,3.63,2.21,4.45,3.43,9.49,1.73,14.44ZM153.45,314.98l-.35,4.49c-1.54-4.7-1.09-9.6,1.57-14.12l-1.23,9.63ZM153.87,301.06c-.35-3.67.12-7.02.98-10.5,1.28-5.16,2.16-10.2,2.32-15.55.12-4.1-1.12-7.62-1.87-11.73,7.06,11.94,2.92,25.46-1.43,37.78ZM165.34,277.48c-.52,3.02-1.05,5.83-3.1,8.73l.37-9.52c.2-5.06.17-9.97-.95-14.92-.68-4.6-2.43-8.56-4.52-12.79,2.96,1.97,4.34,4.92,5.81,7.97,2.54,6.56,3.3,13.53,2.4,20.53ZM169.27,272.5c-.15-7,.24-13.36-1.94-19.63l-2.67-7.71c-.69-2.59-1.06-5.16.13-7.59.41,2.77.74,4.96,1.9,7.18l3.29,7.51c2.01,6.6,2.05,13.86-.7,20.24ZM179.22,227.08c-1.55,4.36-1.58,8.43-.74,13.34l-2.91-5.23c-.64,9.54,3.37,17.89-.3,27.51.15-5.2.14-9.88-.91-14.87-1.24-5.92-1.06-12.05,1.16-17.69.47.09.63.68.79.83,1.53,1.4,2.89-10.31,2.98-15.65,1.25,3.77,1.31,7.87-.06,11.75ZM184.64,211.23c-.78,3.15-.61,6.09-.9,9.72-1.56-6.63-1.26-13.63-.46-20.65l.55-6.21c1.35,5.57,1.45,11.36.82,17.14ZM183.72,167.55l-3.13,16c-.66,3.33-1.44,6.36-2.36,9.58l.93,5.83c.33,2.08-.04,4.05-1.01,6.05l-1.21-9.35-5.1,7.58c-2.03,3.02,5.1,9.66-.55,20.6-1.8,3.5-4.25,6.26-7.88,7.79-3.16,1.33-6.44,1.61-9.45-.17,4.02-.21,7.73-.56,10.94-2.77,5.15-3.54,7.28-9.42,6.9-15.53-.24-4-2.09-6.99-5.82-8.62-2.5-1.08-5.33-1.59-7.73-.07,2.63.68,4.95,2.25,4.87,4.9-.09,3.29-3.63,4.97-6.64,3.99-3.03-.98-5.68-2.6-8.22-4.58-5.9-4.6-12.08-8.43-19-11.3-3.2-1.33-6.25-1.86-9.63-2.42-1.96-.33-3.96-1.51-6.01-.71.08.2-.09.85-.56.77-3.32-.56-6.4.4-9.06,2.86-2.88-2.74-6.57-3.54-10.53-2.6.14-.51.59-.81.85-1.06-2.38-.63-4.32.68-6.46.99-3.53.52-6.74,1.24-10.12,2.68-6.31,2.71-11.85,6.43-17.38,10.51-4.07,3-9.63,6.7-13.09,4.27-1.44-1.01-2.34-2.61-1.94-4.54.47-2.33,2.56-3,4.93-3.95-4.76-2.03-11.44.33-13.15,5.64-2.33,7.2,1.74,17.5,7.23,19.1,1.97.58,3.9.54,5.95.09l-2.22-1.58c6.72.27,13.94-4.19,18.98-9.13l11.37-11.11-6.86,10.21c3.94-1.52,6.86-4.26,9.75-7.18,2.58-2.61,4.95-5.26,6.5-8.64,1.22,2.4.23,4.77-1.31,6.73-4.34,5.5-10.29,9.12-16.62,12.1l-6.01,3.92c-3.64,2.38-7.39,3.62-11.95,4.2l3.01,2.14c-3.79,2.93-8.56,2.47-12.33-.35-7.16-5.35-9.71-14.92-6.27-23.27.63-1.53.7-3.23-.23-4.56l-4.57-6.52c-1.29,2.61-.92,5.45-1.5,8.59-1.9-5.13.55-10.21-.15-12.24-.87-2.54-1.63-4.94-1.99-7.62-.63-4.54-1.55-8.83-2.63-13.29-1.39-5.73-1.6-11.43-1.99-17.29l-.59-8.89c-.04-.56-.02-1.83.8-1.91,1.19-.13,3.29,1.02,3.49,2.28.39,2.43.13,4.58.77,6.89,5.28,18.88,25.83,24.87,44.01,20.94,13.71-2.95,25.41-13.04,24.16-27.65,1.11-1.16,2.49-1.53,3.99-1.74,4.4-.63,10.34-.78,12.42,2.37-.61,12.3,8.08,21.46,19.31,25.44,15.65,5.55,35.92,3.09,45.43-11.51,3.03-4.64,4.41-9.8,4.13-15.3,1.3-.91,2.33-1.75,4.18-1.81-.02,8.2-.09,16.2-1.66,24.18ZM69.44,208.43c-2.17,4.53-5.57,8.08-9.18,11.17-2.75,2.37-6.09,3.86-9.98,3.95-3.84.07-7.32-1.8-8.46-5.31,7.06,5.61,13.51,2.18,19.64-3.03l7.98-6.78ZM188.48,199.04l-.86-13.15c2.42,3.64,2.61,8.03.86,13.15ZM187.35,173.2l1.47-7.71c1.77-9.23-1.09-18.35,1.49-19.5,1.13-.51,2.5,1.55,2.58,4.11l.36,10.89c.17,4.79-1.9,9.14-5.89,12.21ZM141.42,134.69l-5.11,6.09c-.52.62-.85,1.61-.26,2.28.76.85,1.65,1.31,3.02,1.46-.02-2.2,1.02-3.42,2.2-4.78l4.64-5.34c-1.5-.23-2.92.04-4.49.28ZM138.32,134.78c-1.72.02-4.28-.02-5.75,1l-6.57,7.53c.6,1.83,1.68,3,2.58,4.52l-4.27,7.27c-.12.2.28.74.47.73.14-.01.5-.23.76-.48l7.77-7.62-2.35-3.92,7.35-9.01ZM55.21,134.93l-4.53,5.09c-.51.57-1.39,1.73-1.15,2.44.46,1.41,2.24,2.04,3.45,1.92-.03-2.01.5-2.65,1.32-3.56l5.5-6.37c-1.37.03-3.45-.32-4.58.48ZM52.19,134.62l-5.38.67c-2.54,2.54-4.98,5.13-7.08,8.01.51,1.79,1.66,2.93,2.67,4.46l-4.13,6.61c-.31.51.17,1.46.39,1.25l8.46-8.02-2.41-3.89,7.48-9.11ZM138.32,134.78c-1.72.02-4.28-.02-5.75,1l-6.57,7.53c.6,1.83,1.68,3,2.58,4.52l-4.27,7.27c-.12.2.28.74.47.73.14-.01.5-.23.76-.48l7.77-7.62-2.35-3.92,7.35-9.01ZM141.42,134.69l-5.11,6.09c-.52.62-.85,1.61-.26,2.28.76.85,1.65,1.31,3.02,1.46-.02-2.2,1.02-3.42,2.2-4.78l4.64-5.34c-1.5-.23-2.92.04-4.49.28ZM52.19,134.62l-5.38.67c-2.54,2.54-4.98,5.13-7.08,8.01.51,1.79,1.66,2.93,2.67,4.46l-4.13,6.61c-.31.51.17,1.46.39,1.25l8.46-8.02-2.41-3.89,7.48-9.11ZM55.21,134.93l-4.53,5.09c-.51.57-1.39,1.73-1.15,2.44.46,1.41,2.24,2.04,3.45,1.92-.03-2.01.5-2.65,1.32-3.56l5.5-6.37c-1.37.03-3.45-.32-4.58.48ZM141.42,134.69l-5.11,6.09c-.52.62-.85,1.61-.26,2.28.76.85,1.65,1.31,3.02,1.46-.02-2.2,1.02-3.42,2.2-4.78l4.64-5.34c-1.5-.23-2.92.04-4.49.28ZM138.32,134.78c-1.72.02-4.28-.02-5.75,1l-6.57,7.53c.6,1.83,1.68,3,2.58,4.52l-4.27,7.27c-.12.2.28.74.47.73.14-.01.5-.23.76-.48l7.77-7.62-2.35-3.92,7.35-9.01ZM55.21,134.93l-4.53,5.09c-.51.57-1.39,1.73-1.15,2.44.46,1.41,2.24,2.04,3.45,1.92-.03-2.01.5-2.65,1.32-3.56l5.5-6.37c-1.37.03-3.45-.32-4.58.48ZM52.19,134.62l-5.38.67c-2.54,2.54-4.98,5.13-7.08,8.01.51,1.79,1.66,2.93,2.67,4.46l-4.13,6.61c-.31.51.17,1.46.39,1.25l8.46-8.02-2.41-3.89,7.48-9.11ZM138.32,134.78c-1.72.02-4.28-.02-5.75,1l-6.57,7.53c.6,1.83,1.68,3,2.58,4.52l-4.27,7.27c-.12.2.28.74.47.73.14-.01.5-.23.76-.48l7.77-7.62-2.35-3.92,7.35-9.01ZM141.42,134.69l-5.11,6.09c-.52.62-.85,1.61-.26,2.28.76.85,1.65,1.31,3.02,1.46-.02-2.2,1.02-3.42,2.2-4.78l4.64-5.34c-1.5-.23-2.92.04-4.49.28ZM52.19,134.62l-5.38.67c-2.54,2.54-4.98,5.13-7.08,8.01.51,1.79,1.66,2.93,2.67,4.46l-4.13,6.61c-.31.51.17,1.46.39,1.25l8.46-8.02-2.41-3.89,7.48-9.11ZM55.21,134.93l-4.53,5.09c-.51.57-1.39,1.73-1.15,2.44.46,1.41,2.24,2.04,3.45,1.92-.03-2.01.5-2.65,1.32-3.56l5.5-6.37c-1.37.03-3.45-.32-4.58.48ZM141.42,134.69l-5.11,6.09c-.52.62-.85,1.61-.26,2.28.76.85,1.65,1.31,3.02,1.46-.02-2.2,1.02-3.42,2.2-4.78l4.64-5.34c-1.5-.23-2.92.04-4.49.28ZM138.32,134.78c-1.72.02-4.28-.02-5.75,1l-6.57,7.53c.6,1.83,1.68,3,2.58,4.52l-4.27,7.27c-.12.2.28.74.47.73.14-.01.5-.23.76-.48l7.77-7.62-2.35-3.92,7.35-9.01ZM55.21,134.93l-4.53,5.09c-.51.57-1.39,1.73-1.15,2.44.46,1.41,2.24,2.04,3.45,1.92-.03-2.01.5-2.65,1.32-3.56l5.5-6.37c-1.37.03-3.45-.32-4.58.48ZM52.19,134.62l-5.38.67c-2.54,2.54-4.98,5.13-7.08,8.01.51,1.79,1.66,2.93,2.67,4.46l-4.13,6.61c-.31.51.17,1.46.39,1.25l8.46-8.02-2.41-3.89,7.48-9.11ZM138.32,134.78c-1.72.02-4.28-.02-5.75,1l-6.57,7.53c.6,1.83,1.68,3,2.58,4.52l-4.27,7.27c-.12.2.28.74.47.73.14-.01.5-.23.76-.48l7.77-7.62-2.35-3.92,7.35-9.01ZM141.42,134.69l-5.11,6.09c-.52.62-.85,1.61-.26,2.28.76.85,1.65,1.31,3.02,1.46-.02-2.2,1.02-3.42,2.2-4.78l4.64-5.34c-1.5-.23-2.92.04-4.49.28ZM52.19,134.62l-5.38.67c-2.54,2.54-4.98,5.13-7.08,8.01.51,1.79,1.66,2.93,2.67,4.46l-4.13,6.61c-.31.51.17,1.46.39,1.25l8.46-8.02-2.41-3.89,7.48-9.11ZM55.21,134.93l-4.53,5.09c-.51.57-1.39,1.73-1.15,2.44.46,1.41,2.24,2.04,3.45,1.92-.03-2.01.5-2.65,1.32-3.56l5.5-6.37c-1.37.03-3.45-.32-4.58.48ZM141.42,134.69l-5.11,6.09c-.52.62-.85,1.61-.26,2.28.76.85,1.65,1.31,3.02,1.46-.02-2.2,1.02-3.42,2.2-4.78l4.64-5.34c-1.5-.23-2.92.04-4.49.28ZM138.32,134.78c-1.72.02-4.28-.02-5.75,1l-6.57,7.53c.6,1.83,1.68,3,2.58,4.52l-4.27,7.27c-.12.2.28.74.47.73.14-.01.5-.23.76-.48l7.77-7.62-2.35-3.92,7.35-9.01ZM55.21,134.93l-4.53,5.09c-.51.57-1.39,1.73-1.15,2.44.46,1.41,2.24,2.04,3.45,1.92-.03-2.01.5-2.65,1.32-3.56l5.5-6.37c-1.37.03-3.45-.32-4.58.48ZM52.19,134.62l-5.38.67c-2.54,2.54-4.98,5.13-7.08,8.01.51,1.79,1.66,2.93,2.67,4.46l-4.13,6.61c-.31.51.17,1.46.39,1.25l8.46-8.02-2.41-3.89,7.48-9.11ZM138.32,134.78c-1.72.02-4.28-.02-5.75,1l-6.57,7.53c.6,1.83,1.68,3,2.58,4.52l-4.27,7.27c-.12.2.28.74.47.73.14-.01.5-.23.76-.48l7.77-7.62-2.35-3.92,7.35-9.01ZM141.42,134.69l-5.11,6.09c-.52.62-.85,1.61-.26,2.28.76.85,1.65,1.31,3.02,1.46-.02-2.2,1.02-3.42,2.2-4.78l4.64-5.34c-1.5-.23-2.92.04-4.49.28ZM52.19,134.62l-5.38.67c-2.54,2.54-4.98,5.13-7.08,8.01.51,1.79,1.66,2.93,2.67,4.46l-4.13,6.61c-.31.51.17,1.46.39,1.25l8.46-8.02-2.41-3.89,7.48-9.11ZM55.21,134.93l-4.53,5.09c-.51.57-1.39,1.73-1.15,2.44.46,1.41,2.24,2.04,3.45,1.92-.03-2.01.5-2.65,1.32-3.56l5.5-6.37c-1.37.03-3.45-.32-4.58.48ZM141.42,134.69l-5.11,6.09c-.52.62-.85,1.61-.26,2.28.76.85,1.65,1.31,3.02,1.46-.02-2.2,1.02-3.42,2.2-4.78l4.64-5.34c-1.5-.23-2.92.04-4.49.28ZM138.32,134.78c-1.72.02-4.28-.02-5.75,1l-6.57,7.53c.6,1.83,1.68,3,2.58,4.52l-4.27,7.27c-.12.2.28.74.47.73.14-.01.5-.23.76-.48l7.77-7.62-2.35-3.92,7.35-9.01ZM55.21,134.93l-4.53,5.09c-.51.57-1.39,1.73-1.15,2.44.46,1.41,2.24,2.04,3.45,1.92-.03-2.01.5-2.65,1.32-3.56l5.5-6.37c-1.37.03-3.45-.32-4.58.48ZM52.19,134.62l-5.38.67c-2.54,2.54-4.98,5.13-7.08,8.01.51,1.79,1.66,2.93,2.67,4.46l-4.13,6.61c-.31.51.17,1.46.39,1.25l8.46-8.02-2.41-3.89,7.48-9.11ZM138.32,134.78c-1.72.02-4.28-.02-5.75,1l-6.57,7.53c.6,1.83,1.68,3,2.58,4.52l-4.27,7.27c-.12.2.28.74.47.73.14-.01.5-.23.76-.48l7.77-7.62-2.35-3.92,7.35-9.01ZM141.42,134.69l-5.11,6.09c-.52.62-.85,1.61-.26,2.28.76.85,1.65,1.31,3.02,1.46-.02-2.2,1.02-3.42,2.2-4.78l4.64-5.34c-1.5-.23-2.92.04-4.49.28ZM52.19,134.62l-5.38.67c-2.54,2.54-4.98,5.13-7.08,8.01.51,1.79,1.66,2.93,2.67,4.46l-4.13,6.61c-.31.51.17,1.46.39,1.25l8.46-8.02-2.41-3.89,7.48-9.11ZM55.21,134.93l-4.53,5.09c-.51.57-1.39,1.73-1.15,2.44.46,1.41,2.24,2.04,3.45,1.92-.03-2.01.5-2.65,1.32-3.56l5.5-6.37c-1.37.03-3.45-.32-4.58.48ZM141.42,134.69l-5.11,6.09c-.52.62-.85,1.61-.26,2.28.76.85,1.65,1.31,3.02,1.46-.02-2.2,1.02-3.42,2.2-4.78l4.64-5.34c-1.5-.23-2.92.04-4.49.28ZM138.32,134.78c-1.72.02-4.28-.02-5.75,1l-6.57,7.53c.6,1.83,1.68,3,2.58,4.52l-4.27,7.27c-.12.2.28.74.47.73.14-.01.5-.23.76-.48l7.77-7.62-2.35-3.92,7.35-9.01ZM55.21,134.93l-4.53,5.09c-.51.57-1.39,1.73-1.15,2.44.46,1.41,2.24,2.04,3.45,1.92-.03-2.01.5-2.65,1.32-3.56l5.5-6.37c-1.37.03-3.45-.32-4.58.48ZM52.19,134.62l-5.38.67c-2.54,2.54-4.98,5.13-7.08,8.01.51,1.79,1.66,2.93,2.67,4.46l-4.13,6.61c-.31.51.17,1.46.39,1.25l8.46-8.02-2.41-3.89,7.48-9.11ZM138.32,134.78c-1.72.02-4.28-.02-5.75,1l-6.57,7.53c.6,1.83,1.68,3,2.58,4.52l-4.27,7.27c-.12.2.28.74.47.73.14-.01.5-.23.76-.48l7.77-7.62-2.35-3.92,7.35-9.01ZM141.42,134.69l-5.11,6.09c-.52.62-.85,1.61-.26,2.28.76.85,1.65,1.31,3.02,1.46-.02-2.2,1.02-3.42,2.2-4.78l4.64-5.34c-1.5-.23-2.92.04-4.49.28ZM52.19,134.62l-5.38.67c-2.54,2.54-4.98,5.13-7.08,8.01.51,1.79,1.66,2.93,2.67,4.46l-4.13,6.61c-.31.51.17,1.46.39,1.25l8.46-8.02-2.41-3.89,7.48-9.11ZM55.21,134.93l-4.53,5.09c-.51.57-1.39,1.73-1.15,2.44.46,1.41,2.24,2.04,3.45,1.92-.03-2.01.5-2.65,1.32-3.56l5.5-6.37c-1.37.03-3.45-.32-4.58.48ZM141.42,134.69l-5.11,6.09c-.52.62-.85,1.61-.26,2.28.76.85,1.65,1.31,3.02,1.46-.02-2.2,1.02-3.42,2.2-4.78l4.64-5.34c-1.5-.23-2.92.04-4.49.28ZM138.32,134.78c-1.72.02-4.28-.02-5.75,1l-6.57,7.53c.6,1.83,1.68,3,2.58,4.52l-4.27,7.27c-.12.2.28.74.47.73.14-.01.5-.23.76-.48l7.77-7.62-2.35-3.92,7.35-9.01ZM55.21,134.93l-4.53,5.09c-.51.57-1.39,1.73-1.15,2.44.46,1.41,2.24,2.04,3.45,1.92-.03-2.01.5-2.65,1.32-3.56l5.5-6.37c-1.37.03-3.45-.32-4.58.48ZM52.19,134.62l-5.38.67c-2.54,2.54-4.98,5.13-7.08,8.01.51,1.79,1.66,2.93,2.67,4.46l-4.13,6.61c-.31.51.17,1.46.39,1.25l8.46-8.02-2.41-3.89,7.48-9.11ZM138.32,134.78c-1.72.02-4.28-.02-5.75,1l-6.57,7.53c.6,1.83,1.68,3,2.58,4.52l-4.27,7.27c-.12.2.28.74.47.73.14-.01.5-.23.76-.48l7.77-7.62-2.35-3.92,7.35-9.01ZM141.42,134.69l-5.11,6.09c-.52.62-.85,1.61-.26,2.28.76.85,1.65,1.31,3.02,1.46-.02-2.2,1.02-3.42,2.2-4.78l4.64-5.34c-1.5-.23-2.92.04-4.49.28ZM52.19,134.62l-5.38.67c-2.54,2.54-4.98,5.13-7.08,8.01.51,1.79,1.66,2.93,2.67,4.46l-4.13,6.61c-.31.51.17,1.46.39,1.25l8.46-8.02-2.41-3.89,7.48-9.11ZM55.21,134.93l-4.53,5.09c-.51.57-1.39,1.73-1.15,2.44.46,1.41,2.24,2.04,3.45,1.92-.03-2.01.5-2.65,1.32-3.56l5.5-6.37c-1.37.03-3.45-.32-4.58.48ZM141.42,134.69l-5.11,6.09c-.52.62-.85,1.61-.26,2.28.76.85,1.65,1.31,3.02,1.46-.02-2.2,1.02-3.42,2.2-4.78l4.64-5.34c-1.5-.23-2.92.04-4.49.28ZM138.32,134.78c-1.72.02-4.28-.02-5.75,1l-6.57,7.53c.6,1.83,1.68,3,2.58,4.52l-4.27,7.27c-.12.2.28.74.47.73.14-.01.5-.23.76-.48l7.77-7.62-2.35-3.92,7.35-9.01ZM55.21,134.93l-4.53,5.09c-.51.57-1.39,1.73-1.15,2.44.46,1.41,2.24,2.04,3.45,1.92-.03-2.01.5-2.65,1.32-3.56l5.5-6.37c-1.37.03-3.45-.32-4.58.48ZM52.19,134.62l-5.38.67c-2.54,2.54-4.98,5.13-7.08,8.01.51,1.79,1.66,2.93,2.67,4.46l-4.13,6.61c-.31.51.17,1.46.39,1.25l8.46-8.02-2.41-3.89,7.48-9.11ZM138.32,134.78c-1.72.02-4.28-.02-5.75,1l-6.57,7.53c.6,1.83,1.68,3,2.58,4.52l-4.27,7.27c-.12.2.28.74.47.73.14-.01.5-.23.76-.48l7.77-7.62-2.35-3.92,7.35-9.01ZM141.42,134.69l-5.11,6.09c-.52.62-.85,1.61-.26,2.28.76.85,1.65,1.31,3.02,1.46-.02-2.2,1.02-3.42,2.2-4.78l4.64-5.34c-1.5-.23-2.92.04-4.49.28ZM52.19,134.62l-5.38.67c-2.54,2.54-4.98,5.13-7.08,8.01.51,1.79,1.66,2.93,2.67,4.46l-4.13,6.61c-.31.51.17,1.46.39,1.25l8.46-8.02-2.41-3.89,7.48-9.11ZM55.21,134.93l-4.53,5.09c-.51.57-1.39,1.73-1.15,2.44.46,1.41,2.24,2.04,3.45,1.92-.03-2.01.5-2.65,1.32-3.56l5.5-6.37c-1.37.03-3.45-.32-4.58.48ZM141.42,134.69l-5.11,6.09c-.52.62-.85,1.61-.26,2.28.76.85,1.65,1.31,3.02,1.46-.02-2.2,1.02-3.42,2.2-4.78l4.64-5.34c-1.5-.23-2.92.04-4.49.28ZM138.32,134.78c-1.72.02-4.28-.02-5.75,1l-6.57,7.53c.6,1.83,1.68,3,2.58,4.52l-4.27,7.27c-.12.2.28.74.47.73.14-.01.5-.23.76-.48l7.77-7.62-2.35-3.92,7.35-9.01ZM55.21,134.93l-4.53,5.09c-.51.57-1.39,1.73-1.15,2.44.46,1.41,2.24,2.04,3.45,1.92-.03-2.01.5-2.65,1.32-3.56l5.5-6.37c-1.37.03-3.45-.32-4.58.48ZM52.19,134.62l-5.38.67c-2.54,2.54-4.98,5.13-7.08,8.01.51,1.79,1.66,2.93,2.67,4.46l-4.13,6.61c-.31.51.17,1.46.39,1.25l8.46-8.02-2.41-3.89,7.48-9.11ZM138.32,134.78c-1.72.02-4.28-.02-5.75,1l-6.57,7.53c.6,1.83,1.68,3,2.58,4.52l-4.27,7.27c-.12.2.28.74.47.73.14-.01.5-.23.76-.48l7.77-7.62-2.35-3.92,7.35-9.01ZM141.42,134.69l-5.11,6.09c-.52.62-.85,1.61-.26,2.28.76.85,1.65,1.31,3.02,1.46-.02-2.2,1.02-3.42,2.2-4.78l4.64-5.34c-1.5-.23-2.92.04-4.49.28ZM52.19,134.62l-5.38.67c-2.54,2.54-4.98,5.13-7.08,8.01.51,1.79,1.66,2.93,2.67,4.46l-4.13,6.61c-.31.51.17,1.46.39,1.25l8.46-8.02-2.41-3.89,7.48-9.11ZM55.21,134.93l-4.53,5.09c-.51.57-1.39,1.73-1.15,2.44.46,1.41,2.24,2.04,3.45,1.92-.03-2.01.5-2.65,1.32-3.56l5.5-6.37c-1.37.03-3.45-.32-4.58.48ZM141.42,134.69l-5.11,6.09c-.52.62-.85,1.61-.26,2.28.76.85,1.65,1.31,3.02,1.46-.02-2.2,1.02-3.42,2.2-4.78l4.64-5.34c-1.5-.23-2.92.04-4.49.28ZM138.32,134.78c-1.72.02-4.28-.02-5.75,1l-6.57,7.53c.6,1.83,1.68,3,2.58,4.52l-4.27,7.27c-.12.2.28.74.47.73.14-.01.5-.23.76-.48l7.77-7.62-2.35-3.92,7.35-9.01ZM55.21,134.93l-4.53,5.09c-.51.57-1.39,1.73-1.15,2.44.46,1.41,2.24,2.04,3.45,1.92-.03-2.01.5-2.65,1.32-3.56l5.5-6.37c-1.37.03-3.45-.32-4.58.48ZM52.19,134.62l-5.38.67c-2.54,2.54-4.98,5.13-7.08,8.01.51,1.79,1.66,2.93,2.67,4.46l-4.13,6.61c-.31.51.17,1.46.39,1.25l8.46-8.02-2.41-3.89,7.48-9.11ZM138.32,134.78c-1.72.02-4.28-.02-5.75,1l-6.57,7.53c.6,1.83,1.68,3,2.58,4.52l-4.27,7.27c-.12.2.28.74.47.73.14-.01.5-.23.76-.48l7.77-7.62-2.35-3.92,7.35-9.01ZM141.42,134.69l-5.11,6.09c-.52.62-.85,1.61-.26,2.28.76.85,1.65,1.31,3.02,1.46-.02-2.2,1.02-3.42,2.2-4.78l4.64-5.34c-1.5-.23-2.92.04-4.49.28ZM52.19,134.62l-5.38.67c-2.54,2.54-4.98,5.13-7.08,8.01.51,1.79,1.66,2.93,2.67,4.46l-4.13,6.61c-.31.51.17,1.46.39,1.25l8.46-8.02-2.41-3.89,7.48-9.11ZM55.21,134.93l-4.53,5.09c-.51.57-1.39,1.73-1.15,2.44.46,1.41,2.24,2.04,3.45,1.92-.03-2.01.5-2.65,1.32-3.56l5.5-6.37c-1.37.03-3.45-.32-4.58.48ZM141.42,134.69l-5.11,6.09c-.52.62-.85,1.61-.26,2.28.76.85,1.65,1.31,3.02,1.46-.02-2.2,1.02-3.42,2.2-4.78l4.64-5.34c-1.5-.23-2.92.04-4.49.28ZM138.32,134.78c-1.72.02-4.28-.02-5.75,1l-6.57,7.53c.6,1.83,1.68,3,2.58,4.52l-4.27,7.27c-.12.2.28.74.47.73.14-.01.5-.23.76-.48l7.77-7.62-2.35-3.92,7.35-9.01ZM55.21,134.93l-4.53,5.09c-.51.57-1.39,1.73-1.15,2.44.46,1.41,2.24,2.04,3.45,1.92-.03-2.01.5-2.65,1.32-3.56l5.5-6.37c-1.37.03-3.45-.32-4.58.48ZM52.19,134.62l-5.38.67c-2.54,2.54-4.98,5.13-7.08,8.01.51,1.79,1.66,2.93,2.67,4.46l-4.13,6.61c-.31.51.17,1.46.39,1.25l8.46-8.02-2.41-3.89,7.48-9.11ZM138.32,134.78c-1.72.02-4.28-.02-5.75,1l-6.57,7.53c.6,1.83,1.68,3,2.58,4.52l-4.27,7.27c-.12.2.28.74.47.73.14-.01.5-.23.76-.48l7.77-7.62-2.35-3.92,7.35-9.01ZM141.42,134.69l-5.11,6.09c-.52.62-.85,1.61-.26,2.28.76.85,1.65,1.31,3.02,1.46-.02-2.2,1.02-3.42,2.2-4.78l4.64-5.34c-1.5-.23-2.92.04-4.49.28ZM52.19,134.62l-5.38.67c-2.54,2.54-4.98,5.13-7.08,8.01.51,1.79,1.66,2.93,2.67,4.46l-4.13,6.61c-.31.51.17,1.46.39,1.25l8.46-8.02-2.41-3.89,7.48-9.11ZM55.21,134.93l-4.53,5.09c-.51.57-1.39,1.73-1.15,2.44.46,1.41,2.24,2.04,3.45,1.92-.03-2.01.5-2.65,1.32-3.56l5.5-6.37c-1.37.03-3.45-.32-4.58.48ZM141.42,134.69l-5.11,6.09c-.52.62-.85,1.61-.26,2.28.76.85,1.65,1.31,3.02,1.46-.02-2.2,1.02-3.42,2.2-4.78l4.64-5.34c-1.5-.23-2.92.04-4.49.28ZM138.32,134.78c-1.72.02-4.28-.02-5.75,1l-6.57,7.53c.6,1.83,1.68,3,2.58,4.52l-4.27,7.27c-.12.2.28.74.47.73.14-.01.5-.23.76-.48l7.77-7.62-2.35-3.92,7.35-9.01ZM55.21,134.93l-4.53,5.09c-.51.57-1.39,1.73-1.15,2.44.46,1.41,2.24,2.04,3.45,1.92-.03-2.01.5-2.65,1.32-3.56l5.5-6.37c-1.37.03-3.45-.32-4.58.48ZM52.19,134.62l-5.38.67c-2.54,2.54-4.98,5.13-7.08,8.01.51,1.79,1.66,2.93,2.67,4.46l-4.13,6.61c-.31.51.17,1.46.39,1.25l8.46-8.02-2.41-3.89,7.48-9.11ZM138.32,134.78c-1.72.02-4.28-.02-5.75,1l-6.57,7.53c.6,1.83,1.68,3,2.58,4.52l-4.27,7.27c-.12.2.28.74.47.73.14-.01.5-.23.76-.48l7.77-7.62-2.35-3.92,7.35-9.01ZM141.42,134.69l-5.11,6.09c-.52.62-.85,1.61-.26,2.28.76.85,1.65,1.31,3.02,1.46-.02-2.2,1.02-3.42,2.2-4.78l4.64-5.34c-1.5-.23-2.92.04-4.49.28ZM52.19,134.62l-5.38.67c-2.54,2.54-4.98,5.13-7.08,8.01.51,1.79,1.66,2.93,2.67,4.46l-4.13,6.61c-.31.51.17,1.46.39,1.25l8.46-8.02-2.41-3.89,7.48-9.11ZM55.21,134.93l-4.53,5.09c-.51.57-1.39,1.73-1.15,2.44.46,1.41,2.24,2.04,3.45,1.92-.03-2.01.5-2.65,1.32-3.56l5.5-6.37c-1.37.03-3.45-.32-4.58.48ZM141.42,134.69l-5.11,6.09c-.52.62-.85,1.61-.26,2.28.76.85,1.65,1.31,3.02,1.46-.02-2.2,1.02-3.42,2.2-4.78l4.64-5.34c-1.5-.23-2.92.04-4.49.28ZM138.32,134.78c-1.72.02-4.28-.02-5.75,1l-6.57,7.53c.6,1.83,1.68,3,2.58,4.52l-4.27,7.27c-.12.2.28.74.47.73.14-.01.5-.23.76-.48l7.77-7.62-2.35-3.92,7.35-9.01ZM55.21,134.93l-4.53,5.09c-.51.57-1.39,1.73-1.15,2.44.46,1.41,2.24,2.04,3.45,1.92-.03-2.01.5-2.65,1.32-3.56l5.5-6.37c-1.37.03-3.45-.32-4.58.48ZM52.19,134.62l-5.38.67c-2.54,2.54-4.98,5.13-7.08,8.01.51,1.79,1.66,2.93,2.67,4.46l-4.13,6.61c-.31.51.17,1.46.39,1.25l8.46-8.02-2.41-3.89,7.48-9.11ZM138.32,134.78c-1.72.02-4.28-.02-5.75,1l-6.57,7.53c.6,1.83,1.68,3,2.58,4.52l-4.27,7.27c-.12.2.28.74.47.73.14-.01.5-.23.76-.48l7.77-7.62-2.35-3.92,7.35-9.01ZM141.42,134.69l-5.11,6.09c-.52.62-.85,1.61-.26,2.28.76.85,1.65,1.31,3.02,1.46-.02-2.2,1.02-3.42,2.2-4.78l4.64-5.34c-1.5-.23-2.92.04-4.49.28ZM52.19,134.62l-5.38.67c-2.54,2.54-4.98,5.13-7.08,8.01.51,1.79,1.66,2.93,2.67,4.46l-4.13,6.61c-.31.51.17,1.46.39,1.25l8.46-8.02-2.41-3.89,7.48-9.11ZM55.21,134.93l-4.53,5.09c-.51.57-1.39,1.73-1.15,2.44.46,1.41,2.24,2.04,3.45,1.92-.03-2.01.5-2.65,1.32-3.56l5.5-6.37c-1.37.03-3.45-.32-4.58.48ZM141.42,134.69l-5.11,6.09c-.52.62-.85,1.61-.26,2.28.76.85,1.65,1.31,3.02,1.46-.02-2.2,1.02-3.42,2.2-4.78l4.64-5.34c-1.5-.23-2.92.04-4.49.28ZM138.32,134.78c-1.72.02-4.28-.02-5.75,1l-6.57,7.53c.6,1.83,1.68,3,2.58,4.52l-4.27,7.27c-.12.2.28.74.47.73.14-.01.5-.23.76-.48l7.77-7.62-2.35-3.92,7.35-9.01ZM55.21,134.93l-4.53,5.09c-.51.57-1.39,1.73-1.15,2.44.46,1.41,2.24,2.04,3.45,1.92-.03-2.01.5-2.65,1.32-3.56l5.5-6.37c-1.37.03-3.45-.32-4.58.48ZM52.19,134.62l-5.38.67c-2.54,2.54-4.98,5.13-7.08,8.01.51,1.79,1.66,2.93,2.67,4.46l-4.13,6.61c-.31.51.17,1.46.39,1.25l8.46-8.02-2.41-3.89,7.48-9.11ZM138.32,134.78c-1.72.02-4.28-.02-5.75,1l-6.57,7.53c.6,1.83,1.68,3,2.58,4.52l-4.27,7.27c-.12.2.28.74.47.73.14-.01.5-.23.76-.48l7.77-7.62-2.35-3.92,7.35-9.01ZM141.42,134.69l-5.11,6.09c-.52.62-.85,1.61-.26,2.28.76.85,1.65,1.31,3.02,1.46-.02-2.2,1.02-3.42,2.2-4.78l4.64-5.34c-1.5-.23-2.92.04-4.49.28ZM52.19,134.62l-5.38.67c-2.54,2.54-4.98,5.13-7.08,8.01.51,1.79,1.66,2.93,2.67,4.46l-4.13,6.61c-.31.51.17,1.46.39,1.25l8.46-8.02-2.41-3.89,7.48-9.11ZM55.21,134.93l-4.53,5.09c-.51.57-1.39,1.73-1.15,2.44.46,1.41,2.24,2.04,3.45,1.92-.03-2.01.5-2.65,1.32-3.56l5.5-6.37c-1.37.03-3.45-.32-4.58.48ZM141.42,134.69l-5.11,6.09c-.52.62-.85,1.61-.26,2.28.76.85,1.65,1.31,3.02,1.46-.02-2.2,1.02-3.42,2.2-4.78l4.64-5.34c-1.5-.23-2.92.04-4.49.28ZM138.32,134.78c-1.72.02-4.28-.02-5.75,1l-6.57,7.53c.6,1.83,1.68,3,2.58,4.52l-4.27,7.27c-.12.2.28.74.47.73.14-.01.5-.23.76-.48l7.77-7.62-2.35-3.92,7.35-9.01ZM55.21,134.93l-4.53,5.09c-.51.57-1.39,1.73-1.15,2.44.46,1.41,2.24,2.04,3.45,1.92-.03-2.01.5-2.65,1.32-3.56l5.5-6.37c-1.37.03-3.45-.32-4.58.48ZM52.19,134.62l-5.38.67c-2.54,2.54-4.98,5.13-7.08,8.01.51,1.79,1.66,2.93,2.67,4.46l-4.13,6.61c-.31.51.17,1.46.39,1.25l8.46-8.02-2.41-3.89,7.48-9.11ZM138.32,134.78c-1.72.02-4.28-.02-5.75,1l-6.57,7.53c.6,1.83,1.68,3,2.58,4.52l-4.27,7.27c-.12.2.28.74.47.73.14-.01.5-.23.76-.48l7.77-7.62-2.35-3.92,7.35-9.01ZM141.42,134.69l-5.11,6.09c-.52.62-.85,1.61-.26,2.28.76.85,1.65,1.31,3.02,1.46-.02-2.2,1.02-3.42,2.2-4.78l4.64-5.34c-1.5-.23-2.92.04-4.49.28ZM52.19,134.62l-5.38.67c-2.54,2.54-4.98,5.13-7.08,8.01.51,1.79,1.66,2.93,2.67,4.46l-4.13,6.61c-.31.51.17,1.46.39,1.25l8.46-8.02-2.41-3.89,7.48-9.11ZM55.21,134.93l-4.53,5.09c-.51.57-1.39,1.73-1.15,2.44.46,1.41,2.24,2.04,3.45,1.92-.03-2.01.5-2.65,1.32-3.56l5.5-6.37c-1.37.03-3.45-.32-4.58.48ZM141.42,134.69l-5.11,6.09c-.52.62-.85,1.61-.26,2.28.76.85,1.65,1.31,3.02,1.46-.02-2.2,1.02-3.42,2.2-4.78l4.64-5.34c-1.5-.23-2.92.04-4.49.28ZM138.32,134.78c-1.72.02-4.28-.02-5.75,1l-6.57,7.53c.6,1.83,1.68,3,2.58,4.52l-4.27,7.27c-.12.2.28.74.47.73.14-.01.5-.23.76-.48l7.77-7.62-2.35-3.92,7.35-9.01ZM55.21,134.93l-4.53,5.09c-.51.57-1.39,1.73-1.15,2.44.46,1.41,2.24,2.04,3.45,1.92-.03-2.01.5-2.65,1.32-3.56l5.5-6.37c-1.37.03-3.45-.32-4.58.48ZM52.19,134.62l-5.38.67c-2.54,2.54-4.98,5.13-7.08,8.01.51,1.79,1.66,2.93,2.67,4.46l-4.13,6.61c-.31.51.17,1.46.39,1.25l8.46-8.02-2.41-3.89,7.48-9.11ZM138.32,134.78c-1.72.02-4.28-.02-5.75,1l-6.57,7.53c.6,1.83,1.68,3,2.58,4.52l-4.27,7.27c-.12.2.28.74.47.73.14-.01.5-.23.76-.48l7.77-7.62-2.35-3.92,7.35-9.01ZM141.42,134.69l-5.11,6.09c-.52.62-.85,1.61-.26,2.28.76.85,1.65,1.31,3.02,1.46-.02-2.2,1.02-3.42,2.2-4.78l4.64-5.34c-1.5-.23-2.92.04-4.49.28ZM52.19,134.62l-5.38.67c-2.54,2.54-4.98,5.13-7.08,8.01.51,1.79,1.66,2.93,2.67,4.46l-4.13,6.61c-.31.51.17,1.46.39,1.25l8.46-8.02-2.41-3.89,7.48-9.11ZM55.21,134.93l-4.53,5.09c-.51.57-1.39,1.73-1.15,2.44.46,1.41,2.24,2.04,3.45,1.92-.03-2.01.5-2.65,1.32-3.56l5.5-6.37c-1.37.03-3.45-.32-4.58.48ZM141.42,134.69l-5.11,6.09c-.52.62-.85,1.61-.26,2.28.76.85,1.65,1.31,3.02,1.46-.02-2.2,1.02-3.42,2.2-4.78l4.64-5.34c-1.5-.23-2.92.04-4.49.28ZM138.32,134.78c-1.72.02-4.28-.02-5.75,1l-6.57,7.53c.6,1.83,1.68,3,2.58,4.52l-4.27,7.27c-.12.2.28.74.47.73.14-.01.5-.23.76-.48l7.77-7.62-2.35-3.92,7.35-9.01ZM55.21,134.93l-4.53,5.09c-.51.57-1.39,1.73-1.15,2.44.46,1.41,2.24,2.04,3.45,1.92-.03-2.01.5-2.65,1.32-3.56l5.5-6.37c-1.37.03-3.45-.32-4.58.48ZM52.19,134.62l-5.38.67c-2.54,2.54-4.98,5.13-7.08,8.01.51,1.79,1.66,2.93,2.67,4.46l-4.13,6.61c-.31.51.17,1.46.39,1.25l8.46-8.02-2.41-3.89,7.48-9.11ZM138.32,134.78c-1.72.02-4.28-.02-5.75,1l-6.57,7.53c.6,1.83,1.68,3,2.58,4.52l-4.27,7.27c-.12.2.28.74.47.73.14-.01.5-.23.76-.48l7.77-7.62-2.35-3.92,7.35-9.01ZM141.42,134.69l-5.11,6.09c-.52.62-.85,1.61-.26,2.28.76.85,1.65,1.31,3.02,1.46-.02-2.2,1.02-3.42,2.2-4.78l4.64-5.34c-1.5-.23-2.92.04-4.49.28ZM52.19,134.62l-5.38.67c-2.54,2.54-4.98,5.13-7.08,8.01.51,1.79,1.66,2.93,2.67,4.46l-4.13,6.61c-.31.51.17,1.46.39,1.25l8.46-8.02-2.41-3.89,7.48-9.11ZM55.21,134.93l-4.53,5.09c-.51.57-1.39,1.73-1.15,2.44.46,1.41,2.24,2.04,3.45,1.92-.03-2.01.5-2.65,1.32-3.56l5.5-6.37c-1.37.03-3.45-.32-4.58.48ZM141.42,134.69l-5.11,6.09c-.52.62-.85,1.61-.26,2.28.76.85,1.65,1.31,3.02,1.46-.02-2.2,1.02-3.42,2.2-4.78l4.64-5.34c-1.5-.23-2.92.04-4.49.28ZM138.32,134.78c-1.72.02-4.28-.02-5.75,1l-6.57,7.53c.6,1.83,1.68,3,2.58,4.52l-4.27,7.27c-.12.2.28.74.47.73.14-.01.5-.23.76-.48l7.77-7.62-2.35-3.92,7.35-9.01ZM55.21,134.93l-4.53,5.09c-.51.57-1.39,1.73-1.15,2.44.46,1.41,2.24,2.04,3.45,1.92-.03-2.01.5-2.65,1.32-3.56l5.5-6.37c-1.37.03-3.45-.32-4.58.48ZM52.19,134.62l-5.38.67c-2.54,2.54-4.98,5.13-7.08,8.01.51,1.79,1.66,2.93,2.67,4.46l-4.13,6.61c-.31.51.17,1.46.39,1.25l8.46-8.02-2.41-3.89,7.48-9.11ZM138.32,134.78c-1.72.02-4.28-.02-5.75,1l-6.57,7.53c.6,1.83,1.68,3,2.58,4.52l-4.27,7.27c-.12.2.28.74.47.73.14-.01.5-.23.76-.48l7.77-7.62-2.35-3.92,7.35-9.01ZM141.42,134.69l-5.11,6.09c-.52.62-.85,1.61-.26,2.28.76.85,1.65,1.31,3.02,1.46-.02-2.2,1.02-3.42,2.2-4.78l4.64-5.34c-1.5-.23-2.92.04-4.49.28ZM52.19,134.62l-5.38.67c-2.54,2.54-4.98,5.13-7.08,8.01.51,1.79,1.66,2.93,2.67,4.46l-4.13,6.61c-.31.51.17,1.46.39,1.25l8.46-8.02-2.41-3.89,7.48-9.11ZM55.21,134.93l-4.53,5.09c-.51.57-1.39,1.73-1.15,2.44.46,1.41,2.24,2.04,3.45,1.92-.03-2.01.5-2.65,1.32-3.56l5.5-6.37c-1.37.03-3.45-.32-4.58.48ZM141.42,134.69l-5.11,6.09c-.52.62-.85,1.61-.26,2.28.76.85,1.65,1.31,3.02,1.46-.02-2.2,1.02-3.42,2.2-4.78l4.64-5.34c-1.5-.23-2.92.04-4.49.28ZM138.32,134.78c-1.72.02-4.28-.02-5.75,1l-6.57,7.53c.6,1.83,1.68,3,2.58,4.52l-4.27,7.27c-.12.2.28.74.47.73.14-.01.5-.23.76-.48l7.77-7.62-2.35-3.92,7.35-9.01ZM55.21,134.93l-4.53,5.09c-.51.57-1.39,1.73-1.15,2.44.46,1.41,2.24,2.04,3.45,1.92-.03-2.01.5-2.65,1.32-3.56l5.5-6.37c-1.37.03-3.45-.32-4.58.48ZM52.19,134.62l-5.38.67c-2.54,2.54-4.98,5.13-7.08,8.01.51,1.79,1.66,2.93,2.67,4.46l-4.13,6.61c-.31.51.17,1.46.39,1.25l8.46-8.02-2.41-3.89,7.48-9.11ZM138.32,134.78c-1.72.02-4.28-.02-5.75,1l-6.57,7.53c.6,1.83,1.68,3,2.58,4.52l-4.27,7.27c-.12.2.28.74.47.73.14-.01.5-.23.76-.48l7.77-7.62-2.35-3.92,7.35-9.01ZM141.42,134.69l-5.11,6.09c-.52.62-.85,1.61-.26,2.28.76.85,1.65,1.31,3.02,1.46-.02-2.2,1.02-3.42,2.2-4.78l4.64-5.34c-1.5-.23-2.92.04-4.49.28ZM52.19,134.62l-5.38.67c-2.54,2.54-4.98,5.13-7.08,8.01.51,1.79,1.66,2.93,2.67,4.46l-4.13,6.61c-.31.51.17,1.46.39,1.25l8.46-8.02-2.41-3.89,7.48-9.11ZM55.21,134.93l-4.53,5.09c-.51.57-1.39,1.73-1.15,2.44.46,1.41,2.24,2.04,3.45,1.92-.03-2.01.5-2.65,1.32-3.56l5.5-6.37c-1.37.03-3.45-.32-4.58.48ZM141.42,134.69l-5.11,6.09c-.52.62-.85,1.61-.26,2.28.76.85,1.65,1.31,3.02,1.46-.02-2.2,1.02-3.42,2.2-4.78l4.64-5.34c-1.5-.23-2.92.04-4.49.28ZM138.32,134.78c-1.72.02-4.28-.02-5.75,1l-6.57,7.53c.6,1.83,1.68,3,2.58,4.52l-4.27,7.27c-.12.2.28.74.47.73.14-.01.5-.23.76-.48l7.77-7.62-2.35-3.92,7.35-9.01ZM55.21,134.93l-4.53,5.09c-.51.57-1.39,1.73-1.15,2.44.46,1.41,2.24,2.04,3.45,1.92-.03-2.01.5-2.65,1.32-3.56l5.5-6.37c-1.37.03-3.45-.32-4.58.48ZM52.19,134.62l-5.38.67c-2.54,2.54-4.98,5.13-7.08,8.01.51,1.79,1.66,2.93,2.67,4.46l-4.13,6.61c-.31.51.17,1.46.39,1.25l8.46-8.02-2.41-3.89,7.48-9.11ZM138.32,134.78c-1.72.02-4.28-.02-5.75,1l-6.57,7.53c.6,1.83,1.68,3,2.58,4.52l-4.27,7.27c-.12.2.28.74.47.73.14-.01.5-.23.76-.48l7.77-7.62-2.35-3.92,7.35-9.01ZM141.42,134.69l-5.11,6.09c-.52.62-.85,1.61-.26,2.28.76.85,1.65,1.31,3.02,1.46-.02-2.2,1.02-3.42,2.2-4.78l4.64-5.34c-1.5-.23-2.92.04-4.49.28ZM52.19,134.62l-5.38.67c-2.54,2.54-4.98,5.13-7.08,8.01.51,1.79,1.66,2.93,2.67,4.46l-4.13,6.61c-.31.51.17,1.46.39,1.25l8.46-8.02-2.41-3.89,7.48-9.11ZM55.21,134.93l-4.53,5.09c-.51.57-1.39,1.73-1.15,2.44.46,1.41,2.24,2.04,3.45,1.92-.03-2.01.5-2.65,1.32-3.56l5.5-6.37c-1.37.03-3.45-.32-4.58.48ZM141.42,134.69l-5.11,6.09c-.52.62-.85,1.61-.26,2.28.76.85,1.65,1.31,3.02,1.46-.02-2.2,1.02-3.42,2.2-4.78l4.64-5.34c-1.5-.23-2.92.04-4.49.28ZM138.32,134.78c-1.72.02-4.28-.02-5.75,1l-6.57,7.53c.6,1.83,1.68,3,2.58,4.52l-4.27,7.27c-.12.2.28.74.47.73.14-.01.5-.23.76-.48l7.77-7.62-2.35-3.92,7.35-9.01ZM55.21,134.93l-4.53,5.09c-.51.57-1.39,1.73-1.15,2.44.46,1.41,2.24,2.04,3.45,1.92-.03-2.01.5-2.65,1.32-3.56l5.5-6.37c-1.37.03-3.45-.32-4.58.48ZM52.19,134.62l-5.38.67c-2.54,2.54-4.98,5.13-7.08,8.01.51,1.79,1.66,2.93,2.67,4.46l-4.13,6.61c-.31.51.17,1.46.39,1.25l8.46-8.02-2.41-3.89,7.48-9.11ZM138.32,134.78c-1.72.02-4.28-.02-5.75,1l-6.57,7.53c.6,1.83,1.68,3,2.58,4.52l-4.27,7.27c-.12.2.28.74.47.73.14-.01.5-.23.76-.48l7.77-7.62-2.35-3.92,7.35-9.01ZM141.42,134.69l-5.11,6.09c-.52.62-.85,1.61-.26,2.28.76.85,1.65,1.31,3.02,1.46-.02-2.2,1.02-3.42,2.2-4.78l4.64-5.34c-1.5-.23-2.92.04-4.49.28ZM52.19,134.62l-5.38.67c-2.54,2.54-4.98,5.13-7.08,8.01.51,1.79,1.66,2.93,2.67,4.46l-4.13,6.61c-.31.51.17,1.46.39,1.25l8.46-8.02-2.41-3.89,7.48-9.11ZM55.21,134.93l-4.53,5.09c-.51.57-1.39,1.73-1.15,2.44.46,1.41,2.24,2.04,3.45,1.92-.03-2.01.5-2.65,1.32-3.56l5.5-6.37c-1.37.03-3.45-.32-4.58.48ZM141.42,134.69l-5.11,6.09c-.52.62-.85,1.61-.26,2.28.76.85,1.65,1.31,3.02,1.46-.02-2.2,1.02-3.42,2.2-4.78l4.64-5.34c-1.5-.23-2.92.04-4.49.28ZM138.32,134.78c-1.72.02-4.28-.02-5.75,1l-6.57,7.53c.6,1.83,1.68,3,2.58,4.52l-4.27,7.27c-.12.2.28.74.47.73.14-.01.5-.23.76-.48l7.77-7.62-2.35-3.92,7.35-9.01ZM55.21,134.93l-4.53,5.09c-.51.57-1.39,1.73-1.15,2.44.46,1.41,2.24,2.04,3.45,1.92-.03-2.01.5-2.65,1.32-3.56l5.5-6.37c-1.37.03-3.45-.32-4.58.48ZM52.19,134.62l-5.38.67c-2.54,2.54-4.98,5.13-7.08,8.01.51,1.79,1.66,2.93,2.67,4.46l-4.13,6.61c-.31.51.17,1.46.39,1.25l8.46-8.02-2.41-3.89,7.48-9.11ZM138.32,134.78c-1.72.02-4.28-.02-5.75,1l-6.57,7.53c.6,1.83,1.68,3,2.58,4.52l-4.27,7.27c-.12.2.28.74.47.73.14-.01.5-.23.76-.48l7.77-7.62-2.35-3.92,7.35-9.01ZM141.42,134.69l-5.11,6.09c-.52.62-.85,1.61-.26,2.28.76.85,1.65,1.31,3.02,1.46-.02-2.2,1.02-3.42,2.2-4.78l4.64-5.34c-1.5-.23-2.92.04-4.49.28ZM52.19,134.62l-5.38.67c-2.54,2.54-4.98,5.13-7.08,8.01.51,1.79,1.66,2.93,2.67,4.46l-4.13,6.61c-.31.51.17,1.46.39,1.25l8.46-8.02-2.41-3.89,7.48-9.11ZM55.21,134.93l-4.53,5.09c-.51.57-1.39,1.73-1.15,2.44.46,1.41,2.24,2.04,3.45,1.92-.03-2.01.5-2.65,1.32-3.56l5.5-6.37c-1.37.03-3.45-.32-4.58.48ZM141.42,134.69l-5.11,6.09c-.52.62-.85,1.61-.26,2.28.76.85,1.65,1.31,3.02,1.46-.02-2.2,1.02-3.42,2.2-4.78l4.64-5.34c-1.5-.23-2.92.04-4.49.28ZM138.32,134.78c-1.72.02-4.28-.02-5.75,1l-6.57,7.53c.6,1.83,1.68,3,2.58,4.52l-4.27,7.27c-.12.2.28.74.47.73.14-.01.5-.23.76-.48l7.77-7.62-2.35-3.92,7.35-9.01ZM55.21,134.93l-4.53,5.09c-.51.57-1.39,1.73-1.15,2.44.46,1.41,2.24,2.04,3.45,1.92-.03-2.01.5-2.65,1.32-3.56l5.5-6.37c-1.37.03-3.45-.32-4.58.48ZM52.19,134.62l-5.38.67c-2.54,2.54-4.98,5.13-7.08,8.01.51,1.79,1.66,2.93,2.67,4.46l-4.13,6.61c-.31.51.17,1.46.39,1.25l8.46-8.02-2.41-3.89,7.48-9.11ZM138.32,134.78c-1.72.02-4.28-.02-5.75,1l-6.57,7.53c.6,1.83,1.68,3,2.58,4.52l-4.27,7.27c-.12.2.28.74.47.73.14-.01.5-.23.76-.48l7.77-7.62-2.35-3.92,7.35-9.01ZM141.42,134.69l-5.11,6.09c-.52.62-.85,1.61-.26,2.28.76.85,1.65,1.31,3.02,1.46-.02-2.2,1.02-3.42,2.2-4.78l4.64-5.34c-1.5-.23-2.92.04-4.49.28ZM52.19,134.62l-5.38.67c-2.54,2.54-4.98,5.13-7.08,8.01.51,1.79,1.66,2.93,2.67,4.46l-4.13,6.61c-.31.51.17,1.46.39,1.25l8.46-8.02-2.41-3.89,7.48-9.11ZM55.21,134.93l-4.53,5.09c-.51.57-1.39,1.73-1.15,2.44.46,1.41,2.24,2.04,3.45,1.92-.03-2.01.5-2.65,1.32-3.56l5.5-6.37c-1.37.03-3.45-.32-4.58.48ZM141.42,134.69l-5.11,6.09c-.52.62-.85,1.61-.26,2.28.76.85,1.65,1.31,3.02,1.46-.02-2.2,1.02-3.42,2.2-4.78l4.64-5.34c-1.5-.23-2.92.04-4.49.28ZM138.32,134.78c-1.72.02-4.28-.02-5.75,1l-6.57,7.53c.6,1.83,1.68,3,2.58,4.52l-4.27,7.27c-.12.2.28.74.47.73.14-.01.5-.23.76-.48l7.77-7.62-2.35-3.92,7.35-9.01ZM55.21,134.93l-4.53,5.09c-.51.57-1.39,1.73-1.15,2.44.46,1.41,2.24,2.04,3.45,1.92-.03-2.01.5-2.65,1.32-3.56l5.5-6.37c-1.37.03-3.45-.32-4.58.48ZM52.19,134.62l-5.38.67c-2.54,2.54-4.98,5.13-7.08,8.01.51,1.79,1.66,2.93,2.67,4.46l-4.13,6.61c-.31.51.17,1.46.39,1.25l8.46-8.02-2.41-3.89,7.48-9.11ZM138.32,134.78c-1.72.02-4.28-.02-5.75,1l-6.57,7.53c.6,1.83,1.68,3,2.58,4.52l-4.27,7.27c-.12.2.28.74.47.73.14-.01.5-.23.76-.48l7.77-7.62-2.35-3.92,7.35-9.01ZM141.42,134.69l-5.11,6.09c-.52.62-.85,1.61-.26,2.28.76.85,1.65,1.31,3.02,1.46-.02-2.2,1.02-3.42,2.2-4.78l4.64-5.34c-1.5-.23-2.92.04-4.49.28ZM52.19,134.62l-5.38.67c-2.54,2.54-4.98,5.13-7.08,8.01.51,1.79,1.66,2.93,2.67,4.46l-4.13,6.61c-.31.51.17,1.46.39,1.25l8.46-8.02-2.41-3.89,7.48-9.11ZM55.21,134.93l-4.53,5.09c-.51.57-1.39,1.73-1.15,2.44.46,1.41,2.24,2.04,3.45,1.92-.03-2.01.5-2.65,1.32-3.56l5.5-6.37c-1.37.03-3.45-.32-4.58.48ZM141.42,134.69l-5.11,6.09c-.52.62-.85,1.61-.26,2.28.76.85,1.65,1.31,3.02,1.46-.02-2.2,1.02-3.42,2.2-4.78l4.64-5.34c-1.5-.23-2.92.04-4.49.28ZM138.32,134.78c-1.72.02-4.28-.02-5.75,1l-6.57,7.53c.6,1.83,1.68,3,2.58,4.52l-4.27,7.27c-.12.2.28.74.47.73.14-.01.5-.23.76-.48l7.77-7.62-2.35-3.92,7.35-9.01ZM55.21,134.93l-4.53,5.09c-.51.57-1.39,1.73-1.15,2.44.46,1.41,2.24,2.04,3.45,1.92-.03-2.01.5-2.65,1.32-3.56l5.5-6.37c-1.37.03-3.45-.32-4.58.48ZM52.19,134.62l-5.38.67c-2.54,2.54-4.98,5.13-7.08,8.01.51,1.79,1.66,2.93,2.67,4.46l-4.13,6.61c-.31.51.17,1.46.39,1.25l8.46-8.02-2.41-3.89,7.48-9.11ZM138.32,134.78c-1.72.02-4.28-.02-5.75,1l-6.57,7.53c.6,1.83,1.68,3,2.58,4.52l-4.27,7.27c-.12.2.28.74.47.73.14-.01.5-.23.76-.48l7.77-7.62-2.35-3.92,7.35-9.01ZM141.42,134.69l-5.11,6.09c-.52.62-.85,1.61-.26,2.28.76.85,1.65,1.31,3.02,1.46-.02-2.2,1.02-3.42,2.2-4.78l4.64-5.34c-1.5-.23-2.92.04-4.49.28ZM141.42,134.69l-5.11,6.09c-.52.62-.85,1.61-.26,2.28.76.85,1.65,1.31,3.02,1.46-.02-2.2,1.02-3.42,2.2-4.78l4.64-5.34c-1.5-.23-2.92.04-4.49.28ZM138.32,134.78c-1.72.02-4.28-.02-5.75,1l-6.57,7.53c.6,1.83,1.68,3,2.58,4.52l-4.27,7.27c-.12.2.28.74.47.73.14-.01.5-.23.76-.48l7.77-7.62-2.35-3.92,7.35-9.01Z"/>
  </g>
</svg>