<?xml version="1.0" encoding="UTF-8"?>
<svg id="Layer_2" data-name="Layer 2" xmlns="http://www.w3.org/2000/svg" viewBox="0 0 677.46 423.25">
  <defs>
    <style>
      .cls-1 {
        fill: #e8e8e8;
      }
    </style>
  </defs>
  <g id="Layer_2-2" data-name="Layer 2">
    <g>
      <g>
        <path class="cls-1" d="M599.4,218.16c-1.04.31.99,1.2.9,1.08-.31-.36-.61-.73-.9-1.08ZM599.4,218.16c-1.04.31.99,1.2.9,1.08-.31-.36-.61-.73-.9-1.08ZM599.4,218.16c-1.04.31.99,1.2.9,1.08-.31-.36-.61-.73-.9-1.08ZM599.4,218.16c-1.04.31.99,1.2.9,1.08-.31-.36-.61-.73-.9-1.08ZM599.4,218.16c-1.04.31.99,1.2.9,1.08-.31-.36-.61-.73-.9-1.08ZM599.4,218.16c-1.04.31.99,1.2.9,1.08-.31-.36-.61-.73-.9-1.08ZM599.4,218.16c-1.04.31.99,1.2.9,1.08-.31-.36-.61-.73-.9-1.08Z"/>
        <path class="cls-1" d="M607.56,221.93c-.49-7.57-5.07-12.51-11.99-16.96-63.93-41-152.61-73.13-229.21-81.34,3.33-3.89,6.58-6.8,7.6-11.75.59-2.86-.62-5.59-2.83-6.63-6.27-2.99-13.8,13.14-31.64,16.13l-21.09-.07c-6.53-.02-11.7,3.23-13.78,10.24l-141.29,38.81-27.67,6.44c-9.18,2.13-15.38,10.73-15.33,19.82.03,6.54,5.54,20.29,13.4,18.68l44.61-9.18c26-5.33,50.34-13.59,74.64-23.5,1.22-4.98.68-9.62,3.07-13.64,8.42-14.25,42.63-9.39,65.11-20.97l45.53,9.55c34.92,7.33,67.21,19.93,100.19,33.66,31.35,13.07,59.99,28.66,88.52,46.83,12.57,8,28.22,9.22,41.24,2.62,7.59-3.84,11.42-11.18,10.92-18.73ZM248.82,172.34l-7.9-7.27c-15.71.71-30.01,6.39-45.36,9.76l-60.32,13.23,109.81-29.16,3.77,12.12v1.34ZM538.84,215.68c-.19-.3-.47-.54-1.01-.31-47.4-26.7-97.92-47.87-150.67-61.2.02-.59-.35-.9-.71-1.02-.87.09-2.05.45-3.82-.61,1.3-1.42,3.19-1.01,4.53-.07.21.17.56.45.82.49,11.75,1.39,22.79,5.12,34.94,8.71,41.35,12.2,80.42,29.23,115.95,52.33-.1.54.26.92.66.99,1.53.26,2.9.76,3.82,2.69-2.67.82-3.65-.76-4.51-2ZM599.97,221.15c-8.42-9.58-19.2-14.41-30.86-20.6-66.71-35.32-137.77-59.21-212.62-71.22-1.53,1.65-3.92-.07-.99-1.67,78.39,6.09,169.2,38.64,235.77,80.21,4.36,2.73,7.52,5.9,9.77,10.21-.45.42.03,1.23-1.08,3.07Z"/>
        <g>
          <path class="cls-1" d="M599.4,218.16c.3.35.59.71.9,1.08.09.12-1.94-.76-.9-1.08Z"/>
          <path class="cls-1" d="M599.4,218.16c.3.35.59.71.9,1.08.09.12-1.94-.76-.9-1.08Z"/>
        </g>
      </g>
      <path class="cls-1" d="M337.99,2.48v3.45s-.03-.05-.07-.07c-16.11,14.86-18.56,23.55-18.56,45.74l.02,55.49c-10.68-.57-19.77,4.63-25.38,13.45l-42.42,11.82-2.36-66.25-94.48-2.38c-26.7-.68-69.88-5.99-80.21,19.58-6.98,17.27-5.52,37.54,3.33,53.81,5.07,9.3,11.39,16.91,18.23,25.05-20.78,8.05-40.65,18.23-59.35,30.34C1.27,151.74-11.98,78.64,22.41,40.21,40.48,20.02,63.18,8.06,89.96,4.35,116.23.72,141.26-.39,167.99.11l122.04,2.38,47.96-.02Z"/>
      <path class="cls-1" d="M329.31,409.64c-4.27-4.6-7.64-10.17-7.69-17.08l-2.05-228.95-24.23,6.53s-27.6,6.37-27.6,6.37c1.08,5.82-.64,11.13-4.66,15.41-3.08,3.28-9.42,5.16-11.1,9.14-1.18,2.8-.14,8.4-.18,11.47-.06,4.3-.13,8.61-.2,12.91-.15,8.61-.33,17.22-.53,25.82-.79,33.71-1.99,67.41-3.59,101.09-.15,3.21-.51,6.83-3.03,8.83-1.47,1.16-3.4,1.53-5.25,1.79-18.56,2.67-38.37,1.55-57.12,1.95-19.14.41-38.3.54-57.44-.24-16.32-.66-34.71-5.56-45.56-18.62-16.22-19.53-12.79-61.29.49-81.41,6.03-9.13,14.89-15.81,24.39-21,7.69-4.21,16.38-6.58,24.44-9.99.4-.17.82-.36,1.03-.74.57-1.01-.79-1.97-1.87-2.38-9.58-3.64-17.54-11.34-21.47-20.81-3.93-9.46-3.75-20.56.51-29.88.27-.59.48-1.45-.1-1.75-.31-.16-.68-.05-1.01.06-21.01,7.42-39.88,18.88-58.11,31.48-16.15,11.17-32.12,24.35-40.19,42.75C.83,266.92.06,283.2,0,299.04c-.05,13.83.38,27.74,2.97,41.33,4.76,24.98,17.71,46.45,39.38,60.12,19.55,12.33,42.8,17.63,65.5,20.27,11.87,1.38,23.82,2.01,35.76,2.29,14.47.34,28.95.15,43.43.03l149.38-1.15c.69,0,1.38,0,2.07.01v-2.48l-9.18-9.84Z"/>
      <g>
        <path class="cls-1" d="M635.92,196.31c-18.47-11.91-38.08-21.91-58.58-29.86-.05-.02-.1-.03-.16-.05l14.11-18.09c12.98-15.78,17.13-35.31,13.61-55.34-5.21-29.73-35.79-31.09-64.8-30.19l-49.87,1.34-63.15,1.74-2.66,53.57-36.82-7.78c.28-7.85-3.07-14.37-9.06-18.21-6.16-3.96-13.7-3.99-21.09,1.02l-.3-42.21c-.17-23.61-2.76-30.1-19.18-46.33v-3.45l47.79-.02L504.87.18c26.8-.52,52.19.35,78.41,3.66,23.64,2.97,43.85,11.47,61.64,27.03,15.15,13.24,24.6,30.06,27.41,50.7,5.75,41.8-7.76,84.1-36.4,114.74Z"/>
        <path class="cls-1" d="M674.7,270.22c-5.82-33.83-33.1-54.2-61.5-70.09,12.84,16.39,11.65,36.99-4.24,49.78-4.32,3.49-8.9,5.33-15.26,8,13.87,18.04,16.06,55.63,9.63,77.33-6.04,20.43-21.66,26.16-41.28,27.55-32.64,2.31-65.43,2.65-98.12,1.02-9.4-.47-18.7,0-27.97-2.03-1.91-.42-3.94-1-5.14-2.54-1.04-1.34-1.22-3.14-1.34-4.83-1.55-20.25-1.66-40.6-2.43-60.9-.78-20.77-2.36-41.69-2.36-62.47-.39-10.37-.78-20.74-1.17-31.1-.17-4.49.66-7.93-2.43-10.68-2.7-2.42-9.38-3.5-12.82-4.72-4.48-1.58-51.46-14.37-51.46-14.85,0,.07-2.66,227.06-2.66,227.06-.12,9.69-10.81,15.97-15.67,22.74v2.48c60.25.4,120.55.59,180.83.71,31.53.06,63.88-.01,93.36-11.19,24.28-9.2,47.01-27.66,56.05-52.61,1.95-5.39,3.56-11.09,4.83-16.98,5.03-23.27,4.94-49.51,1.13-71.66Z"/>
      </g>
    </g>
  </g>
</svg>