<?xml version="1.0" encoding="UTF-8"?>
<svg id="Layer_2" data-name="Layer 2" xmlns="http://www.w3.org/2000/svg" viewBox="0 0 726.61 394.84">
  <defs>
    <style>
      .cls-1 {
        fill: #211f20;
      }
    </style>
  </defs>
  <g id="Layer_2-2" data-name="Layer 2">
    <g>
      <path class="cls-1" d="M224.21,340.4c-.9.8-1.4,2.58-3.38,2.14.54-1.42,1.8-1.87,2.63-2.8l.76.66Z"/>
      <g>
        <path class="cls-1" d="M298.03,385.62c.45,10.37-14.82,10.75-28.06,6.77.21-2.24,1.32-4.28,2.76-7.54,6.23,5.99,18.34,4.95,18.15,1.58-.04-.74-.74-1.64-1.98-1.83l-13.11-2.05c-2.72-.43-4.81-2.51-5.18-4.69-.48-2.75.56-5.76,3.25-7.23,5.51-3.02,12.05-2.65,18.06-.81,1.74.53,3.1.9,4.99.24l-2.91,6.48c-4.49-4.63-15.72-4.01-16-1.06-.05.58.49,1.5,1.52,1.67l12.34,2c3.61.59,6.02,3.22,6.16,6.48Z"/>
        <path class="cls-1" d="M364.53,368.6c-2.27,10.98,3.01,22.15-8.22,25.34-9.44,2.68-20.09-.74-20.15-8.93l-.09-12.57c0-1.3-.5-2.25-1.22-3.81l9.36.04c-.25,6.02-1.24,11.74.37,17.39,1.03,3.61,9.52,3.94,10.78.17,1.89-5.65.86-12.13.17-17.66l9,.02Z"/>
        <path class="cls-1" d="M319.38,374.71c.46,6.9-.86,12.91.84,19.65l-9.85.08c1.12-1.56,1.36-3.06,1.33-4.98l-.22-14.82c-3.46-.29-6.49-.91-9.34,1.11l-.18-7.98,23.74.85c1.29.05,2.33-.58,3.35-1.33.59,3.34.46,5.87-.16,8.4-3.07-2.11-6.35-1.37-9.51-.98Z"/>
        <path class="cls-1" d="M419.22,390.69c0,1.8.6,2.67,1.51,3.74l-9.89-.06c1.51-7.86.37-15.07.68-22.75l-1.07-3.07,10.15-.08c-.69.97-1.31,1.92-1.32,3.27l-.06,18.94Z"/>
        <path class="cls-1" d="M391.91,368.79l-18.22-.13c2.02,7.52.27,14.48.98,21.64.17,1.74-.53,2.85-1.58,4.18l19.08-.1c7.65-.05,11.49-6.61,11.36-13.4-.13-6.9-4.51-12.14-11.62-12.19ZM393,387.47c-3.28,2.03-7.12.93-10.47.99l-.03-14.04c3.48.09,6.94-.78,10.18.82,4.02,1.99,4.47,9.65.32,12.23Z"/>
        <path class="cls-1" d="M454.17,372.05c-5.46-4.18-12.91-4.66-19.07-2.09-5.23,2.18-8.07,7-7.89,12.25.15,4.83,3.21,9.21,8.17,11.16,8.94,3.52,20.13.55,22.58-7.92,1.35-4.65.22-10.33-3.79-13.4ZM441.47,388.56c-4.25-.78-6.79-4.41-6.37-7.92.44-3.6,3.73-6.16,7.58-6.29,4.81-.17,8.11,2.91,8.19,7.12.09,4.71-4.03,8.08-9.4,7.09Z"/>
      </g>
      <path class="cls-1" d="M65.69,344.53c-2.11,1.15-3.63,3.85-6.78,4.04,1.57-2.62,4.14-3.47,5.95-5.09l.84,1.05Z"/>
      <path class="cls-1" d="M73.44,276.57c-3.54-.11-5.46,3.26-8.58,4.77,1.39-3.69,4.79-4.77,7.04-6.64l1.54,1.86Z"/>
      <path class="cls-1" d="M481.37,272.33l-4.44,3.25c.07-2.56,2.26-3.22,3.62-4.29.25.36.48.63.82,1.04Z"/>
      <path class="cls-1" d="M293.02,272.21l-4.26,3.54c-.13-2.66,2.02-3.36,3.35-4.4-.16.5.5,1,.91.87Z"/>
      <g>
        <path class="cls-1" d="M122.65,326.24c0,.26-.07.64.02.77l-18.72,19.3c-14.58-7.85-24.04-9.53-38.26-1.78-1.48.76-1.9.23-.84-1.05,5.55-4.99,8.45-12.04,9.01-19.93,1.13-15.85.45-31.48-.43-46.98-2.4.2-2.91-.42-1.54-1.86l24.99-20.72-6.52,8.11c-1.87,4.55-1.54,10.13-1.48,15.23l.41,35.55c.08,6.83-2.77,12.13-7.16,18.14,14.01-6.73,19.51-5.38,32.59,1.25l7.91-6.04Z"/>
        <path class="cls-1" d="M379.5,329c-.61-.6-1.29-1.49-1.98-1.62,3.6-.03,5.36-4.52,7.99-4.82-1.57,3.23-4.13,4.62-6.02,6.44Z"/>
        <path class="cls-1" d="M447.99,326.5c-.75,1.94-2.69,2.84-4.08,4.15l-.84-.84c-1.69-2.37,2.25-5.64,4.31-3.27.18-.04.42-.07.62-.03Z"/>
        <path class="cls-1" d="M66.47,307.15c-2.62-7.13-9.28-11.3-17.06-12.19,6.66-6.51,13.69-13.55,11.69-22.79-12.65-.53-24.45-5.97-33.22-15.19l-16.12,12.16c-1.8,1.37-3.54,2.73-4.58,5.03,2.83-1.39,5.23-3.59,8.04-2.24l9.24,4.42-14.02,12.63c-2.31,2.07-1.29,4.86-.2,7.3,5.64,12.53,14.35,25.7,4.12,31.41-4.75,3.38-9.79,5.66-14.36,10.39,12.33-3.17,24.35-1.7,35.47,4.32,1.04.57,3.15,1.66,4.37.63,8.3-7.05,16.38-14.13,23.19-22.53,3.12-3.84,5.15-8.7,3.44-13.35ZM47.01,286.68c1.07,1.86.76,3.82-.14,6.1-3.84,4.66-7.1,8.88-12.09,13.02l-.24-24.28,12.47,5.16ZM25.93,277.94c2.23.49,4,1.49,5.85,2.96l-.29,23.67-8.3-19.5c-1.17-2.76.07-5.75,2.74-7.13ZM51.87,328.84c-8.06,1.17-16.78-6.29-29.79-4.75l11.64-11.03,1.15-4.02c5.62-.1,11.43.66,15.99,4.43,4.35,3.6,4.83,11.1,1.01,15.37Z"/>
        <path class="cls-1" d="M344.87,301.68c-3.08-3.66-6.91-6.09-12.57-6.57l6.91-7.95c3.59-4.12,5.6-9.2,4.41-15.03-12.68-.4-24.17-5.97-33.22-15.06l-18.29,14.27c-1.35,1.45-.67,2.05.91.87,4.62-1.5,9.48,1.21,13.45,4.63l-12.33,10.91c-2.65,2.35-3.12,4.73-1.72,7.93l8.43,19.37c2.46,5.63-.19,10.93-5.4,13.98-4.59,2.67-9.28,4.99-12.79,9.31,13.44-3.93,26.34-1.66,38.46,5.68,9.03-7.45,17.44-15.16,24.71-23.81,5.03-6,4.75-13.48-.96-18.53ZM328.85,286.46c5.34,2.21-4.42,13.27-11.38,19.23l-.19-24.01,11.57,4.78ZM308.28,277.88c2.28.41,4.01,1.53,5.86,3.07l-.31,23.55-8.08-18.88c-1.25-2.93-.33-6.1,2.53-7.74ZM334.38,328.98c-8.74.68-17.32-6.52-29.93-4.9l9.19-8.32c2.05-1.86,3.72-3.34,3.53-6.75,5.73.05,11.58.5,16.21,4.32,4.36,3.58,4.88,11.52,1,15.65Z"/>
        <path class="cls-1" d="M265.77,270.6c-6.13-3.88-11.5-8-16.99-13.05-7.09,5.01-12.99,10.67-18.73,17.22,6.21-3.2,9.06-1.31,15.13,3.36l-13.83,12.1c-2.91,2.55-3.22,6.23-1.51,9.46l6.15,11.69c2.07,3.92,3.62,10.15.48,13.69l-13.01,14.67c-.71,1.56-.21,2,.75.66,7.89-7.04,21.32.14,32.29,4.17l21.47-21.18c3.73-3.68,6.96-8.35,7.62-13.58,2.06-16.28-6.33-30.67-19.82-39.21ZM246.31,278.95c2.42.62,4.03,2.23,5.09,4.32l-.34,23-8.77-19.86c-1.27-2.87,1.6-6.18,4.02-7.46ZM270.78,326.09c-4.67,8.82-14.03-3.48-29.82-1.39l12.66-11.22.36-29.04c15.58,10.79,24.91,24.16,16.8,41.65Z"/>
        <path class="cls-1" d="M411.48,326.7l-2.67,1.71c-1.04-2.13-1.59-5.16-2.08-7.67l9.7-11.13-13.97-2.87-10.5-35.16c-1.52-5.08-2.46-9.74-2.58-14.79l-21.64,17.03c2.56-.49,4.38-1.6,6.02-.72,1.74.93,2.06,3.31,1.09,5.54-2.87,6.59-4.2,14.56-8.73,20.35-3.02,1.89-7.47,3.01-9.61,7.29l-5.98,7.58c3.76-1.32,6.86-2.45,11.11-1.22-2.56,6.05-4.42,12.7-9.16,17.39l-12.92,12.8c5.34-3.19,10.2-6.32,16.2-4.69l11.11,3.01,12.63-12.14c1.15-1.32.84-1.91-.9-1.77h-.01c-.31.03-.67.08-1.07.15l-14.11-2.68,4.85-10.62,21.62,4.57,3.67,13.25c1.79,6.48-2.23,11.59-6.4,16.81l24.55-18.77c.89-.68,1.36-1.08,1.38-2.03.03-.91-1-1.61-1.6-1.22ZM373.25,301.01l6.22-16.11,5.83,18.64-12.05-2.53Z"/>
        <path class="cls-1" d="M202.26,259.14l-16.43,13.61c-8.91,7.37-14.29,16.42-14.17,28.37.17,17.57,8,34.6,23.08,44.07l19.22-16.26c4.42-3.74,7.04-8.15,8.19-14.05,3.05-20.47-4.07-41.73-19.89-55.74ZM203.03,330.75c-6.71-5.63-12.72-12.16-15.88-20.45-4.63-12.16-4.99-25.94,2.07-37.31,26.34,18.97,23.7,66.08,13.81,57.76Z"/>
        <path class="cls-1" d="M147.58,259.19c-8.4,6.36-16.54,12.59-23.61,20.39-9.9,10.91-8.36,32.82-1.32,46.66-.05.04-.09.07-.13.1-.26.25-.22.48.15.67,4.79,6.96,9.27,13.73,17.22,18.05l21.74-18.58c3.81-3.26,5.46-9.24,5.96-14.45,1.88-19.61-5.13-39.19-20.01-52.84ZM148.63,330.93c-13.41-9.62-20.73-25.12-19.49-41.73.43-5.75,1.64-11.13,5.31-16.14,25.73,19.11,23.69,64.69,14.18,57.87Z"/>
        <path class="cls-1" d="M534.97,303.19c-3.46-4.31-8.13-7.42-14.32-8.17l7.21-8.31c3.44-3.96,4.99-8.94,3.82-14.49-12.54-.48-24.03-5.99-33.02-15.15l-18.11,14.23c-.89,1.46-.52,1.99.82,1.04,1.95-1.43,5.12-.63,7.45.66l6.33,3.5-15.52,14.82c3.01,12.44,17,29.25,5.9,36.16l-9.26,5.78c-10.51-10.19-18.35-22.12-24.24-35.66l10.74-9.03c3.07-2.58,5.43-5.55,6.42-9.98-12.26-2.69-23.7-8.34-33-17.53l-17.09,14.27c4.53-.41,9.17.86,12.34,4-11.14,8.05-19.81,12.09-15.07,24.6l6.29,16.6c1.98,5.22-1.27,9.59-5.71,12.15-5.09,2.92-8.35,8.13-10.15,13.33,7.42-5.33,12.18-2.53,19.78.89l17.33-16.25c.78-1.49.35-1.97-.84-.84-1.02.98-3.35,2.88-5.08,2.5l-12.92-2.78,11.48-10.48c2.21-3.11.02-7.44,1.56-11.76l9.63,17c.4.71-.13,1.88-.37,2.24l.62-.02c2.43.5,10.86,16.3,17.48,22.42,5.03-3.77,8.41-9.37,13.72-11.74,10.16-2.61,20.68,1.72,29.98,6.67l13.86-11.97c9.6-8.29,19.57-19.17,11.94-28.7ZM434.9,280.19l.03,27.32c-4.48-9.94-11.65-24.82-.03-27.32ZM437.7,304.13c-.86-7.6-.73-14.54-.07-22.02l16.6,8.95c-4.52,5.31-9.97,9.18-16.53,13.07ZM517.43,286.93c2.25,1,.46,6.18-1.2,7.89l-10.55,10.92-.13-24.07,11.88,5.26ZM496.48,277.9c2.34.34,4.11,1.39,5.96,3.04l-.3,23.58-8.19-19.67c-.66-2.82-.08-5.56,2.53-6.95ZM522.57,328.88c-8.06,1.33-16.59-6.59-29.89-4.84l9.27-8.16c2.13-1.87,3.5-3.44,3.52-6.82,5.58-.06,11.22.32,15.77,3.81,4.63,3.55,5.34,11.77,1.33,16.01Z"/>
        <g>
          <path class="cls-1" d="M700.32,346.51c-11.38-11.07-25.53-24.11-35.02-11.07-.2-4.58,3.27-6.38,5.54-9.24,2.66-3.36,5.31-7.01,9.76-8.09,6.23-1.51,12.54.5,17.51,4.31l13.43,10.29c3.19-3.63,2.84-8,1.37-11.86-3.28-8.61-17.54-6.8-29.48-12.54-4.41-2.12-8.05-5.74-9.13-9.44-1.54-5.24-.61-10.75,2.77-14.83,7.06-8.5,15.6-15.17,24.38-21.94-2.9,7.08,6.04,13.74,13.99,16.62,3.24,1.17,4.9-.62,8.14-2.38l-14.1,17.2c-8.83-2.47-16.08-7.27-22.23-15.33-2.19,3.88-2.24,7.94-.55,11.7,1.32,2.93,4.87,4.72,8.63,5.68l18.09,4.62c5.8,1.48,10.33,5.7,11.87,10.25,1.97,5.8,2.18,13.11-2.33,16.92l-22.63,19.14Z"/>
          <path class="cls-1" d="M556.97,321.09c2.69,9.06,10,.99,27.28,8.38,6.79,2.9,9.3-5.29,14.04-6.35l-21.38,22.54c-12.03-8.61-25.82-10.47-39.95-5.35,2.19-3.77,5.6-5.29,8.61-8-6.26-14.02-2.22-22.78,9.51-32.5-4.5-3.67-8.35-8.22-9-14.34-.51-4.79,1.99-9.2,5.64-12.26l20.07-16.8c1.02,11.11,12.78,18.34,24.17,17.59l-14.94,13.78c-6.07-1.1-10.93-4.32-15.27-8.54l-7.53-7.34c-1.36,11.54,12.2,22.38,22.95,23.5,3.9.41,5.61-4.03,8.86-5.27-4.9,8.32-12.87,13.66-19.34,20.38l-13.19-8.79c-2.05,6.53-2.44,13.01-.54,19.4Z"/>
          <path class="cls-1" d="M662.75,287.1l-1.41,1.53c-.46.5-2.25-.41-1.93-.88,2.78-3.89,4.23-8.91,1.85-13.27l-4.61-6.01,10.3-9.12,7.91,6.61c1.49,1.24,2.06,3.12.74,4.81l-12.83,16.33Z"/>
          <path class="cls-1" d="M656.71,333.64c-5.9.28-22.38-25.4-26.57-36.03l9.92-8.13c3.62-2.97,6.53-6.37,7.21-11-12.54-2.79-23.65-8.51-32.89-17.43l-19.54,16.82c2.78.12,3.45-2.34,5.16-2.93,3.9.66,6.81,2.06,10.13,4.35l-12.14,8.86c-4.98,3.64-5.5,9.96-3.36,15.64l6.7,17.77c1.06,2.81.42,6.66-2.22,8.33-6.21,3.93-11.76,8.73-13.66,16.18,6.81-5.41,11.5-2.45,19.85.89l21.84-20.88c5.23,8.24,10.2,15.62,16.45,22.62l11.68-10.1c3.85-3.33,7.99-6.37,10.58-10.41-3.92,1.19-5.66,5.28-9.14,5.45ZM613.29,280.19l-.14,27.66-6.25-17.98c-1.48-4.26.91-8.78,6.39-9.68ZM603.18,329.59c4.06-4.08,9.2-6.19,11.92-10.78,2.02-3.41.28-7.85,1.06-12.02l10.24,18.19c-9.4,10.66-10.94,6.95-23.22,4.61ZM615.83,303.81l.07-21.61,16.74,8.95c-4.95,5.02-10.19,9.16-16.81,12.66Z"/>
        </g>
      </g>
      <g>
        <g>
          <path class="cls-1" d="M514.41,125.69c-.6.18.57.69.52.62-.18-.21-.35-.42-.52-.62ZM514.41,125.69c-.6.18.57.69.52.62-.18-.21-.35-.42-.52-.62ZM514.41,125.69c-.6.18.57.69.52.62-.18-.21-.35-.42-.52-.62ZM514.41,125.69c-.6.18.57.69.52.62-.18-.21-.35-.42-.52-.62ZM514.41,125.69c-.6.18.57.69.52.62-.18-.21-.35-.42-.52-.62ZM514.41,125.69c-.6.18.57.69.52.62-.18-.21-.35-.42-.52-.62ZM514.41,125.69c-.6.18.57.69.52.62-.18-.21-.35-.42-.52-.62Z"/>
          <path class="cls-1" d="M519.11,127.86c-.28-4.36-2.92-7.21-6.91-9.77-36.83-23.62-87.92-42.13-132.05-46.86,1.92-2.24,3.79-3.92,4.38-6.77.34-1.65-.36-3.22-1.63-3.82-3.61-1.72-7.95,7.57-18.23,9.29l-12.15-.04c-3.76-.01-6.74,1.86-7.94,5.9l-81.4,22.36-15.94,3.71c-5.29,1.23-8.86,6.18-8.83,11.42.02,3.77,3.19,11.69,7.72,10.76l25.7-5.29c14.98-3.07,29-7.83,43-13.54.7-2.87.39-5.54,1.77-7.86,4.85-8.21,24.56-5.41,37.51-12.08l26.23,5.5c20.12,4.22,38.72,11.48,57.72,19.39,18.06,7.53,34.56,16.51,51,26.98,7.24,4.61,16.26,5.31,23.76,1.51,4.37-2.21,6.58-6.44,6.29-10.79ZM312.44,99.29l-4.55-4.19c-9.05.41-17.29,3.68-26.13,5.62l-34.75,7.62,63.26-16.8,2.17,6.98v.77ZM479.52,124.26c-.11-.17-.27-.31-.58-.18-27.31-15.38-56.41-27.58-86.8-35.26.01-.34-.2-.52-.41-.59-.5.05-1.18.26-2.2-.35.75-.82,1.84-.58,2.61-.04.12.1.32.26.47.28,6.77.8,13.13,2.95,20.13,5.02,23.82,7.03,46.33,16.84,66.8,30.15-.06.31.15.53.38.57.88.15,1.67.44,2.2,1.55-1.54.47-2.1-.44-2.6-1.15ZM514.74,127.41c-4.85-5.52-11.06-8.3-17.78-11.87-38.43-20.35-79.37-34.11-122.49-41.03-.88.95-2.26-.04-.57-.96,45.16,3.51,97.48,22.26,135.83,46.21,2.51,1.57,4.33,3.4,5.63,5.88-.26.24.02.71-.62,1.77Z"/>
          <g>
            <path class="cls-1" d="M514.41,125.69c.17.2.34.41.52.62.05.07-1.12-.44-.52-.62Z"/>
            <path class="cls-1" d="M514.41,125.69c.17.2.34.41.52.62.05.07-1.12-.44-.52-.62Z"/>
          </g>
        </g>
        <path class="cls-1" d="M363.81,1.43v1.99s-.02-.03-.04-.04c-9.28,8.56-10.69,13.57-10.69,26.35v31.97c-6.14-.33-11.38,2.67-14.61,7.75l-24.44,6.81-1.36-38.17-54.43-1.37c-15.38-.39-40.26-3.45-46.21,11.28-4.02,9.95-3.18,21.63,1.92,31,2.92,5.36,6.56,9.74,10.5,14.43-11.97,4.64-23.42,10.5-34.19,17.48-20.44-23.49-28.07-65.6-8.26-87.74,10.41-11.63,23.49-18.52,38.92-20.66C236.05.42,250.47-.22,265.87.07l70.31,1.37h27.63Z"/>
        <path class="cls-1" d="M358.81,236c-2.46-2.65-4.4-5.86-4.43-9.84l-1.18-131.9-13.96,3.76s-15.9,3.67-15.9,3.67c.62,3.35-.37,6.41-2.69,8.88-1.78,1.89-5.43,2.97-6.39,5.27-.68,1.62-.08,4.84-.1,6.61-.04,2.48-.07,4.96-.12,7.44-.09,4.96-.19,9.92-.3,14.88-.46,19.42-1.15,38.84-2.07,58.24-.09,1.85-.29,3.94-1.74,5.09-.84.67-1.96.88-3.02,1.03-10.69,1.54-22.11.9-32.91,1.13-11.03.24-22.07.31-33.09-.14-9.4-.38-20-3.2-26.25-10.73-9.34-11.25-7.37-35.31.28-46.9,3.47-5.26,8.58-9.11,14.05-12.1,4.43-2.42,9.44-3.79,14.08-5.76.23-.1.47-.21.59-.42.33-.58-.46-1.14-1.08-1.37-5.52-2.1-10.11-6.53-12.37-11.99-2.26-5.45-2.16-11.84.3-17.21.16-.34.27-.83-.06-1.01-.18-.09-.39-.03-.58.04-12.1,4.27-22.98,10.88-33.48,18.14-9.3,6.43-18.51,14.03-23.16,24.63-3.67,8.36-4.11,17.74-4.14,26.87-.03,7.97.22,15.98,1.71,23.81,2.74,14.39,10.2,26.76,22.69,34.64,11.26,7.1,24.66,10.16,37.73,11.68,6.84.8,13.72,1.16,20.6,1.32,8.34.2,16.68.09,25.02.02l86.06-.66c.4,0,.79,0,1.19,0v-1.43l-5.29-5.67Z"/>
        <g>
          <path class="cls-1" d="M535.45,113.1c-10.64-6.86-21.94-12.62-33.75-17.2-.03-.01-.06-.02-.09-.03l8.13-10.42c7.48-9.09,9.87-20.34,7.84-31.88-3-17.13-20.62-17.91-37.33-17.39l-28.73.77-36.38,1-1.53,30.86-21.21-4.48c.16-4.52-1.77-8.28-5.22-10.49-3.55-2.28-7.89-2.3-12.15.59l-.17-24.32c-.1-13.6-1.59-17.34-11.05-26.69v-1.99h27.53S459.95.11,459.95.11c15.44-.3,30.07.2,45.17,2.11,13.62,1.71,25.26,6.61,35.51,15.57,8.73,7.63,14.17,17.32,15.79,29.21,3.31,24.08-4.47,48.45-20.97,66.1Z"/>
          <path class="cls-1" d="M557.79,155.67c-3.35-19.49-19.07-31.23-35.43-40.38,7.4,9.44,6.71,21.31-2.44,28.68-2.49,2.01-5.13,3.07-8.79,4.61,7.99,10.39,9.25,32.05,5.55,44.55-3.48,11.77-12.48,15.07-23.78,15.87-18.81,1.33-37.69,1.53-56.52.59-5.42-.27-10.78,0-16.12-1.17-1.1-.24-2.27-.58-2.96-1.47-.6-.77-.7-1.81-.77-2.79-.89-11.67-.96-23.39-1.4-35.08-.45-11.97-1.36-24.02-1.36-35.99-.23-5.97-.45-11.95-.68-17.92-.1-2.59.38-4.57-1.4-6.15-1.56-1.39-5.4-2.02-7.39-2.72-2.58-.91-29.65-8.28-29.64-8.55,0,.04-1.53,130.81-1.53,130.81-.07,5.58-6.23,9.2-9.03,13.1v1.43c34.71.23,69.45.34,104.18.41,18.16.04,36.8,0,53.79-6.45,13.99-5.3,27.09-15.94,32.29-30.31,1.13-3.11,2.05-6.39,2.78-9.78,2.9-13.4,2.84-28.52.65-41.29Z"/>
        </g>
      </g>
    </g>
  </g>
</svg>